<svg xmlns="http://www.w3.org/2000/svg" id="Layer_1" data-name="Layer 1" viewBox="0 0 1262.63 338.57"><defs><style>.cls-1{fill:#252122;}.cls-2{fill:#fdfdfd;}.cls-3{fill:#7a7878;}.cls-4{fill:#02954b;}.cls-5{fill:#dc1b38;}.cls-6{fill:#fdc434;}.cls-7{fill:#0283cb;}</style></defs><path class="cls-1" d="M550.49,319.1v16.64c-.87.69-2,.32-3,.33q-160.66.36-321.32.67c-74.33.09-145-51.22-167.24-121.2a154.45,154.45,0,0,1-6.54-33c-.07-.75.35-1.73-.73-2.18v-2.52c1.3-1,.69-2.35.56-3.45-.44-3.68.89-7.43-.56-11v-3.15c1.54-3.93,1.27-8.14,1.76-12.21,8.67-72.69,59.89-128.49,132-143.32,41.3-8.49,81.84-6,120.26,12.07,54.33,25.56,86,68.55,95.28,127.88A166.8,166.8,0,0,1,402.5,162c-3,.63-5.93.23-8.82.3s-5.85,0-9,0a137.75,137.75,0,0,0-2.54-21.45C370.64,87.63,339.28,50.47,289.3,29.57c-61.73-25.82-137.07-8.81-180.53,40C80.83,101,68.4,138.28,72.53,179.76,78.9,244,115.39,286,174.43,309.46c17.43,6.93,35.84,9.67,54.66,9.66q158.76-.06,317.53,0Z" transform="translate(-51.69)"></path><path class="cls-1" d="M1209.62,336.17c0,1.26-.74,1.71-1.37,2.4h-3.78c0-7.44,0-14.87-.06-22.3-.06-5.1-2.4-8.19-6.61-9-6.16-1.23-10.85,2.49-10.94,8.82-.08,6.49,0,13,0,19.47,0,1.25,0,2.42-1.33,3h-3.79c0-7.54,0-15.07-.1-22.6-.11-6.06-3.85-9.35-9.71-8.85-4.78.41-7.69,3.62-7.79,8.94-.12,6.49-.05,13,0,19.47,0,1.23.05,2.42-1.31,3H1159V303h4.93c.1,1.09.2,2.07.3,3.13,8.66-5.48,14.36-5,20.9,1.87a14.33,14.33,0,0,1,12.65-5.44c6.55.36,11.56,5,11.71,11.62C1209.67,321.49,1209.5,328.84,1209.62,336.17Z" transform="translate(-51.69)"></path><path class="cls-1" d="M1150.86,305.33q-4.74,15.15-9.51,30.3a4.38,4.38,0,0,1-1.91,2.94h-3.79c-3-9-6-18-9.22-27.71-1.28,3.74-2.27,6.78-3.36,9.79-2.15,6-3.66,12.16-6.36,17.92h-4.42q-5.51-17.67-11-35.38c5.34-.76,5.33-.76,6.68,3.94,2.15,7.53,4.34,15.05,6.52,22.61,1.47-.34,1.35-1.46,1.61-2.26q3.62-10.89,7.14-21.83c.52-1.61.88-3,3.27-2.93,2.23.06,2.52,1.3,3,2.82,2.71,8.26,5.46,16.52,8.48,25.63l8-28.09a16.88,16.88,0,0,1,5.09-.14C1151.81,303.86,1151.09,304.6,1150.86,305.33Z" transform="translate(-51.69)"></path><path class="cls-1" d="M1056,290.32c0-1,.29-2.09-.34-3.13a12.79,12.79,0,0,0-4.81.05v18.55c-1.06.27-1.32-.29-1.72-.58-7.75-5.93-17.9-2.55-20.37,6.81a35.68,35.68,0,0,0-.93,10.6c.26,6.74,1.83,12.77,8.67,15.95h7.57a13.65,13.65,0,0,0,6.62-4.21c.14,1.72.23,3,.33,4.21h4.42c.75-1.11.58-2.37.58-3.61Q1056.06,312.64,1056,290.32Zm-6.15,37.91c-1.14,4-3.76,5.86-7.87,5.88a7.72,7.72,0,0,1-8-5.79,28.67,28.67,0,0,1-.94-7.77,30.29,30.29,0,0,1,.88-7.47c1.28-4.09,3.91-6,8.15-6s6.7,1.87,7.83,5.93A27.87,27.87,0,0,1,1049.89,328.23Z" transform="translate(-51.69)"></path><path class="cls-1" d="M751.69,286.31v19.47c-.7-.57-1-.81-1.31-1.07-7.49-6.33-18.18-3.17-20.83,6.19a30,30,0,0,0-.89,4.63c-1.47,12.74,1.16,18.48,10.53,23h4.42c2.86-1,5.76-1.95,7.9-4.47.6,1.4-.1,2.63.61,3.59h4.66V286.31Zm-.55,40.08c-.88,4.63-3.55,7-7.81,7.17-4.81.19-7.73-1.87-8.85-6.67a28.63,28.63,0,0,1,.22-14.59c.06-.2.11-.39.18-.57s.13-.36.19-.54.14-.34.22-.5.15-.33.23-.48a3.54,3.54,0,0,1,.19-.33,1.83,1.83,0,0,1,.16-.26,6.12,6.12,0,0,1,.79-1,2.65,2.65,0,0,1,.29-.29c.12-.12.25-.23.39-.35l.34-.25.43-.28c.14-.08.28-.16.43-.23a6,6,0,0,1,.63-.27l.48-.17c.19-.05.38-.11.57-.15l.51-.1.53-.08a2.22,2.22,0,0,1,.37,0l.57,0h.62c4.23,0,6.87,1.93,8,6.06a30.71,30.71,0,0,1,1,7.78C751.66,322.25,751.53,324.35,751.14,326.39Z" transform="translate(-51.69)"></path><path class="cls-1" d="M795.42,311.17a9.24,9.24,0,0,0-2.89-6.12c-4.13-4.47-19.78-5.39-23.75,2l3.32,3c4-4,10.71-5.17,15-2.82,3,1.65,4,5.35,2.82,10.08-2.29,0-4.6-.05-6.92,0a54.77,54.77,0,0,0-6.91.38c-5.26.78-8.4,4.16-8.81,9.18s2.32,9.15,7.31,10.79c.64.22,1.55-.1,1.87.84h5.69c2.76-1,5.79-1.39,7.92-3.73.64,1.08,0,2.15.71,2.89h4.71C795.46,328.78,795.52,320,795.42,311.17Zm-5.08,15.17c-.24,4.49-2.54,6.88-7.06,7.24a28.85,28.85,0,0,1-5.34-.06,4.85,4.85,0,0,1-.55-.08c-.24,0-.47-.08-.69-.13l-.23-.06c-.14,0-.28-.08-.41-.12l-.13-.05a4,4,0,0,1-.48-.19,3.55,3.55,0,0,1-.44-.21,4,4,0,0,1-.46-.28,3.78,3.78,0,0,1-.77-.66,3.48,3.48,0,0,1-.26-.3h0a1.7,1.7,0,0,1-.17-.23,3.78,3.78,0,0,1-.37-.64l-.07-.15a4.14,4.14,0,0,1-.19-.49c0-.11-.06-.21-.09-.32a.13.13,0,0,1,0-.06.42.42,0,0,1,0-.16l0-.05a2.5,2.5,0,0,1-.06-.38,4.07,4.07,0,0,1-.07-.61.45.45,0,0,1,0-.12c0-.21,0-.43,0-.65,0-3.44,1.92-5.73,5.56-6,4-.27,8-.06,12.39-.06C790.35,323.24,790.42,324.79,790.34,326.34Z" transform="translate(-51.69)"></path><path class="cls-2" d="M1001.52,307.18A12.74,12.74,0,0,1,1003,307a13,13,0,0,0-1.48.15,8.3,8.3,0,0,0-4.18,1.83A8.31,8.31,0,0,1,1001.52,307.18Z" transform="translate(-51.69)"></path><path class="cls-1" d="M1249.18,321.94a22.5,22.5,0,0,0-1-9.83c-2-6.09-6.57-9.46-12.94-9.6s-11.14,2.92-13.49,8.84c-4.38,11.07-.85,21.54,9.18,27.22h9.47c2.9-1.46,6.08-2.52,8.11-5.49-1.17-1-2.24-1.95-3.28-2.84-5.3,4.19-10.83,5.06-15,2.51-3.27-2-5.07-6.3-4.34-10.81Zm-23.65-4.16c.5-7.32,3.74-10.93,9.47-10.85,5.55.08,8.83,3.93,9.06,10.85Z" transform="translate(-51.69)"></path><path class="cls-1" d="M877.87,313.46c-1.41-7.45-7.12-12.07-14.42-11.88s-12.63,4.87-13.9,12.46a35.35,35.35,0,0,0,.11,12.52,13.66,13.66,0,0,0,9.52,11.1c.63.22,1.55,0,1.85.91h4.42c.21-.19.4-.5.64-.55,6.66-1.32,10.45-4.88,11.74-11.41A34.62,34.62,0,0,0,877.87,313.46Zm-5.31,13c-.06.24-.13.48-.2.7s-.09.27-.14.4a5.77,5.77,0,0,1-.22.58,3.3,3.3,0,0,1-.19.43s0,0,0,0l-.14.27a2.88,2.88,0,0,1-.24.46l-.1.17,0,0a2.84,2.84,0,0,1-.25.39.88.88,0,0,1-.12.17c-.11.16-.23.32-.35.47l-.08.09a4.22,4.22,0,0,1-.45.49,5.79,5.79,0,0,1-.51.48l-.19.15-.19.15-.47.32a6,6,0,0,1-.61.35,8.66,8.66,0,0,1-2.79.86l-.78.09h-.41c-4.53.14-7.91-2.24-9-6.73a28.93,28.93,0,0,1,0-13.72c1.09-4.5,4.45-6.88,9-6.77,4.38.11,7.35,2.61,8.49,7a29,29,0,0,1,.56,6.56A29.61,29.61,0,0,1,872.56,326.49Z" transform="translate(-51.69)"></path><path class="cls-1" d="M636.51,312.34a14.29,14.29,0,0,0-27.71.08,32.27,32.27,0,0,0,0,15A13.42,13.42,0,0,0,618,337.64c.62.21,1.54,0,1.83.93h4.42c.21-.19.41-.51.64-.54,6.43-.84,10.18-4.66,11.65-10.73A31.16,31.16,0,0,0,636.51,312.34Zm-5.16,14.73a8.55,8.55,0,0,1-8.59,6.5c-4.26,0-7.54-2.25-8.63-6.4a28.4,28.4,0,0,1,0-14.33c1.11-4.33,4.41-6.6,8.86-6.5,4.27.1,7.21,2.46,8.44,6.67a29,29,0,0,1,.62,6.74C631.93,322.3,632.06,324.71,631.35,327.07Z" transform="translate(-51.69)"></path><path class="cls-1" d="M1288.2,337.83l-4.89.17c-.68-6.26-.11-12.54-.3-18.81,0-1.47,0-2.94-.13-4.4-.51-5.09-3.73-7.84-8.9-7.7-4.86.14-8.13,3.11-8.28,8.06-.21,6.61-.08,13.21-.1,19.82,0,1.22.17,2.48-.53,3.6h-5c.82-.4.35-1.11.35-1.67,0-11.21,0-22.42,0-33.83h4.83c.81.85,0,2,.68,3.1,2.32-1.8,4.77-3.31,7.81-3.6,8.65-.8,14.33,3.95,14.54,12.59C1288.43,322.71,1288.23,330.27,1288.2,337.83Z" transform="translate(-51.69)"></path><path class="cls-1" d="M1095.25,313A13.32,13.32,0,0,0,1082,302.51c-6.91-.14-12.17,3.5-13.93,9.92a31.75,31.75,0,0,0-.13,15.85,13.07,13.07,0,0,0,7.74,9.3c.44.19,1.35,0,1.24,1h8.84c5-2.37,8.89-5.73,9.77-11.58A35.86,35.86,0,0,0,1095.25,313Zm-5,14.28a8.42,8.42,0,0,1-8.56,6.87,8.64,8.64,0,0,1-8.61-6.46,34.86,34.86,0,0,1,0-14c1.29-4.24,4.52-6.67,8.84-6.55.24,0,.49,0,.72.05s.48.05.71.09l.28,0,.53.12c.24.06.47.13.7.21s.66.26,1,.41.41.22.61.34a4.08,4.08,0,0,1,.44.28c.14.1.28.2.41.31l.09.07c.15.12.29.25.43.38l.29.3.19.21a6.81,6.81,0,0,1,.78,1l.1.15a9.17,9.17,0,0,1,.52,1c.08.18.15.37.22.57,0,0,0,0,0,0,.07.21.14.42.2.64s.08.29.11.44A30.07,30.07,0,0,1,1090.23,327.23Z" transform="translate(-51.69)"></path><path class="cls-1" d="M676.14,302.2v35.44a12.46,12.46,0,0,1-4.59.12c-.8-1-.11-2.11-.78-3.51-2.32,2.64-5.48,3.43-8.6,4.32h-3.79c-1.14-1.18-2.85-1.06-4.19-1.85a11,11,0,0,1-5.84-9.51c-.22-8.27-.07-16.54-.07-25h4.88c.54,2.27.19,4.67.23,7,.06,5.14-.09,10.29.05,15.42.15,5.79,3.35,8.93,8.78,8.9s8.72-3.25,8.82-8.91c.11-7.43,0-14.87,0-22.46Z" transform="translate(-51.69)"></path><path class="cls-1" d="M1017.12,336.21c0,1.28-.79,1.67-1.42,2.36h-3.79c0-7.55.11-15.1,0-22.65a9.22,9.22,0,0,0-2.65-6.81l-.3-.26a8.26,8.26,0,0,0-.76-.56,4.6,4.6,0,0,0-.44-.25,9,9,0,0,0-4.75-1,13,13,0,0,0-1.48.15,8.3,8.3,0,0,0-4.18,1.83l-.26.24-.26.26c-1.5,1.59-2.31,3.94-2.36,7-.11,6.29,0,12.59,0,18.88,0,1.12.21,2.31-.82,3.17h-4.42V303.41c1.59-1,3.18-.37,4.63-.5,1.09.77.25,2.06,1.11,3.22a14.08,14.08,0,0,1,11.21-3.56c6.06.56,10.66,5,10.83,11C1017.18,321.13,1017,328.67,1017.12,336.21Z" transform="translate(-51.69)"></path><path class="cls-1" d="M1306.86,307.06c0,6.87,0,13.44,0,20,0,5.87,1.56,7.22,7.45,6.47v5h-5.68c-5.72-2.3-7.28-6.75-7-12.54.28-6.16.06-12.35.06-18.46-1.36-1-2.81-.12-4.12-.68-.7-1-.1-2.18-.35-3.24,1.31-1,2.78-.12,4.31-.79V292.44c1.75-.76,3.31-.32,5.24-.45v11.29h7.55v3.78Z" transform="translate(-51.69)"></path><path class="cls-3" d="M979.09,338.57h-32.2c.06-.25.13-.49.19-.73l31.68,0Z" transform="translate(-51.69)"></path><path class="cls-3" d="M51.69,163.38c1.45,3.61.12,7.36.56,11,.13,1.1.74,2.49-.56,3.45Z" transform="translate(-51.69)"></path><path class="cls-3" d="M1288.43,338.57h-5a.47.47,0,0,1-.07-.57l4.89-.17C1288.28,338.07,1288.35,338.32,1288.43,338.57Z" transform="translate(-51.69)"></path><path class="cls-4" d="M477.72,284.11v17c-1,.58-2.09.3-3.11.3q-123.55,0-247.13,0c-63.55,0-119.17-44.42-133.12-106C82.18,141.59,106.35,85.27,154.6,55c68.47-43,160.75-19,197.88,51.54a129.6,129.6,0,0,1,14.87,52.92c.06,1,0,2,0,3.2h-17.7c-.63-7.72-1.33-15.44-3.49-22.89-13.62-47-44.84-75.62-92.3-86.19-49.57-11-102.35,12.13-128.19,55.31C91.41,166.14,112.91,239.52,173,270.44A121.21,121.21,0,0,0,229.18,284q123.26,0,246.49.09Z" transform="translate(-51.69)"></path><path class="cls-5" d="M439.74,245.89v18.23h-3.47c-70.39,0-140.78.49-211.16-.18-44.49-.43-85.74-33.37-93.86-79.81C121.43,128,161.9,79.28,214.84,71.92c42.82-6,84,14.62,103.5,51.63a92,92,0,0,1,10.73,39h-18.5c-.73-4.37-1.1-8.86-2.19-13.21-8.18-32.46-36-56.33-69.87-59.88-34.2-3.58-66.5,13.55-81.7,43.33-21.75,42.6.56,94.39,47.1,109.32a77.44,77.44,0,0,0,23.87,3.79q104.16-.1,208.32-.05Z" transform="translate(-51.69)"></path><path class="cls-6" d="M400,209.33v17.79c-.85.75-1.84.46-2.75.46q-84.41,0-168.82,0c-28.28-.05-53.29-20-59.36-47-7.11-31.59,12.49-62.7,44.71-71C248,100.77,282.44,121.48,290,155.4c.51,2.3,1.24,4.64.77,7.24H272.49c-.78-2.91-1.35-5.79-2.33-8.52-6.75-18.87-24.66-29.74-45.85-27.94-18.32,1.56-33.95,16.18-37.31,34.9-4,22.24,13.13,44.95,35.94,47.73a73.29,73.29,0,0,0,9.12.53H400Z" transform="translate(-51.69)"></path><path class="cls-7" d="M368.34,176.72v16.46a4.64,4.64,0,0,1-2.9.39q-67.86,0-135.72,0c-13.29,0-24.2-8.75-26.61-21.12-3.24-16.66,10.85-32.26,27.83-30.81,12.68,1.09,22.69,9.57,24.57,21.16-5.91,0-11.58,0-17.25,0a3,3,0,0,1-2.15-1.07c-3.67-3.3-7.83-3.85-11.53-1.6a8.56,8.56,0,0,0-3.88,9.78c1.25,4.16,4.55,6.35,9.72,6.35q67.08,0,134.15,0C365.8,176.3,367.09,176,368.34,176.72Z" transform="translate(-51.69)"></path><path class="cls-1" d="M672.55,262.62c-10.31,3.73-23.16-2.44-23.95-14.6-.5-7.64-.83-15.32.26-22.93,1.25-8.69,8.75-14.25,18.45-14,9,.25,16,6.41,17,15.16-3.23.6-5.32.42-6.63-3.24-1.85-5.2-7.28-7.7-12.83-6.93s-9.57,4.25-10.35,9.81a80.16,80.16,0,0,0,.06,23.2c.86,5.67,5.5,9.33,11.27,9.52,6.11.2,11.23-3.29,12.72-8.72A23.16,23.16,0,0,0,679,241H666.71a12.07,12.07,0,0,1-.06-4.75h17.56C686.21,250.11,683.6,258.62,672.55,262.62Z" transform="translate(-51.69)"></path><path class="cls-1" d="M850.36,225.73c-1-8.81-8.33-14.72-17.9-14.63s-16.67,6.23-17.51,15.07c-.35,3.65-.4,7.32-.59,11.17.19,3.7.23,7.59.63,11.44.9,8.6,8.27,14.77,17.46,14.82,9.54,0,16.91-5.89,17.9-14.65A104.21,104.21,0,0,0,850.36,225.73Zm-5.67,23.16c-.05.22-.1.46-.16.68a1.74,1.74,0,0,1,0,.22c0,.12-.07.23-.1.35s-.06.22-.1.33-.1.32-.16.47a6.25,6.25,0,0,1-.24.6c-.06.14-.12.28-.19.41a5,5,0,0,1-.36.69c-.12.23-.25.45-.39.67l-.22.32-.22.31-.48.6c-.16.17-.31.34-.48.51s-.41.41-.63.6a4.38,4.38,0,0,1-.34.29,10.18,10.18,0,0,1-1.39,1l-.63.35-.66.31a8.4,8.4,0,0,1-.92.37c-.33.11-.66.21-1,.3a14.15,14.15,0,0,1-2.72.38l-.67,0-.57,0-.59,0-.53-.06a5,5,0,0,1-.54-.08,14.32,14.32,0,0,1-1.6-.38,11.19,11.19,0,0,1-2-.8l-.6-.32-.13-.08-.36-.23-.1-.06c-.16-.11-.33-.22-.48-.34a.71.71,0,0,1-.09-.07c-.17-.13-.34-.26-.5-.4s-.3-.25-.44-.39l-.22-.22a9.07,9.07,0,0,1-.83-.92,11.44,11.44,0,0,1-1-1.53l-.24-.46-.15-.33c-.08-.16-.15-.33-.22-.51s-.16-.41-.23-.62a12.11,12.11,0,0,1-.48-2.12,87.08,87.08,0,0,1,0-22.58c.76-5.89,5.75-10,11.83-10.14A12,12,0,0,1,844.72,226c.7,3.86.45,7.73.56,11.61C845.2,241.37,845.39,245.14,844.69,248.89Z" transform="translate(-51.69)"></path><path class="cls-1" d="M483,213.33c-.6-1.65-1.51-1.87-3-1.94a2.75,2.75,0,0,0-3.22,2.13c-3.88,10.75-7.85,21.46-11.79,32.18L458.59,263h5.9c1.16-3.27,2.32-6.32,3.3-9.41a2.5,2.5,0,0,1,2.91-2c4.21.12,8.41,0,12.62,0,7.84,0,7.84,0,10.46,7.37,1.71,4.81,1.83,4.88,7.27,3.75C495,246.2,488.94,229.78,483,213.33Zm-12.69,33.21c3.2-8.95,6.33-17.7,9.69-27.12l9.52,27.12Z" transform="translate(-51.69)"></path><path class="cls-1" d="M978.46,333.29a8.63,8.63,0,0,1,.3,4.52l-31.68,0V287.26h31.46c.69,1.32.25,2.77.3,4.58H952.68V310h21.94a9.5,9.5,0,0,1,.08,4.88h-22v18.41Z" transform="translate(-51.69)"></path><path class="cls-1" d="M921.07,236.57c-2-8-9.79-11.86-17.47-8.68a38,38,0,0,0-5,3.07V211.59h-4.87V263.1a12.11,12.11,0,0,0,5.09-.21v-3.4c.7.49,1,.64,1.18.83,8,6.77,18.68,3.5,21.13-6.61A35.38,35.38,0,0,0,921.07,236.57Zm-5.15,16.48c-1.22,3.89-3.85,5.89-7.89,6s-7.13-1.89-8.24-5.89a29,29,0,0,1,0-15.51c1.09-4,4-6,8.19-6s6.81,2.1,8,6.18a28.35,28.35,0,0,1,.79,7.78A26,26,0,0,1,915.92,253.05Z" transform="translate(-51.69)"></path><path class="cls-1" d="M577.1,291.05v19h22.46V315H577v22.72H571.6V286.28h31.75a12.47,12.47,0,0,1,0,4.77Z" transform="translate(-51.69)"></path><path class="cls-1" d="M752.13,238.19c-.17-3.39-1.19-6.39-4-8.52-4.71-3.54-15.29-3.67-20.08-.21a6.29,6.29,0,0,0-2.71,3l3.21,2.93c4.25-4,10-5.13,14.61-2.93,4.39,2.1,3.69,6.09,3.66,10.28-2.46,0-4.65,0-6.84,0-3,0-6.1-.22-9.07.69a9.49,9.49,0,0,0-7.13,9.28c-.14,4.72,2.07,8.66,6.23,9.91,5.47,1.63,11,2,15.9-1.88a2.75,2.75,0,0,1,.81-.26c.12.91.23,1.7.37,2.71,1.74-.24,3.4.44,5.1-.5v-22C752.17,239.86,752.17,239,752.13,238.19ZM733.88,258.8c-3.56-.5-5-2.46-5-5.79s1.51-5.24,4.89-5.93c4.25-.88,8.53-.19,12.85-.44.1.74.17,1.14.2,1.55C747.61,257.32,743.75,260.17,733.88,258.8Z" transform="translate(-51.69)"></path><path class="cls-1" d="M577.39,237.12a9.31,9.31,0,0,0-3.29-6.92c-5-4.42-16.84-4.38-21.78.12-.66.59-1.52,1.1-1.55,2.29l3.16,2.76c4.35-4.06,11.05-5.11,15.25-2.55,2.77,1.69,3.71,5.2,2.57,10-.57,0-1.19,0-1.81,0-4.29.2-8.63-.51-12.88.53-5.32,1.3-8.08,4.86-7.95,10.18s3.17,9,8.44,9.83c5,.76,10.09.89,14.24-3,.83.89.05,2.08.88,2.71h4.78C577.45,254.3,577.54,245.71,577.39,237.12Zm-5.56,17c-.53,2.38-2.26,3.72-4.49,4.43a14.75,14.75,0,0,1-5.14.65h-.29l-.69-.05-.84-.1-.84-.13a8.86,8.86,0,0,1-2.39-.71l-.48-.26c-.13-.07-.26-.16-.38-.24a3.94,3.94,0,0,1-.45-.36,2.81,2.81,0,0,1-.35-.34h0a2.06,2.06,0,0,1-.29-.37h0c-.09-.13-.17-.26-.25-.4s-.13-.24-.19-.36a1.7,1.7,0,0,1-.09-.24c0-.11-.09-.23-.14-.36s-.08-.31-.11-.46h0c0-.16-.07-.34-.1-.52a.31.31,0,0,1,0-.1c0-.11,0-.23,0-.35a2.09,2.09,0,0,1,0-.25,4.61,4.61,0,0,1,0-.53c0-3.37,1.63-5.33,5.23-6s7.34-.23,11.23-.34l1.33-.06A18.93,18.93,0,0,1,571.83,254.11Z" transform="translate(-51.69)"></path><path class="cls-1" d="M789.93,227.88q-4.5,12.26-9,24.43c-2.28,6.2-4.54,12.4-6.83,18.58s-5.06,7.94-11.92,7.59a11,11,0,0,1-.11-4.34c1.88-.7,4.36.24,5.79-1.73,2.07-2.85,2.7-6.33,3.94-9.55.39-1-.42-2-.77-3Q765.23,244,759.34,228c4.5-1.45,5.37-1,6.8,3.14,2.74,8,5.46,16,8.49,24.91,1.63-4.79,3-8.74,4.34-12.69l4-11.91C784.56,226.93,784.56,226.93,789.93,227.88Z" transform="translate(-51.69)"></path><path class="cls-1" d="M618.44,263.06h-5.3c0-5.05,0-10,0-15,0-2.52.07-5,0-7.55-.25-5.65-3.28-8.75-8.54-8.84s-8.69,2.9-9,8.46c-.3,6.49-.09,13-.15,19.51,0,1.12.29,2.29-.29,3.44a12.51,12.51,0,0,1-4.76,0V227.77c1.44-.63,3-.19,4.52-.29,1.06.76.09,2.12,1.13,3.05a14.39,14.39,0,0,1,13.43-3c5,1.32,8.06,4.62,8.58,9.7C618.92,245.74,618.18,254.32,618.44,263.06Z" transform="translate(-51.69)"></path><path class="cls-1" d="M917.72,337.72h-5.16c0-5.61,0-11.24,0-16.87a58,58,0,0,0-.26-7.23c-.65-5-3.8-7.42-9-7.28-4.8.13-8.06,2.89-8.27,7.72-.29,6.71-.13,13.43-.19,20.15,0,1.13.26,2.31-.31,3.48a14.79,14.79,0,0,1-4.8.05V302.25a13.89,13.89,0,0,1,4.67-.08c.81.86.17,1.92.68,2.88.21,0,.54,0,.71-.12a14,14,0,0,1,12.41-3,11.25,11.25,0,0,1,9.4,10.79C918,321,917.72,329.29,917.72,337.72Z" transform="translate(-51.69)"></path><path class="cls-1" d="M717.61,337.58c-1.69.6-3.31.14-5.18.35,0-6.69,0-13.08,0-19.47a36.87,36.87,0,0,0-.23-4.71c-.68-5-3.74-7.5-8.87-7.41-5,.08-8.22,2.89-8.41,7.91-.27,7.13-.13,14.28-.17,21.42,0,.61-.06,1.23-.1,2h-4.75c-.6-2.17-.82-30-.21-35.59h4.53c1,.82.14,2.08,1,3.23a13.59,13.59,0,0,1,10.23-3.63c7,.3,11.82,4.5,12.11,11.53C717.87,321.29,717.61,329.38,717.61,337.58Z" transform="translate(-51.69)"></path><path class="cls-1" d="M970.6,262.35c-7.41,2.93-17.38,1.16-22.15-4.1l3.33-3a16.74,16.74,0,0,0,15,3.48c3.89-.82,5.75-2.89,5.67-6s-1.74-4.49-6-5c-2.93-.36-5.88-.5-8.76-1.05-4.64-.89-7.2-3.59-7.64-7.62-.52-4.76,1.46-8.7,5.82-10.46,6.9-2.78,13.53-1.79,20.21,2.19l-3.31,3.48a18.47,18.47,0,0,0-10.12-2.72,12.39,12.39,0,0,0-4,.75,5.22,5.22,0,0,0-3.53,5.69c.2,2.63,1.86,4,4.25,4.32,3.12.48,6.27.66,9.39,1.12,5.44.82,8.17,3.26,8.67,7.6C978,256.49,975.74,260.32,970.6,262.35Z" transform="translate(-51.69)"></path><path class="cls-1" d="M821.84,333.58a9.93,9.93,0,0,1,0,4c-8.48,1.28-12.62-2.22-12.63-10.67,0-6.79,0-13.58,0-20.55h-4c-.79-1.3-.31-2.54-.42-3.68,1.39-.86,2.85-.11,4.36-.7V291.44c1.85-.58,3.47-.24,5.27-.31v10.65c2.44,1,4.89.08,7.25.61.62,1.21.37,2.42.15,3.94h-7.32c0,7.61-.13,14.94,0,22.25C814.65,332.18,816,332.94,821.84,333.58Z" transform="translate(-51.69)"></path><path class="cls-1" d="M521.33,258.87V263c-3.08,0-6.11.7-8.9-1.05a7.08,7.08,0,0,1-3.66-5.93c-.11-14.77-.06-29.53-.06-44.34a13.4,13.4,0,0,1,5.08.07v38.93C513.79,258.14,513.8,258.15,521.33,258.87Z" transform="translate(-51.69)"></path><path class="cls-1" d="M720.32,230.17l-4.16,3.51a8.15,8.15,0,0,0-9.71-1c-3.68,2-4.57,5.46-4.55,9.35,0,6.91,0,13.82,0,20.78-1.71.71-3.34.25-5.09.39V227.79c1.55-.59,3.1-.26,4.63-.22.94,1,.09,2.26.74,3.48a13.86,13.86,0,0,1,8.87-4C714.54,226.85,717.7,227.55,720.32,230.17Z" transform="translate(-51.69)"></path><path class="cls-1" d="M542.83,262.9c-8.57,1.43-12.65-1.95-12.66-10.47,0-13.52,0-27,0-40.88h4.74c.85,1,.44,2.22.44,3.32,0,11.74,0,23.49,0,35.23,0,7.77,0,7.77,7.4,8.84A8.29,8.29,0,0,1,542.83,262.9Z" transform="translate(-51.69)"></path><path class="cls-1" d="M886.94,230.29,883,234.16c-3.19-2.72-6.65-3.4-10.26-1.48-3.85,2-4.64,5.69-4.64,9.65v20.55a10.88,10.88,0,0,1-5.1.16V227.62h4.73c.76.92.06,2.06.61,3.24C874.26,226.35,880.36,225.16,886.94,230.29Z" transform="translate(-51.69)"></path><path class="cls-1" d="M938.44,227.72V263a17.56,17.56,0,0,1-5.12.2V227.74A11.21,11.21,0,0,1,938.44,227.72Z" transform="translate(-51.69)"></path><path class="cls-1" d="M837.56,302.11v35.5c-1.47.54-3,.2-4.76.2v-35.7Z" transform="translate(-51.69)"></path><path class="cls-1" d="M938.87,217.2H933.2v-5.66h5.36C939.22,213.29,938.67,215.13,938.87,217.2Z" transform="translate(-51.69)"></path><path class="cls-1" d="M838,286.28v5.48h-5.49a15.52,15.52,0,0,1,0-5.48Z" transform="translate(-51.69)"></path><path class="cls-2" d="M1084.82,307.61a7,7,0,0,1,1,.41C1085.48,307.87,1085.16,307.73,1084.82,307.61Z" transform="translate(-51.69)"></path><path class="cls-2" d="M572,246.61h0l-1.33.06C571.12,246.66,571.57,246.64,572,246.61Z" transform="translate(-51.69)"></path></svg>