<svg xmlns="http://www.w3.org/2000/svg" id="Layer_1" data-name="Layer 1" viewBox="0 0 1366 602.64"><defs><style>.cls-1{fill:#3ca77e;}.cls-2{fill:#8ec5ae;}</style></defs><path class="cls-1" d="M1099.18,50.33c-27.79-6.37-55.83-7.69-84.24-.92S968.73,78.3,947.85,97.69c-22-66.85-54.68-92.4-122-97.69-22.23,61-.93,119.48,59.75,151,26.27,13.68,33.48,30.71,23.56,55.06-39.4,96.61-80,192.73-123.12,296C739.68,391.91,695.3,289.87,660.67,186.51c12.06-16.72,34-6.86,44-28.1H445.88C398.61,275.56,340.58,386,280,505.63,225.09,382,157,277,120.54,155c-33.92,4.12-69.08-5.28-118,7.49C52.3,174.89,80.86,190.7,72.81,237,61.1,304.45,70.32,373.53,61.54,440.83c-6.35,48.54,7.19,107.06-48.31,139.75.73,2.93,1.44,5.89,2.14,8.84q55.4,0,110.75.09l17-7.87c-19.5-16-60.39-3.2-58.14-49.54,2.82-58.58-2.54-117.52-.55-176.15,1.1-32.35,10-64.45,16.85-105.21,53.2,114.9,102.34,221,151.9,328,6.82-1.87,15.4-1.69,17.18-5.09,54.2-102.72,107.71-205.77,162.14-310.3,14.08,13.13,9.16,26.6,9.31,38.45.84,61.69,1,123.38,1.13,185.06.09,39.52,9.53,82.91-40.61,101.48H552c-32.56-14.45-53.89-29.95-54.42-63.55-1.59-98.94-3.53-197.91-6.75-296.84-1.37-41.9,20.6-55.54,58-56.22,34.12-.62,51.83,18.62,63.48,47.8,29.75,74.46,60.23,148.62,90.21,223,21,52.19,41.66,104.51,63.85,160.16,16.72-13.37,18.64-28,23.67-40.79,45.53-116,94.87-230.31,150.25-342,14.32-28.87,32.93-46.12,67.39-51.68C1063.14,159.18,1100.92,107.24,1099.18,50.33Zm-180,86.51C861.3,124.42,837.45,89.55,843.36,26,908.59,39.92,934.72,78.13,919.2,136.84Zm48.26,13.06c-8.63-56.64,37.36-90.48,108.12-79.58C1058.2,129,1029.59,150.07,967.46,149.9Z"></path><path class="cls-1" d="M1325,447.93c-4.9,22.48,2.56,99.39,15.06,123.39-83.08,25.49-165,40.84-251.11,12.28-113.24-37.54-172.88-134-152.86-254.27,17.32-103.93,120.1-184.53,230.08-177.87,32.4,2,64.07-6.92,97.47,3.18,58.4,17.65,71.24,36.15,54.94,101.33-22.3-22.37-26.16-57.83-59-70.54-120.76-46.71-246.59-6.81-260.8,148.77-8.67,94.78,18.55,179,111.5,228.34,36.66,19.45,74.84,23.24,114.25,16.8,57.86-9.44,43.61-55.51,47.27-93.94,3.64-38.07-14.49-51.65-48.33-54-7.06-.48-14-2.78-21-4.21,1-11.16,13-9,18.14-15l127.79-.25L1366,418.7C1358.94,437.47,1330.11,424.66,1325,447.93Z"></path><path class="cls-2" d="M1220.65,412.18c-5.19,6.06-17.19,3.88-18.14,15-6.08-2.58-8.86-7.63-4.6-12.62C1204.08,407.35,1212.62,409.22,1220.65,412.18Z"></path><path class="cls-2" d="M1366,418.7l-17.56-6.77C1356.21,409.22,1363.4,408,1366,418.7Z"></path><path class="cls-2" d="M15.37,589.42C9.88,591.3,4.54,592,0,587.15c2-6.77,7.7-6.55,13.23-6.57C14,583.51,14.67,586.47,15.37,589.42Z"></path><path class="cls-2" d="M143.15,581.64c-1.7,11.22-9.2,9.88-17,7.87Z"></path></svg>