<svg xmlns="http://www.w3.org/2000/svg" id="Layer_1" data-name="Layer 1" viewBox="0 0 1366 280.31"><defs><style>.cls-1{fill:#f0c642;}</style></defs><path class="cls-1" d="M175,143.59c-5.15-4-10.82-7-16.49-10.43,1.93-1.16,3.48-2.19,5.15-3.22,35.8-23.17,33.74-74-3.73-94.38-13.39-7.22-27.69-10-42.75-10-34.38,0-68.64.13-103-.13-5.66,0-10.43,1-14.29,5.41V247.25c3,3.22,6.31,5.28,11.07,5.28,39-.12,78.17,0,117.18-.25A84,84,0,0,0,164.2,244C206.05,224,211.59,171.92,175,143.59ZM55.9,79.08c0-4.12,1.55-5.79,5.67-5.54,7.47.26,15.07.13,22.53.13h20.61a30.47,30.47,0,0,1,17,4.89c12,7.6,12.5,22.67,1.16,31.17a30.41,30.41,0,0,1-18.67,5.92c-13.52.13-27-.13-40.56.13-5.54.13-7.86-2.32-7.86-7.6C56,98.27,56,88.74,55.9,79.08Zm61.94,125c-18.8,1.16-37.73.38-56.53.51-3.22,0-4.76-1.93-4.89-4.89-.13-11.85-.13-23.57,0-35.41,0-3.74,2.19-5.15,5.92-5.15,9.27.12,18.42,0,27.69,0h0c8.75,0,17.51-.26,26.4,0,12.23.38,21.89,7.46,24.2,17.38C143.6,190.34,133.94,203.09,117.84,204.12Z"></path><path class="cls-1" d="M945.19,241.85c-1.54-4.51-3.22-8.89-5-13.27q-18-45-35.93-90.14-21-53.5-42-107.13c-1.67-4.38-4.76-6.18-9.4-6.06-8.11.26-16.35,0-24.46,0-8.37,0-16.74.13-25.11,0-5-.12-8,1.94-9.66,6.7-2.7,7.47-5.54,14.81-8.37,22.15q-31.68,80-63.48,160.06c-3.61,9-7.34,17.9-10.43,26.91-2.71,7.73-.26,11.08,7.72,11.21,14.81.13,29.62-.13,44.43.13,4.76,0,7.6-1.94,9.27-6.31,2.57-6.83,5.54-13.53,8.11-20.22,1.55-4.12,4.12-6.18,8.63-6.18q38.63.2,77.26,0c4.51,0,7.08,2.06,8.63,6.18,2.57,6.82,5.67,13.39,8,20.34,1.55,4.25,4,6.31,8.5,6.31,15.45,0,30.91.13,46.36-.12C944.81,252.28,947.25,248.16,945.19,241.85ZM801.1,174.5c8.88-22.54,17.51-44.43,26.78-68.12,10.3,23.18,18.16,45.46,27.17,68.12Z"></path><path class="cls-1" d="M694,171c-.13-4.5-.77-9-1.29-13.39C690,136,682.5,116.42,667.31,100.46c-20-20.74-45.2-24.86-72.37-21.77-25.5,3-45.72,15.07-60.14,36.32-13.91,20.34-17.77,43-14.16,67,2.83,18.41,10.56,34.89,24.08,48,23.82,23.44,52.92,29.62,84.86,24.47A101.41,101.41,0,0,0,670.14,239c8.88-6,9.53-10.3,2.32-18-5.54-5.93-11.85-11.34-17.26-17.39-4.63-5.15-9-5.54-14.55-1.8a55.54,55.54,0,0,1-32.32,8.88c-17-.25-31.81-12.36-33.74-27.17,2.58-1.54,4.89-1,7.21-1H682.89C691.9,182.61,694.35,180,694,171ZM575.62,147.59c1.29-13.14,16.74-24.47,33.22-25s30.14,10.05,32.2,25Z"></path><path class="cls-1" d="M491.15,167v76.62c0,7.47-1.16,8.63-8.5,8.63H444c-4.51,0-7.73-.78-8.76-6.18-.9-4.9-5.15-5.93-9.4-3-20.34,14.43-42.24,17-65.16,8.12-20.21-7.86-31.42-23.57-35.92-44.43a90.15,90.15,0,0,1-1.68-18.54V91.06c0-8.89,1-9.92,10-9.92h34.12c7.6,0,9,1.42,9,9v85a44.12,44.12,0,0,0,1,10.82c3.61,15.58,14.94,24.59,29.88,23.44,15.58-1.16,27.17-12,27.94-27.56.78-18,.39-36.06.39-54.08v-38c0-7,1.8-8.63,8.88-8.76h38c7.47,0,8.89,1.42,8.89,9.14C491.15,116,491.15,141.53,491.15,167Z"></path><path class="cls-1" d="M1336.78,136V108.31c-.12-17.13-11.58-28.59-28.58-28.71-17.64,0-35.16.38-52.8-.13-23.18-.65-43.52,6.31-61.42,20.73-21.25,17.25-32.71,39.79-31.94,67.22,1.55,52.54,57.18,94.39,108.17,81.51,31.29-7.86,50.48-29.1,61.3-58.85C1337.94,172.57,1336.66,154.28,1336.78,136Zm-84.47,70.18c-21.25-.13-40.3-19.83-39.92-41.47s19.06-40.43,40.31-40.43c21.89,0,40.3,18.93,40,41.08S1274.07,206.31,1252.31,206.18Z"></path><path class="cls-1" d="M1148.52,93.5Q1123.8,151.07,1099,208.62c-5.28,12.24-10.56,24.47-15.46,36.7-1.93,4.77-4.89,7.09-10.17,7-12.62-.26-25.37-.13-38,0-4.5,0-7.72-1.42-9.66-5.93L960,93.37c-3.47-8.11-.64-12.23,8.37-12.23,11.85,0,23.57.26,35.41-.13,6.31-.13,9.79,2.19,12,8.11,11.59,30,23.44,59.88,35.28,89.76.9,2.19,1.81,4.25,2.71,6.44h1.54c3.22-8.25,6.57-16.49,9.79-24.86,9.14-23.56,18.41-47.13,27.3-70.82,2.44-6.44,5.92-9,12.88-8.76,11.58.52,23.17.13,34.76.13C1148.91,81.4,1151.87,85.52,1148.52,93.5Z"></path><path class="cls-1" d="M285.89,137.28v103c0,9.79-2.32,12.11-12.11,12.11-11.2,0-22.27.12-33.48,0-8,0-10.69-2.45-10.69-10.18V32.47c0-8.38,2.58-10.82,10.69-10.82h34.77c8,0,10.82,2.83,10.82,10.94Z"></path><path class="cls-1" d="M1344.77,88c-28.07-24.21-27.94-55.38-.13-76.37C1373,32.21,1373.23,64.53,1344.77,88Z"></path></svg>