<svg xmlns="http://www.w3.org/2000/svg" id="Layer_1" data-name="Layer 1" viewBox="0 0 1366 448.94"><defs><style>.cls-1{fill:#fcfcfb;}.cls-2{fill:#d32a31;}.cls-3{fill:#7aba52;}.cls-4{fill:#f4d1d2;}.cls-5{fill:#0d0d0d;}</style></defs><path class="cls-1" d="M68.43,81.09l-.64,0h0l.69.58C68.47,81.5,68.44,81.3,68.43,81.09Z"></path><path class="cls-2" d="M1366,383.27c.06-4.92-1.5-6.29-6.42-6.29q-664.14.15-1328.28,0c-5.14,0-6.26,1.74-6.21,6.5.23,19.88.09,39.77.12,59.66,0,1.82-.4,3.72.71,5.81h1339.7c.11-2,.28-3.49.28-5C1365.92,423.73,1365.77,403.5,1366,383.27ZM127,422.52c-.83,4.93-4.41,6.82-9,7.19-6.85.54-11.62-1.76-13.36-6.68-.62-1.72-2.11-3.77.89-5,2.69-1.14,3.2,1.11,4,2.55,1.36,2.31,2.15,4.92,5.58,5.07s6-1.14,6.93-4.58a4.91,4.91,0,0,0,.13-2.37,1.46,1.46,0,0,0,0-.2,2.55,2.55,0,0,0-.11-.33,1.77,1.77,0,0,0-.16-.34c-.06-.12-.13-.23-.21-.36a4.51,4.51,0,0,0-.54-.63c-.14-.13-.29-.25-.44-.37l-.25-.19-.28-.17-.2-.13-.45-.24a18.49,18.49,0,0,0-1.94-.82c-1.9-.69-4-.8-5.93-1.39a12.77,12.77,0,0,1-3-1.33l-.16-.1a8.45,8.45,0,0,1-1.59-1.29,4.8,4.8,0,0,1-.47-.53,6.87,6.87,0,0,1-.77-1.16,4,4,0,0,1-.3-.63q-.12-.29-.21-.57a2.32,2.32,0,0,1-.13-.4,3.59,3.59,0,0,1-.12-.47c0-.14-.06-.31-.08-.46a2.83,2.83,0,0,1-.06-.42,5.7,5.7,0,0,1-.06-.58c0-.25,0-.51,0-.77a13.61,13.61,0,0,1,.09-1.53c.56-5,3.83-7.36,8.43-8.07,8-1.26,15.25,2,13.45,11.86-3.65,1.27-4.17-1.08-4.89-3.52-1.22-4.15-4.61-4.73-8.13-4.05-3.11.6-3.5,3.29-3.17,6a4,4,0,0,0,4,3.92c2.61.21,4.75,1.73,7.12,2.41C127.37,413.51,127.81,417.71,127,422.52ZM150.16,400c-1,.08-2,.25-3.63.45,0,7.13,0,14.21,0,21.28,0,.58,0,1.16,0,1.75,0,1-.05,1.89,0,2.84,0,1.78-.51,3.07-2.53,3a3.36,3.36,0,0,1-.89-.16l-.28-.09a2.17,2.17,0,0,1-.45-.24,1.49,1.49,0,0,1-.18-.17,1.7,1.7,0,0,1-.22-.24,1.52,1.52,0,0,1-.22-.34,1,1,0,0,1-.1-.24c0-.11-.07-.22-.11-.33a2.34,2.34,0,0,1,0-.3,3,3,0,0,1-.05-.43,1.62,1.62,0,0,1,0-.22,2.26,2.26,0,0,1,0-.26c.07-7.13,0-14.26,0-21.39v-4.06l-1-.6c-2-1.22-6.66,1.73-6.22-2.72.37-3.62,4.49-1.65,6.93-1.91a71.28,71.28,0,0,1,8.65-.08c1.77,0,4.15-.45,4.21,2.31C154,400.37,151.8,399.92,150.16,400Zm28.6,19.35c2.05,2.71,2.34,5.89,3.8,9.35-6.72,1.89-6-4-7.85-6.58-.59-.83-.49-2.49-.91-3.76-.84-2.5-3.05-2.52-4.87-2.53-2.05,0-1.88,2.08-2,3.54-.13,2.37-.06,4.75-.08,7.13,0,1.48-.28,2.74-2.13,2.84-1.61.08-2.78-.66-2.78-2.27,0-9.68,0-19.36.1-29,0-1.95,1.46-2.89,3.52-2.82,2.37.07,4.75,0,7.13,0,4.41.06,8.28,1.66,9.72,5.9,1.49,4.42,1.46,9.4-2.41,12.69C177.78,415.78,177.47,417.68,178.76,419.39Zm32.69-21.26c-.15,1.47-1.17,1.9-2.48,1.91l-11.63,0-.08.07c0,3.11,0,6.22-.07,9.32a6,6,0,0,0,4.37,1.27c2.21-1.74,4.35-2.25,6.34.32l.15.08c1.77,2.62.15,3.16-2,3.22-2.67.06-5.35,0-8.22,0a23.21,23.21,0,0,0-.55,2.9c-.37,8.19-.36,8.14,7.78,8.23,2.11,0,4.4-.66,6.33.86.44,2.92-1.56,3-3.47,3.09-3,.08-6.11.05-9.16,0-7.45,0-7.6-.23-6.47-7.88l0-11.2a1.65,1.65,0,0,1-.2-.46c0-.34,0-.69-.08-1-.06-.71-.17-1.43-.27-2.18-.16-1.14-.34-2.3-.45-3.43,0-.32-.06-.64-.08-.95,0-.54,0-1.06,0-1.58a3.25,3.25,0,0,1,0-.33,5.71,5.71,0,0,1,.09-.82,2.2,2.2,0,0,1,.06-.37,1.79,1.79,0,0,1,.09-.35,2.46,2.46,0,0,1,.09-.34l0-.09a4.44,4.44,0,0,1,.55-1.14c.08-.12.16-.23.25-.34s.24-.26.37-.38a1.36,1.36,0,0,1,.25-.22c4.13-3.25,10.67-.87,16.17-1C210.67,395.38,211.6,396.46,211.45,398.13Zm31.65,7.79c0,2.2,0,4.39,0,6.59s0,4.39,0,6.59c0,1.1,0,2.2,0,3.3s0,2.2,0,3.29v.52c0,.19,0,.36,0,.54a1,1,0,0,1,0,.25c0,.06,0,.13,0,.19a1.35,1.35,0,0,1,0,.29,1.55,1.55,0,0,1,0,.23.77.77,0,0,1-.06.23,1.53,1.53,0,0,1-.18.39.69.69,0,0,1-.15.21.8.8,0,0,1-.15.17,1.13,1.13,0,0,1-.27.22l-.1.06a1.75,1.75,0,0,1-.34.15l-.2.07-.33.09a5.84,5.84,0,0,1-1.6.1,2.28,2.28,0,0,1-.39-.06,3.31,3.31,0,0,1-.8-.28,1.92,1.92,0,0,1-.31-.18,3,3,0,0,1-.33-.27,3.11,3.11,0,0,1-.58-.73c-.67-1.16-1.37-2.29-2-3.43s-1.36-2.29-2-3.46a41.8,41.8,0,0,1-3.29-7.27c-2.27-1.17-2.21-4.11-5-6.08,0,6,.06,11.4,0,16.83,0,1.84.94,4.55-2.17,4.79a3.48,3.48,0,0,1-.86,0l-.26,0a3,3,0,0,1-.43-.12,2.2,2.2,0,0,1-.46-.23,1.07,1.07,0,0,1-.16-.14,2,2,0,0,1-.38-.43,1.66,1.66,0,0,1-.17-.32,3.62,3.62,0,0,1-.13-.35,4.43,4.43,0,0,1-.17-.74,18.65,18.65,0,0,1-.09-2.33c-.17-8.29-.13-16.58-.05-24.87,0-1.63,0-3.66,2.09-4.2,1.36-.35,3.17-.73,3.52,1.59a5.45,5.45,0,0,1,1.51,1.16l.18.21a2.43,2.43,0,0,1,.24.32,4.5,4.5,0,0,1,.39.67,3.65,3.65,0,0,1,.14.35,2.76,2.76,0,0,1,.15.46c.06.23.11.47.16.72s0,.28.05.42,0,.22,0,.34,0,.36,0,.56c1.46,2.63,2.9,5.26,4.35,7.89,3.16,1.2,2.53,5.9,6.69,7.07,0-6.18-.06-12,0-17.83,0-1.51-.66-3.87,1.92-3.89,2.35,0,2.25,2.14,2.26,3.81Q243.11,402.62,243.1,405.92Zm27.57,22.78c-9.24,4.12-17.63-.29-19.36-10.23a35.57,35.57,0,0,1,.73-15.61c1.58-5.94,6-8.43,13-7.83,5.54.48,8.72,3.45,9.53,8.82,0,.13,0,.26,0,.39s.05.42.06.63a5.9,5.9,0,0,1,0,1c0,.16,0,.32-.08.49h0c0,.14-.07.27-.11.41a.14.14,0,0,1,0,.06c0,.1-.09.2-.14.3a1.22,1.22,0,0,1-.2.32,2.85,2.85,0,0,1-.23.26,1.12,1.12,0,0,1-.28.25,3.42,3.42,0,0,1-.47.26,3.3,3.3,0,0,1-.56.2c-2.77.72-2.68-1.71-3.09-3.49-.78-3.45-2.6-5.9-6.52-5.67s-5.66,2.79-6.41,6.39c-1.05,5-1.52,9.85.45,14.85,1.79,4.56,5,5.89,9.21,4.87,4.66-1.11,3.69-4.82,3.32-7.94-1.13-1.25-2.47-.8-3.52-1.23a2.61,2.61,0,0,1-.85-.52.49.49,0,0,1-.13-.12,1.8,1.8,0,0,1-.36-.5,1.54,1.54,0,0,1-.08-.19l-.06-.17a2,2,0,0,1-.08-.53,1.53,1.53,0,0,1,0-.36,1.6,1.6,0,0,1,0-.21,2.11,2.11,0,0,1,.48-.88,1,1,0,0,1,.21-.21c2.09-1.74,4.9-.93,7.36-.68a2.74,2.74,0,0,1,.61.13,2,2,0,0,1,.88.51,1.29,1.29,0,0,1,.16.17,2.08,2.08,0,0,1,.33.58,1,1,0,0,1,.07.21.14.14,0,0,1,0,.06,1.59,1.59,0,0,1,.1.39.88.88,0,0,1,0,.21,1.79,1.79,0,0,1,0,.23,7.23,7.23,0,0,1-.05,1.47C274.2,420.35,277,425.85,270.67,428.7Zm32.63-30.91a1,1,0,0,1,0,.17l0,.23a1.55,1.55,0,0,1-.05.23,1.11,1.11,0,0,1-.07.22.72.72,0,0,1-.09.2,1,1,0,0,1-.1.17,1.31,1.31,0,0,1-.12.15,2,2,0,0,1-.3.28.87.87,0,0,1-.25.15,2.5,2.5,0,0,1-.83.31l-.4.08-.45,0-.23,0h-.23c-1.49,0-3.06-.31-5,1.08,0,6.71,0,13.78,0,20.87,0,1.36-.06,2.73,0,4.08.1,2.13-1,3.2-3,3.23h-.07a3.69,3.69,0,0,1-.6-.06,1.87,1.87,0,0,1-.52-.18,1,1,0,0,1-.34-.24,1.5,1.5,0,0,1-.36-.55,3,3,0,0,1-.12-.43,9.35,9.35,0,0,1-.08-1.84c0-6.79,0-13.57-.05-20.37,0-1.66.37-3.38-.49-5-1.57-1-3.31-.51-5-.64-1.41-.11-2.92-.19-3-2s1.35-2.66,3-2.67q7.89-.07,15.79,0l.47,0,.16,0a2.08,2.08,0,0,1,.36.06,1.39,1.39,0,0,1,.19.06h.05a.6.6,0,0,1,.25.1s.06,0,.1,0a1.35,1.35,0,0,1,.29.16.05.05,0,0,1,.05,0l.09.05.09.07a2.18,2.18,0,0,1,.22.21.74.74,0,0,1,.12.13l.1.15a1.31,1.31,0,0,1,.09.17.46.46,0,0,1,.07.16,2.22,2.22,0,0,1,.11.39.66.66,0,0,1,0,.21.37.37,0,0,1,0,.11ZM333.11,399a1.16,1.16,0,0,1,0,.18.64.64,0,0,1-.06.18l-.11.24a4.63,4.63,0,0,1-.42.74l-.17.24c.07,8.32.17,16.63.2,24.94,0,1.47.14,3.35-2.11,3.36-2.57,0-2.22-2-2.27-3.69-.09-3.56-.15-7.13-.23-10.69l-12.18-.08h0l0,.05c0,3.68,0,7.37-.1,11.05,0,1.34.58,3.28-1.92,3.23-.67-.1-1.32-.18-2-.26a2.67,2.67,0,0,1-.4,0l-.18,0-.19,0-.21-.07a1.09,1.09,0,0,1-.23-.14.65.65,0,0,1-.18-.15,1.57,1.57,0,0,1-.2-.3,3.82,3.82,0,0,1-.13-.36,2.34,2.34,0,0,1-.05-.3,1.53,1.53,0,0,1,0-.3c0-.22,0-.43,0-.66q0-13.59,0-27.19a1.09,1.09,0,0,1,0-.18,1.09,1.09,0,0,1,0-.18,3.15,3.15,0,0,1,0-.44,4.62,4.62,0,0,1,.16-.84,2.63,2.63,0,0,1,.53-1l.23-.23a1.19,1.19,0,0,1,.31-.23,1.55,1.55,0,0,1,.22-.12l.17-.07a2.84,2.84,0,0,1,.54-.17c1.32-.25,3.24-.85,3.11,1.77l.48,12.23,12.32-.05c.13-3.74.26-7.46.39-11.18-.45-1.46-.2-2.59,1.5-2.87,1.25-.2,2.29,0,2.26,1.66a4,4,0,0,1,.59.53,1.47,1.47,0,0,0,.1.13l0,.06a.86.86,0,0,1,.1.16.61.61,0,0,1,.09.18.88.88,0,0,1,0,.15,1.24,1.24,0,0,1,0,.16,2.11,2.11,0,0,1,0,.26A1.39,1.39,0,0,1,333.11,399Zm28.25,28.5c-1.84,2.09-18,2.95-19.84,1.11-.83-.81-.71-1.85-.73-2.85-.14-9.14-.23-18.28-.4-27.43,0-2.29,1.4-3,3.21-3,4.91-.11,9.82-.12,14.74-.07,1.59,0,3.25.5,3.08,2.52a2.82,2.82,0,0,1-.12.63,1.8,1.8,0,0,1-.08.21.91.91,0,0,1-.07.14.18.18,0,0,1,0,.08,1.43,1.43,0,0,1-.14.2.53.53,0,0,1-.12.14,1.12,1.12,0,0,1-.2.18,1.79,1.79,0,0,1-.34.22,1.73,1.73,0,0,1-.31.14,4.16,4.16,0,0,1-.81.19l-.38,0a6.87,6.87,0,0,1-.79,0c-1.53,0-3.05,0-4.58.05-8.44,0-8.44,0-7.63,9.24a35.82,35.82,0,0,1,5.31.34c2.68.59,7.5-2,7.63,2.23.13,4.49-4.74,1.81-7.34,2.47-1.42.36-3-.23-4.4.68a3,3,0,0,0-.44.9,45.91,45.91,0,0,0-.22,5.86c0,.15,0,.28,0,.43a2.52,2.52,0,0,0,.06.41q0,.17.06.3a.66.66,0,0,0,0,.15,1,1,0,0,0,.09.28,1.86,1.86,0,0,0,.1.25,2.11,2.11,0,0,0,.16.3v0l.09.12a1.43,1.43,0,0,0,.19.24,1.27,1.27,0,0,0,.25.21,2.33,2.33,0,0,0,.6.36,3,3,0,0,0,.36.13l.34.1.38.08a9.68,9.68,0,0,0,1.24.18l.81.05,1.39.05h2.63c2.12,0,4.42-.58,6.27,1C361.43,426.93,361.53,427.36,361.36,427.54Zm31-1.52c0,1.63-.28,3.18-2.31,3.33a3.89,3.89,0,0,1-4.11-2.26c-.45-.83-.9-1.66-1.34-2.49-1.82-3.3-3.7-6.59-5.74-9.86-.39-.64-.8-1.28-1.22-1.93l-1.14-1.74q-1.25-1.85-2.55-3.66c0,5.25,0,10.5,0,15.76a40.82,40.82,0,0,1-.2,4.56c-.14,1.22-1.11,1.59-2.22,1.63s-2-.56-2-1.75c0-10.65,0-21.29,0-31.71,4.13-1.38,5.66.63,7.05,3.27,3.29,6.25,6.73,12.42,10.21,18.8a4.76,4.76,0,0,0,.39-.64,2.73,2.73,0,0,0,.23-.45,2.26,2.26,0,0,0,.13-.33c0-.09.07-.18.1-.27a3.48,3.48,0,0,0,.17-.61c.46-1.94,0-3.9.1-5.77s.06-3.79,0-5.69c0-1,0-2.06,0-3.09,0-.64,0-1.29,0-1.93,0-.15,0-.31,0-.46a13.05,13.05,0,0,1,.07-1.41,3.63,3.63,0,0,1,.13-.57c0-.09.08-.19.12-.28s.09-.16.14-.24a.76.76,0,0,1,.11-.14.65.65,0,0,1,.11-.12,1.56,1.56,0,0,1,.65-.35l.3-.08.17,0a3.16,3.16,0,0,1,.54,0l.31,0,.19.05a1.08,1.08,0,0,1,.37.13,1,1,0,0,1,.23.12.71.71,0,0,1,.14.1.6.6,0,0,1,.12.11l.13.16a1.5,1.5,0,0,1,.18.24l.13.27a5.87,5.87,0,0,1,.32,2.27C392.42,408,392.4,417,392.39,426Zm14.86.92a2.32,2.32,0,0,1-2.61,2.45c-1.8,0-2.29-1-2.28-2.61,0-4.9,0-9.81,0-14.7h0c0-4.57,0-9.13,0-13.69,0-1.34,0-2.8,1.91-3a2.45,2.45,0,0,1,3,2.65C407.31,407.67,407.28,417.31,407.25,426.94ZM440,427c0,.11,0,.24-.05.35a2.33,2.33,0,0,1-1.76,1.89c-2.43.78-4-.77-5-2.52-2.72-4.82-5.14-9.8-7.79-14.66-1-1.85-1.79-3.94-4.45-5.22,0,4.89,0,9.53,0,14.11,0,1.3,0,2.58-.06,3.88,0,.12,0,.26,0,.4s0,.54,0,.81,0,.64,0,.95a3.19,3.19,0,0,1-.09.63q0,.16-.09.3a.05.05,0,0,1,0,0,1.51,1.51,0,0,1-.11.22l-.12.18a.49.49,0,0,1-.12.13.79.79,0,0,1-.15.12.76.76,0,0,1-.19.12,2,2,0,0,1-.8.23l-.19,0a2.87,2.87,0,0,1-.42,0c-2.9-.08-2.09-2.63-2.11-4.29-.09-8.32-.08-16.63,0-24.93,0-1.75-.56-4,2.16-4.43,2.35-.41,3.85.72,4.9,2.72,2.71,5.19,5.42,10.36,8.22,15.49.59,1.09.83,2.58,2.82,3,0-.09,0-.19.05-.28.07-.36.11-.7.15-1.06s.1-.89.14-1.34,0-.71.07-1.07,0-.71,0-1.07,0-.65,0-1c.08-3.77-.19-7.53,0-11.28.08-1.79-.46-4.18,2.38-4.12,2.57,0,2.58,2.28,2.58,4.15q0,12.74,0,25.44A16.79,16.79,0,0,1,440,427Zm22.42,2.73c-7.69.26-12.56-3.76-13.13-10.85-.08-1-.16-2-.25-3s-.18-2-.26-3c0-.37.05-.76.07-1.14.05-.86.09-1.71.15-2.57,0-.59.07-1.19.12-1.78,0-.37,0-.74.08-1.11s.07-.73.11-1.1.11-.95.18-1.41c.82-5.53,5.73-8.91,12.4-8.76,6.09.14,9.87,3.26,10.65,8.73.34,2.43.05,4.77-2.79,5a3.07,3.07,0,0,1-1.44-.18,2.22,2.22,0,0,1-1-.83,1,1,0,0,1-.13-.23.82.82,0,0,1-.11-.23c-.06-.12-.11-.25-.16-.38a4.61,4.61,0,0,1-.2-.87l-.06-.56c0-.22,0-.43,0-.64a2.18,2.18,0,0,1,0-.25,6.51,6.51,0,0,0-.1-1.21A4.46,4.46,0,0,0,466,402a.94.94,0,0,0-.12-.22,4.91,4.91,0,0,0-.49-.68,3.76,3.76,0,0,0-.29-.28l-.26-.24-.2-.14A4.63,4.63,0,0,0,464,400l-.45-.2a6.78,6.78,0,0,0-.9-.3,8,8,0,0,0-1-.2,6.47,6.47,0,0,0-1.81,0l-.4.07a4.53,4.53,0,0,0-1.11.37,3.27,3.27,0,0,0-.49.27,1.31,1.31,0,0,0-.24.17l-.22.17a3,3,0,0,0-.42.39,4.72,4.72,0,0,0-.37.41,5.71,5.71,0,0,0-.92,1.71,8.85,8.85,0,0,0-.28,1,40.85,40.85,0,0,0,0,17.16c1,4.77,7.83,6.37,11.47,3,3-2.79,2.29-6.26-1.64-7.49-1.46-.46-2.65-.84-2.54-2.53.13-1.88,1.71-1.78,3-1.93,6-.72,7.06.21,7.13,6.44C472.91,427.07,470.68,429.49,462.4,429.77Zm54-7.36a10.27,10.27,0,0,1-9.23,7.54c-4.83.53-9-.44-11.85-4.93-2.53-4-2-8.42-2.18-12.79.16-4.2-.13-8.42,2.18-12.32s7.22-5.83,12.92-4.79a9.58,9.58,0,0,1,8.14,7.93c.41,1.91.93,4.34-1.74,5.15-3.1.94-2.85-1.63-3.51-3.52-1-2.77-1.68-5.83-6-5.51a5.42,5.42,0,0,0-.58.06l-.28,0-.44.08-.2,0a6.22,6.22,0,0,0-1,.31l-.26.11-.22.1-.21.11c-.14.07-.27.16-.4.24a2.88,2.88,0,0,0-.35.26,2.1,2.1,0,0,0-.42.37.75.75,0,0,0-.16.15,3.73,3.73,0,0,0-.26.3.1.1,0,0,0,0,.05c-.09.1-.17.22-.26.34a4.69,4.69,0,0,0-.35.58,3.45,3.45,0,0,0-.22.43c-.08.17-.15.34-.22.53s-.15.41-.22.64-.2.73-.28,1.12a37.33,37.33,0,0,0-.12,14.17c.58,3.19,2.43,6,6.21,6.34a7,7,0,0,0,2-.06,4.21,4.21,0,0,0,.51-.12,3.57,3.57,0,0,0,.8-.34l.33-.2a1.57,1.57,0,0,0,.25-.2l.23-.2a3.17,3.17,0,0,0,.34-.39.35.35,0,0,0,.1-.12,2.45,2.45,0,0,0,.24-.38.16.16,0,0,0,0-.07,1.59,1.59,0,0,0,.16-.32,1.47,1.47,0,0,0,.14-.28c.06-.16.12-.33.17-.5a10.08,10.08,0,0,0,.41-2.28,1.75,1.75,0,0,1,.05-.33,3.31,3.31,0,0,1,.14-.6,1.39,1.39,0,0,1,.16-.35l0-.06c.06-.1.12-.21.18-.3a1.43,1.43,0,0,1,.27-.28,2.52,2.52,0,0,1,.25-.21,2,2,0,0,1,.41-.22l.27-.09.3-.07a4.34,4.34,0,0,1,.64-.06,4.5,4.5,0,0,1,.72.07,5.23,5.23,0,0,1,.74.17C517,418.44,516.94,420.62,516.36,422.41Zm31.71-2.33c-.85,5-3.79,8.29-8.6,9.46-5.51,1.34-11.15-.13-14-4.65-2.11-3.34-1.92-8.39-1.62-12.79.39-3,0-5.89,1.31-8.9,3-6.93,6-9,13.54-8.09,5.38.67,8.58,4.52,9.5,10.83A44.42,44.42,0,0,1,548.07,420.08Zm39,5.88a5.85,5.85,0,0,1-.25,1.89,1.64,1.64,0,0,1-.14.33,1.3,1.3,0,0,1-.25.39.81.81,0,0,1-.18.19.76.76,0,0,1-.21.19,2.34,2.34,0,0,1-.5.25,1.28,1.28,0,0,1-.28.07,3.1,3.1,0,0,1-1,.09c-2.46-.1-2.36-2-2.36-3.71V409.31c-4,6-4.8,11.84-7,17.12-.67,1.62-1.24,2.61-2.94,2.92a2.54,2.54,0,0,1-1.07,0,.58.58,0,0,1-.21-.07,1.16,1.16,0,0,1-.37-.18l-.16-.12a6,6,0,0,1-1.21-1.65l-.27-.44c-3.08-4.49-2.41-10.39-6.71-14.81,0,4.39,0,8.79,0,13.19,0,2.2-.07,4.2-3.07,4.13a3.77,3.77,0,0,1-.9-.12,1.71,1.71,0,0,1-.3-.09l-.25-.11-.19-.1-.13-.1a1.62,1.62,0,0,1-.31-.34,1.2,1.2,0,0,1-.22-.4,9,9,0,0,1-.17-2.78q0-12.74,0-25.48c0-2-.47-4.33,2.59-4.61,2.78-.27,4.94.28,5.84,3.47,1.48,5.17,3.22,10.26,4.87,15.37a4.82,4.82,0,0,0,2.56,3.39c1.85-5.4,3.64-10.72,5.51-16,.28-.79.58-1.59.9-2.37a19.93,19.93,0,0,1,1.12-2.27c1.14-2,3.16-1.76,5-1.41s2.18,1.93,2.18,3.54Q587.1,412.46,587.07,426Zm38.85,1.15a1,1,0,0,1,0,.17,2.2,2.2,0,0,1,0,.37,1.82,1.82,0,0,1-.07.25,1.85,1.85,0,0,1-.18.44l-.09.14a1.54,1.54,0,0,1-.54.46l-.08,0a3,3,0,0,1-1,.24c-2.69.16-2.86-2-2.89-3.86-.07-4.6,0-9.21,0-14.9-3,2.88-3.4,5.77-4,8.26a39.79,39.79,0,0,1-3.16,7.92c-.69,1.43-1.28,2.9-3.16,2.73s-2.64-1.43-3.28-3.28c-1.89-5.54-2.76-11.47-6.72-17,0,6.06,0,11.48,0,16.91,0,1.41.4,3.31-2,3.4-2,.06-2.67-1.32-2.67-3,0-9.49,0-19,.15-28.44,0-1.74,1.28-2.59,3.1-2.69a5,5,0,0,1,.67,0h.4l.17,0,.32,0,.42.1.31.1.4.19a1.13,1.13,0,0,1,.21.12l.17.11a1.33,1.33,0,0,1,.26.21,3.7,3.7,0,0,1,.28.28,4.23,4.23,0,0,1,.86,1.47c.05.13.09.27.13.4.2.62.39,1.25.6,1.88s.39,1.24.6,1.86c.3.93.6,1.86.89,2.79q.38,1.14.72,2.28c.13.41.25.83.38,1.25.33,1.1.64,2.21.9,3.32.15.55.27,1.1.39,1.65.44,2,1.46,3.68,1.76,6.24a12.71,12.71,0,0,0,4.07-8.22c.63-4.48,3.39-8.21,3.77-12.81.21-2.59,2.69-3.56,5.44-3.31s2.6,2.22,2.61,4.08c0,8.66,0,17.33,0,26C625.89,425.88,626,426.52,625.92,427.11ZM658,418.45c-.28,8.13-4.2,11.63-12.31,11.4-.47,0-.92,0-1.36-.08l-.87-.1-.55-.08-.48-.09c-.16,0-.32-.06-.46-.09a3.58,3.58,0,0,1-.56-.16l-.41-.12-.42-.14a4.62,4.62,0,0,1-.47-.19,8.27,8.27,0,0,1-1-.52l-.43-.29a4.35,4.35,0,0,1-.43-.32,4.6,4.6,0,0,1-.61-.56,2.69,2.69,0,0,1-.33-.35l-.21-.25a4.18,4.18,0,0,1-.45-.65,5.7,5.7,0,0,1-.34-.57c-.1-.2-.2-.4-.3-.62s-.19-.45-.28-.7-.23-.7-.32-1.08c-.05-.19-.1-.39-.13-.58s-.08-.4-.11-.6a3,3,0,0,1-.06-.4c0-.13,0-.27-.07-.41s0-.33,0-.49,0-.4-.05-.61c0-.49-.06-1-.07-1.52,0-2.9,0-5.78,0-8.67h0a7.24,7.24,0,0,1,0-2,3.69,3.69,0,0,0,.1-.39c0-.13.05-.27.07-.41a.88.88,0,0,0,0-.17,31.16,31.16,0,0,0-.4-5.69,11.09,11.09,0,0,1-.07-1.8.8.8,0,0,1,0-.31,3.25,3.25,0,0,1,.06-.45,2.84,2.84,0,0,1,.09-.42,2.16,2.16,0,0,1,.41-.78,1.07,1.07,0,0,1,.2-.22l.13-.11a2.1,2.1,0,0,1,.92-.4l.32-.05.26,0h.3a3.91,3.91,0,0,1,.49,0l.22,0,.21,0a2.11,2.11,0,0,1,.38.1,2.3,2.3,0,0,1,.35.15,2.82,2.82,0,0,1,.45.27,1.39,1.39,0,0,1,.21.21,2.09,2.09,0,0,1,.2.22l.06.09h0a.35.35,0,0,1,.07.12.08.08,0,0,1,0,0,2.87,2.87,0,0,1,.25.56,1.05,1.05,0,0,1,.05.19c0,.06,0,.13,0,.2s0,.28.07.42c.31,2.53-.93,6.32-.49,8.84.13.77.22,1.56.28,2.34s.08,1.5.08,2.26c0,.3,0,.62,0,.93s0,.67,0,1a.75.75,0,0,1,0,.15,4.68,4.68,0,0,1,0,.64,1.7,1.7,0,0,1,0,.22c0,1.22-.13,2.44-.17,3.64a8.28,8.28,0,0,0,.41,3.18,5.25,5.25,0,0,0,.22.55,4.62,4.62,0,0,0,1,1.33,4.38,4.38,0,0,0,.89.64,2.86,2.86,0,0,0,.43.21l.23.09.56.19.36.09.39.07a5.77,5.77,0,0,0,.86.11l.35,0c.24,0,.48,0,.74,0,4.17,0,6.1-2.43,6.13-6.45,0-4.85,0-9.69.06-14.53,0-1.61,0-3.23,0-4.84,0-.5,0-1,0-1.54a6,6,0,0,1,0-.61,1.17,1.17,0,0,1,0-.26,2.34,2.34,0,0,1,.1-.4,1.46,1.46,0,0,1,.07-.19c0-.06.06-.12.09-.19a.71.71,0,0,1,.13-.22,1,1,0,0,1,.15-.2.76.76,0,0,1,.2-.2,2.12,2.12,0,0,1,.78-.4,3.6,3.6,0,0,1,.72-.12,4.92,4.92,0,0,1,.67,0,.85.85,0,0,1,.23,0h0l.18,0h0a1.28,1.28,0,0,1,.33.11,1.94,1.94,0,0,1,.94.7.76.76,0,0,1,.11.14,1.51,1.51,0,0,1,.2.35,2.15,2.15,0,0,1,.15.38,2,2,0,0,1,.09.33,3.06,3.06,0,0,1,.1.51,2.15,2.15,0,0,1,0,.34,3.59,3.59,0,0,1,0,.47c0,.25,0,.52,0,.78C658.06,405.88,658.21,412.17,658,418.45Zm32.85,6.67c0,2-.17,3.82-2.55,4.21-2,.32-3.28-.37-4.51-2.3-3.68-5.72-6.46-11.93-10.19-18.67-2.83,5.31-1.1,10.38-1.77,15.1-.18,1.31.23,2.71-.07,4a2.52,2.52,0,0,1-2.67,1.93c-1.52,0-2.08-1-2.09-2.35-.05-9.48-.11-19,0-28.47,0-.15,0-.31,0-.47a1.8,1.8,0,0,1,0-.22.83.83,0,0,1,0-.22,3,3,0,0,1,.28-.95l.11-.22a.76.76,0,0,1,.12-.19,1.81,1.81,0,0,1,.18-.23l.23-.2a1.63,1.63,0,0,1,.34-.21,1.9,1.9,0,0,1,.38-.17.94.94,0,0,1,.24-.06l.17,0,.38-.05a4.06,4.06,0,0,1,4.1,2.39c2.76,5,5.6,10,8.14,15.07a11.07,11.07,0,0,0,3.74,4.21c0-6.17,0-11.39,0-16.62,0-1.93-.59-4.68,2.25-4.86s3.19,2.28,3.17,4.7Q690.74,412.67,690.83,425.12Zm13.11.75c0,1.71,0,3.69-2.53,3.47-2.09-.2-2.64-1.9-2.65-3.71,0-4.56,0-9.13,0-13.68h0c0-4.06,0-8.12,0-12.17,0-2,.49-4.06,2.64-4.28,2.73-.26,2.58,2.27,2.59,4C704,408.29,704,417.09,703.94,425.87Zm25.59-25.8c-1,.06-2,.17-3.8.31,0,8.31,0,16.24,0,24.15,0,1.83.92,4.63-2.21,4.72s-2.55-2.68-2.58-4.55c-.08-3.63-.11-7.26-.11-10.88,0-3,0-5.94.08-8.92.07-3.2-.53-5.32-4.4-4.92-1.58.16-3.66.53-3.75-2.09-.12-2.86,2-2.59,3.89-2.61,4.23,0,8.46,0,12.69,0,1.89,0,4.13-.23,4.27,2.35C733.74,400.44,731.33,400,729.53,400.07Zm31.35,0a134.51,134.51,0,0,1-5.4,13c-2.06,4-3.41,8-3.07,12.52.11,1.55.52,3.74-2.15,3.71a2.62,2.62,0,0,1-2.82-3.32c1.27-8.28-3.43-14.89-6.07-22.07-.18-.47-.71-.83-.79-1.29-.41-2.2-2.37-5.33.07-6.41,3.42-1.5,3.64,2.46,4.62,4.55,1.54,3.29,2.88,6.68,4.56,10.64q1.38-2.14,2.51-4.23c.15-.27.31-.55.45-.82l.51-1,.33-.68a.41.41,0,0,0,0-.09c.2-.41.38-.82.57-1.23.48-1.07.92-2.14,1.3-3.23.2-.54.38-1.09.55-1.64.08-.22.16-.45.24-.65s.16-.41.24-.59a4.35,4.35,0,0,1,.29-.53,2.38,2.38,0,0,1,.41-.56.85.85,0,0,1,.19-.19,1.34,1.34,0,0,1,.43-.32l.2-.11.17-.06.28-.07h.06a1.38,1.38,0,0,1,.5,0,2.22,2.22,0,0,1,.37,0l.43.09C762.61,396.21,761.5,398.42,760.88,400.06Zm44.68,29.14c-5-2.94-9.72.68-14.57.66-3.86,0-7.24-1.15-8.92-4.7s-2-7.52.63-10.61c2.3-2.67,2.17-4.56.69-7.56-2.55-5.16-.8-9.65,3.74-11.42,5-1.95,10.14-.06,12,4.36,1.61,3.72-.08,6.52-2.42,9.13-.88,1-1.94,1.84-3.07,2.9,1.64,2.77,3.17,4.68,5.44,5.8,2.06-.47,2-2.11,2.31-3.6.34-1.8,1.49-2.69,3.3-2.3s2.4,1.79,2.13,3.5a8,8,0,0,1-.92,2.85c-2.16,3.53-2.72,6.82,1.46,9.72C806.54,428.54,805.78,429.33,805.56,429.2Zm45.2-23.76a4.69,4.69,0,0,1-.06.54,1,1,0,0,0,0,.17,3.6,3.6,0,0,1-.32,1,.59.59,0,0,0,0,.08l0,.1a2,2,0,0,1-.23.34l-.18.21a1.88,1.88,0,0,1-.3.27l-.18.12a2.6,2.6,0,0,1-1.23.4c-1.61.14-2.47-1.05-3.16-2.68-1-2.44-.7-6-4.37-6.69s-6.4.74-7.53,4.35a29.09,29.09,0,0,0-.14,17.06c.75,2.57,2.38,4.73,5.74,4.92,2.89.18,4.91-.86,5.14-3.56.42-4.79,3.18-4.18,6.65-3.46-.05.49-.1.95-.17,1.4s-.15.89-.24,1.31-.14.62-.21.92a11.79,11.79,0,0,1-.4,1.27c0,.13-.09.27-.14.39s-.22.51-.33.75a6.7,6.7,0,0,1-.37.7l-.19.32a8.25,8.25,0,0,1-1.34,1.67l-.29.26a7.49,7.49,0,0,1-1.56,1.05l-.45.23c-.12.06-.26.11-.39.16l-.57.2c-.12,0-.24.09-.37.12-.28.08-.58.15-.88.21s-.63.11-.95.15l-.33,0a14.59,14.59,0,0,1-1.65.11c-9.17.11-11.06-3.91-12.43-11a33.23,33.23,0,0,1,1.63-18.47c1.62-4.18,8.23-6.58,14.21-5.1C847.36,396.34,851,401.21,850.76,405.44ZM863.55,413h0c0,4.4,0,8.82,0,13.23,0,1.63-.21,3.19-2.37,3.09l-.21,0a1.18,1.18,0,0,1-.21,0,2,2,0,0,1-.35-.09,1,1,0,0,1-.29-.13l-.07,0a1,1,0,0,1-.33-.3.7.7,0,0,1-.13-.17.35.35,0,0,1-.08-.13.6.6,0,0,1-.08-.2,1.8,1.8,0,0,1-.14-.41c0-.12,0-.24-.07-.37a9.05,9.05,0,0,1-.05-1c0-9.34,0-18.67,0-28,0-1.32.09-2.94,2-2.89a2.09,2.09,0,0,1,2,1,4.72,4.72,0,0,1,.43,2.22c0,1.59,0,3.17,0,4.75C863.56,406.62,863.55,409.78,863.55,413Zm31.63-12.19a242.08,242.08,0,0,0-6.65,24.92c-.62,2.87-3.14,3.47-5.28,4s-2.8-1.65-3.36-3.12c-3.48-9.18-5.66-18.71-7.75-28.27-.33-1.53,0-2.91,1.81-2.92,2.22,0,3.1,1.63,3.59,3.59,1.41,5.66,2.84,11.32,4.35,17a40.28,40.28,0,0,0,2,4.62c.15-.35.29-.71.42-1.06s.28-.71.4-1.06c.19-.52.38-1.05.55-1.57.11-.31.22-.63.31-.94.41-1.23.76-2.44,1.09-3.64s.69-2.65,1-3.94c.37-1.51.72-3,1.08-4.48s.73-2.94,1.15-4.38c.67-2.27,1.32-4.66,4.16-4a3.25,3.25,0,0,1,1.67.81,1.45,1.45,0,0,1,.34.55,1,1,0,0,1,0,.16.07.07,0,0,1,0,.05,3.93,3.93,0,0,1-.33,2.08C895.59,399.69,895.34,400.26,895.18,400.77Zm13,25.86c0,1.9-1,2.75-2.88,2.71-1.49,0-2-.88-2-2.28,0-10.43,0-20.86,0-31.1,3.08-1.13,4.82-.27,4.86,2.31C908.22,407.72,908.15,417.18,908.14,426.63Zm23.69,2.84c-2.45,0-4.46,0-6.14,0a36.24,36.24,0,0,1-5-.14,1.33,1.33,0,0,1-.3-.06l-.2,0-.33-.08-.24-.08-.26-.11-.14-.07-.19-.11a2.61,2.61,0,0,1-.3-.27,1.5,1.5,0,0,1-.2-.24,2.4,2.4,0,0,1-.16-.27,1.86,1.86,0,0,1-.17-.41,2.17,2.17,0,0,1-.07-.24,1.29,1.29,0,0,1-.06-.21,7.26,7.26,0,0,1-.15-1.26c0-.11,0-.24,0-.36-.08-2,.1-5,0-9.48-.1-5.26,0-10.52,0-15.78,0-.25,0-.49,0-.74s0-.23,0-.35,0-.36,0-.54a5.35,5.35,0,0,1,.18-.92q.06-.21.12-.39c0-.09.07-.18.11-.27a.76.76,0,0,1,.09-.18,2.32,2.32,0,0,1,.35-.53,2,2,0,0,1,.25-.25,1.31,1.31,0,0,1,.31-.23,1.83,1.83,0,0,1,.34-.18l.45-.15a1.72,1.72,0,0,1,.34-.06,3.36,3.36,0,0,1,.56,0c3,0,2.4,2.74,2.41,4.66,0,6.79.07,13.58-.07,20.36-.08,3.7,1.41,5.1,5.14,5.09,2.85,0,6.07-1.14,8.66,1.27C936.38,430,933.9,429.5,931.83,429.47Zm45.86-8.73c-.35,5-5.13,8.93-11.07,9.07-6.33.13-11-3.11-11.8-8.1-.2-1.35-.58-2.82,1.31-3.28,1.68-.4,2.78,0,3.36,2,.84,2.89,2.64,5,6,5.17s5.76-.64,6.4-4.23-.81-5.9-4.48-6.65c-1.66-.35-3.33-.66-4.95-1.11-.62-.18-1.2-.37-1.75-.58l-.22-.09-.59-.25-.3-.14-.63-.32a6.45,6.45,0,0,1-.68-.41,7.92,7.92,0,0,1-1.24-.94,6.38,6.38,0,0,1-.52-.52,4.13,4.13,0,0,1-.47-.55,6.68,6.68,0,0,1-.8-1.3c-.08-.18-.15-.36-.22-.54a5.66,5.66,0,0,1-.2-.58,1.38,1.38,0,0,1-.06-.26.19.19,0,0,1,0-.08c0-.17-.08-.36-.11-.54a2,2,0,0,1,0-.27c0-.15,0-.3,0-.47a10.51,10.51,0,0,1,.07-2.15c.7-5.26,4.31-8.29,10.21-8.55.5,0,1,0,1.52,0,5.69,0,9.71,2.67,10.86,7.31a7.86,7.86,0,0,1,.24,2.86,5.55,5.55,0,0,1-.17.73l-.09.26a3.06,3.06,0,0,1-.26.51,2.61,2.61,0,0,1-.19.27l-.19.21a3.31,3.31,0,0,1-.34.3,1.06,1.06,0,0,1-.26.17,2.43,2.43,0,0,1-.35.2l-.23.1-.53.16a2.8,2.8,0,0,1-1.49,0,1,1,0,0,1-.27-.11l-.23-.14a1.3,1.3,0,0,1-.22-.19,2,2,0,0,1-.18-.21,2.29,2.29,0,0,1-.3-.51,8.25,8.25,0,0,1-.5-1.61c0-.21-.09-.42-.13-.64s-.07-.29-.1-.43c-.72-3.1-2.51-5.52-6.38-5a5.1,5.1,0,0,0-3.28,1.49c-.1.1-.18.2-.27.3a4.09,4.09,0,0,0-.29.48c-.07.12-.13.25-.19.38a1.8,1.8,0,0,0-.12.35,3,3,0,0,0-.17.68,2.91,2.91,0,0,0,0,.31,6.12,6.12,0,0,0,0,1.14c.25,3.53,2.09,5.61,6.06,6C974.78,411.22,978.11,414.6,977.69,420.74Zm30.36-.19c-3,8.45-5.74,10.24-14.17,9.08-5.56-.76-8.83-5.33-9.11-12.8,0-1.36,0-2.72,0-5.23.17-1.69-.12-4.53.63-7.41,2.13-8.17,10.87-12.08,18.06-7.69,4.41,2.7,4.38,7.82,5.48,12A20.29,20.29,0,0,1,1008.05,420.55Zm15.54-.57c.89,3.16,2.57,5.83,6.7,5.6,3.77-.2,4.54-2.92,5.39-5.7.2-.62.31-1.26.49-2.08,4.65-.73,5.41,1.58,4.55,4.75a9,9,0,0,1-8.26,7.12c-5.77.68-11.31-1.33-12.79-5.23-2.94-7.8-3.57-15.81-.27-23.68,2.08-5,8.09-7.08,14.45-5.43a9.38,9.38,0,0,1,7.2,9.27c0,1.87-.36,3.54-2.53,3.68-1.87.14-2.59-1.2-2.85-2.9-.54-3.6-2.22-5.63-6.3-5.64-4.43,0-5.42,3-6,6.13A30.58,30.58,0,0,0,1023.59,420Zm28.32,9.29a2.77,2.77,0,0,1-1.31-.23l-.08,0a.2.2,0,0,1-.08,0,.88.88,0,0,1-.24-.19,1.07,1.07,0,0,1-.14-.16,1.37,1.37,0,0,1-.27-.57,2.2,2.2,0,0,1-.06-.37,6.32,6.32,0,0,1,0-1.37c0-.27.06-.54.08-.8s0-.29,0-.43c-.09-9.14,0-18.28,0-27.42a10.7,10.7,0,0,1,.56-2.17c3.69-.31,4.09,1.88,4.08,4.19,0,8.46-.14,16.92-.27,25.38C1054.22,426.83,1054.66,429.23,1051.91,429.27Zm28,.21c-2.21,0-4.42,0-6.63,0-10.88-.11-9.48,1.24-9.67-9.42-.11-6.45.07-12.91-.09-19.35-.08-3.61,1.11-5.42,5-5.23s7.81,0,11.71.12c1.42,0,2.71.52,2.63,2.37s-1.4,2.07-2.85,2.07H1069.8c-1.62,1.85-1,3.45-1.17,4.91-.54,3.58,1,5,4.56,4.65a37.32,37.32,0,0,1,5.59.1c1.46.1,2,1.21,2,2.49,0,1.44-.86,2.11-2.28,2.12a35,35,0,0,1-4.58,0c-4.31-.55-5.4,1.32-5.46,5.49,0,.26,0,.49,0,.72s0,.28,0,.4,0,.5.06.74,0,.27,0,.4a4.63,4.63,0,0,0,.78,2.11,1.83,1.83,0,0,0,.13.16,3.07,3.07,0,0,0,.25.26,1.76,1.76,0,0,0,.34.27,1.2,1.2,0,0,0,.27.16l.19.09.18.09.28.1.29.08.33.07.32.05.55.05a14.67,14.67,0,0,0,1.73,0c3.09-.23,6.4-.92,9.68,1A3.65,3.65,0,0,1,1079.88,429.48ZM1107,400.06c-1.15,0-2.3.2-4,.34,0,8.07.06,16,0,23.9,0,2,1,5-2.48,5s-3.06-2.88-3.06-5.25V401.34c-2.66-2.45-7.52.59-6.84-4,.53-3.52,4.41-1.92,7-1.93,3,0,6.08,0,9.12.12,1.65,0,3.73-.29,3.68,2.25C1110.32,399.86,1108.64,400,1107,400.06Zm26.35,10.82c-.22.5-.42,1-.63,1.51-.14.34-.27.68-.4,1l0,0c-.19.45-.36.9-.52,1.35-.11.28-.21.55-.31.82s-.19.55-.29.82c-.19.54-.36,1.09-.52,1.65-.09.3-.18.63-.25.94,0,.14-.07.27-.1.4-.07.29-.15.58-.2.87s-.13.68-.19,1-.1.7-.14,1.05-.1.92-.12,1.39,0,.66,0,1c0,.51,0,1,.07,1.54.13,1.67-.24,3.18-2.41,3-1.39-.13-2.8-.54-2.59-2.41,1.22-10.75-5.4-19.11-8.64-28.5-.22-.61-.34-1.25-.64-2.43,5.72-1.87,5.83,2.4,7.5,5.38s1.22,7.09,4.26,9.48c4.69-3.85,2.79-12.43,10.21-15.09C1139,401.89,1135.31,406.31,1133.39,410.88Zm46.89-9.36c-2.78,8.27-3.77,17.07-7.46,25.11-.87,1.87-1.15,3.11-3.46,3.39a3.68,3.68,0,0,1-4.22-2.75c-2.8-9.87-5.33-19.81-7.91-29.74-.11-.43.19-1,.35-1.78,3.44-1.15,4.36.73,5.25,3.28,2.44,6.91,2.46,14.51,6.3,21.17,4.87-7.5,3.25-17.91,9.65-25.37C1181.62,397.61,1180.88,399.78,1180.28,401.52Zm30.78,22.93c-2.09,4.34-7.14,6.42-13.18,5.13-4.67-1-8-3.51-8.26-8.84-.12-2.72-.32-5.42-.47-8,.1-2,.16-3.88.27-5.74.44-7.36,3.56-11.14,9.85-11.93,6.94-.89,11.87,2.12,13.39,9.43C1214,411.15,1214.15,418,1211.06,424.45Zm15.41-12.05h0v13.77c0,.21,0,.42,0,.62a4,4,0,0,1-.07.59l-.09.36a1.9,1.9,0,0,1-.12.36,1,1,0,0,1-.07.15,2.14,2.14,0,0,1-.17.3,1.34,1.34,0,0,1-.2.21.75.75,0,0,1-.16.15,1.12,1.12,0,0,1-.28.18,1.71,1.71,0,0,1-.48.18.32.32,0,0,0-.09,0l-.23,0a2.9,2.9,0,0,1-.43,0,2.86,2.86,0,0,1-.53,0,.73.73,0,0,1-.24-.07.6.6,0,0,1-.22-.09l-.16-.08a.94.94,0,0,1-.19-.14.57.57,0,0,1-.15-.16,2.68,2.68,0,0,1-.18-.33l0-.07a3,3,0,0,1-.13-.45,5.23,5.23,0,0,1-.07-.68,2.72,2.72,0,0,1,0-.28c0-.18,0-.37,0-.55-.11-9.17-.22-18.35-.21-27.52,0-1.41-.05-3.47,2.08-3.47a1.83,1.83,0,0,1,.33,0h.2l.24,0a.85.85,0,0,1,.24.09.92.92,0,0,1,.24.1,1,1,0,0,1,.18.1.83.83,0,0,1,.16.12l.2.21a1.64,1.64,0,0,1,.31.49,2.48,2.48,0,0,1,.2.56l.06.23c0,.07,0,.14,0,.23a3.86,3.86,0,0,1,.06.49c0,.33,0,.67,0,1C1226.49,403.56,1226.47,408,1226.47,412.4ZM1258,422.66c-1.86,5.59-4.91,7.43-11.82,7.1-6-.27-9.6-3.3-10.7-10.07-.9-5.67-1.11-11.47.88-17.12,2.16-6.13,5-7.94,12.53-7.5,5.52.32,8.28,3,9.51,8.75.44,2.09.37,4.06-1.75,4.65a2.75,2.75,0,0,1-1.44,0,.87.87,0,0,1-.26-.08,2.06,2.06,0,0,1-.55-.33l-.16-.15a2.69,2.69,0,0,1-.27-.32,1,1,0,0,1-.15-.21,1.71,1.71,0,0,1-.13-.23,1.51,1.51,0,0,1-.09-.18l-.09-.19a4.27,4.27,0,0,1-.21-.6c0-.15-.08-.31-.11-.48a2,2,0,0,1-.05-.24c0-.08,0-.17,0-.26-.54-3.77-2.12-6.36-6.55-6l-.58.07a5.65,5.65,0,0,0-1.55.42l-.43.2a2.65,2.65,0,0,0-.4.24,5.74,5.74,0,0,0-.47.35c-.11.1-.21.21-.3.31l-.18.18a1.56,1.56,0,0,0-.16.2c-.1.13-.2.26-.29.4s-.2.33-.28.5a11,11,0,0,0-.93,2.9c-.09.42-.16.85-.22,1.27,0,.24-.07.47-.1.71a2,2,0,0,0,0,.23l0,.28c0,.54-.07,1.1-.09,1.67,0,.34,0,.67,0,1,0,.84,0,1.7-.08,2.64a64,64,0,0,0,.54,7.17,6.21,6.21,0,0,0,5.8,5.5c3.37.36,5.57-1.43,6.25-4.6.49-2.32,1.5-3.4,3.78-2.76C1259.54,418.9,1258.55,420.88,1258,422.66Zm28.55,5.08a2.79,2.79,0,0,1-.26.45l-.13.21c-.11.12-.2.23-.31.33a.74.74,0,0,1-.2.16l-.21.11h0l-.24.07a1.85,1.85,0,0,1-.41,0h-.11l-.13,0a3.67,3.67,0,0,1-1-.37c-3.29,1-6.61.68-9.92.2a1.49,1.49,0,0,1-2.18,0,3.94,3.94,0,0,1-3-.19c-1,0-1.82-.52-1.72-1.41.71-6.34-1.61-12.58-.3-19,.56-2.74-1.14-5.49-.86-8.43s1.63-4.63,4.75-4.61c4,0,8.11,0,12.16,0,1.84,0,4.21-.11,4.07,2.52s-2.51,2.22-4.34,2.27c-3.54.12-7.08.21-10.63.31l0,8.87c3.17.13,6.35.33,9.52.33,1.82,0,3.06.71,3.18,2.43.13,2-1.43,2.32-3.09,2.36-3.19.08-6.36.25-9.53.37v9.94c4.18,2.51,9.19-1,13,2.31l2.8-.9c0,.1-.1.2-.14.3C1286.94,426.87,1286.73,427.34,1286.51,427.74Z"></path><path class="cls-3" d="M23,124.84l0,0h0ZM229.65,64.69l-1,.74A1.94,1.94,0,0,0,229.9,65C229.82,64.88,229.73,64.79,229.65,64.69Zm15.07-5.12c7.69-3.33,8.34-10.72,10.81-17.83-8.68-1.19-15.23,2.07-20.88,6.83-3.32-1.37-2.2-9.63-8.3-4.64C222.41,47.16,220.51,55,223,57.59c4.35,4.43,6.58,0,8.94-2.69,2.46,1.18,2.53,3.4,3.48,5.31-1.83.93-3.62,1.86-4.64,3.69a3.74,3.74,0,0,1-.9,1.09c6.16,7.49,10.54,8.51,17.51,4.33a10.44,10.44,0,0,0-3.24-5.39C242.59,62.6,242.13,60.69,244.72,59.57Zm25,65.22,0,0,.07-.06Zm25.82,54.14c2.29-2.65,2-4.12-1.66-4.74-3-.49-6.06.78-8.88-.54-1-6.75-.08-15-7.66-17.65-7.33-2.56-14.88.14-21.45,5.65-.91-2.79-2.08-4.49-1.83-5.94,1-5.54.85-11.18,1.68-16.67,1.17-7.62,7.49-13.65,14-14.25-2.83-4.19-5-4.61-9.15-2a16.52,16.52,0,0,0-7.17,10c-1.19,4.06-3.51,3.7-6.1,1.91a11.53,11.53,0,0,1-3.82-4.63c-1.54-3.28-2.79-5.7,2.83-6.49,5.79-.8,8.92-9.79,5.82-14.82-.47-.74-1-1.71-1.87-1.49-5.08,1.43-5.55-2.51-7.15-5.6-1.3-2.51-3.36-5.55-6.43-5-3.57.61-2.91,4.57-3.3,7.25-.29,1.91-.26,4.62.86,5.88,4,4.46,4.68,8.82,3.5,14.84-1.26,6.5,4.41,10.58,9.2,14.07a11.08,11.08,0,0,1,5,9.81c0,15.9-9.07,26.91-19.83,37-.66.61-1.88.59-2.79,1-6,2.51-13.82-.12-18.87,6.56,4-8.77,8.89-16.82,8.88-26.5,10.92,2.1,17.49-3.3,15.94-12.66-7.69-1.66-10.78,4.83-15.07,9.53-1.86-3.76-3.73-6.39-6.71-8.27-3.68-2.29-4.65-.64-4.49,2.71.25,5.17,1.67,9.73,8.06,11.53-3.19,6.8-5.52,13.55-10.48,19.07-6.5,7.23-11.93,15.69-22.67,17.41-5.36.86-10.67,1.94-16,3.05-5.69,1.18-7.88-.85-6.22-6.52a66.59,66.59,0,0,0,2.76-22.1c-.24-4.91-.8-9.2,6.08-10.17,2.88-.41,5.23-3.46,7.1-6a3,3,0,0,1,3.08-1.55c1.76,4.46,5.42,6,10.05,5.68,2.26-.16,4.7-.62,5-3.37.23-2.41-1.85-3.52-3.78-4.21-2.33-.82-4.76-1.34-7.5-2.08a38.44,38.44,0,0,1,19-17.2c2.38-1.05,4.52-3,7.27-1.08,3.89,2.76,7.5,1.1,11.22-.31-1.8-5.21-7.21-8-11.69-5.93-4.95,2.34-10.88,2.88-14.58,7.67a2.12,2.12,0,0,1-3.14.41c-.88-6,2.06-12.18,7.73-14.41,6.29-2.46,12.44-5.85,19.64-5,3.18.37,5.46-1.58,7.61-3.51,1.2-1.08,3-2.23,2.1-4.2a5.59,5.59,0,0,0-4.42-3c-7-1.11-12,2-13.88,9-4.6.44-5.71-1.62-4.16-5.72,1-2.68.6-5.61-2.13-6.25s-4.2,2.28-5,4.72a7.9,7.9,0,0,0-.06,4c1,3.69-.75,5.68-3.78,7.27-6.64,3.5-9.16,9.52-9.56,16.58-.68,12-9.06,18.37-18,24-3.34,2.1-5.37.18-4.8-3.85,1.09-7.63,1.41-15.21-1.07-22.68-3.27-9.88-1.5-18.57,6-26.08,4.62-4.65,9-9.57,13.4-14.41,4.71-5.13,5.71-5.11,10.46-.22,4.31,4.46,10.11,5.7,15.74,4.86A76.38,76.38,0,0,0,219.85,100a17.28,17.28,0,0,0,9.52-7c1.79-2.65.84-6.28,4-8.46,2.46,4,6.4,3.74,10.3,3.38,3.72-.36,10.15-5.36,9.33-7.43-1.8-4.52-6.21-3.1-9.73-3.42C241,76.93,239,78,237,79c-1.4.76-2.25,2.79-4.43,2-.39-1.41-.44-3.1-1.27-4.23s-1.66-3.11-3.83-2.84-2.28,2.26-2.68,3.82a11.84,11.84,0,0,0,1,8.87c1.11,2,.4,3.24-.74,5-2.9,4.53-7.78,4.34-12,5.3a26.57,26.57,0,0,1-20.24-3.34c13-8.21,23.84-19,35.87-28.14a2.82,2.82,0,0,1-1.68-.75c-3-2.56-5.37-.9-7.61,1.07-2.65,2.35-5.15,4.89-7.73,7.3a4.25,4.25,0,0,1-4.24,1.1c-1.89-.59-1.67-2.42-1.64-3.87a24.85,24.85,0,0,1,1.88-9.85c1.29-2.9,3.55-5.73,3.36-9.38-2.43-.2-3.48.81-4.59,2.64a30,30,0,0,0-3.91,21c1,6.4-1.94,9.57-8.4,9.25,1.56-4,3.49-7.89,2.46-12.21-.45-1.88-.86-4.27-3.17-4.81-2.52-.58-4,1.26-5.26,3.18-3.87,5.78-4.46,11.42,1.28,16.84-4,3.48-8.41,5.63-11.92,9-3.72,3.61-8.07,6.56-12.1,9.84-2.42,2-4.25,1.16-5.15-1.38-2-5.57-3.76-11.22-2.93-17.31.47-3.45,1.91-5.58,5.13-7.71,8-5.28,17.28-9.79,18.88-21,.14-1,1.26-1.88,1.94-2.83,5.57,4.48,10.25.8,16.77-7.45-2.76-3-6.94-.26-10.73-2.88,4.49-5.39,2.3-10.85.08-16.52-1.11-2.79-2.33-4.05-4.56-1.87a34.76,34.76,0,0,0-6.09,8c-2.13,3.87-2,7.88,1.62,11,1.48,1.28,3.68,1.7,2.76,4.6s-2.29,4.61-5.77,5.06c1.38-7.56-3.13-11.8-7.69-16.51a13.72,13.72,0,0,0-2.23,14.87c1.9,4.67,6.24,2.21,9.78,1.59a4.24,4.24,0,0,1-.58,4.93,71.89,71.89,0,0,1-19.74,14.55c-2.44,1.15-6.73-.11-6.73-4.09,0-8.47-2-17.29,3.31-25.16,1.2-1.77,2.46-4.16,1.81-6.23-1.38-4.32.86-7.43,2.65-11,4.27,1.45,8.68,2.93,12.16-1.28,4.31-5.24,4.26-11.31,3.43-17.48-5.89.78-11.11,3.66-13.25,7.59-4.19,7.68-6.94,2.71-10.44.28a4.71,4.71,0,0,0-1.5-.41c-3.89,3.75-2.58,8.7-2.89,13.27-1.92.36-3.19-.49-4.49-1.26-2.14-1.24-4.28-.25-4.49,1.62-.85,7.39-6.79,6-11.56,7.41a11.25,11.25,0,0,1,.73-5.65c1-2.59-1.74-10.26-3.62-10.62-4.1-.77-5.51,2.19-7.64,5-2.88,3.83-3.63,8.55-1.43,11.27,3,3.67.27,8.24,3.52,11.33,5.13,4.88,6.75,11.12,6.78,18,0,4-.19,7.68-5.06,8.57-4.57.84-8.33-1.76-9.73-6.47,6.84-3.86,8.77-9.12,5.69-15.4-1.85-3.81-3.57-3.68-6.66-.62-1.88,1.88-1.8,5.49-5.88,6.33.34-5.94-3.86-12.27,4-16.1.75-.35,1.21-1.62,1.5-2.57,1.6-5.27,5-10.43.6-16.08-.81-1-.48-3-2.45-3.29s-2.85,1-4,2.45a29.15,29.15,0,0,0-6,14.81c-3.53-3.48-6.52-6.92-11.61-6.8-2.52.06-4,1-3.89,3.53.2,7.61,8.6,12.83,15.29,9.5,1.55-.77,3-1,4.14.29s-.53,2.21-1,3.33c-1.56,3.5-2.87,6.81-1.13,11.08s4.69,8.44,5.2,14.2a35.54,35.54,0,0,1-17.09-8.77c5.24-3.38,5.48-10.15.9-14.18-2.53-2.23-3.91-1.52-5.43,1.23-2.44,4.43.7,7.93,1.75,11.75-9.57,1.43-15,6.26-14,16.78,9.67-.45,10.65-2,9.73-12.51,4.53.39,6.79,4.51,10.46,6.2,4.49,2.07,8.75,3.76,13.69,4.17,7.08.59,14.06,2.24,21.24,1.82a3.23,3.23,0,0,1,3.34,1.74c3.53,6.18,9.67,9.26,15.6,12.47,1.34.75,2.51,1.68,3.79,2.45,6.44,3.93,7.8,10.14,7.79,17,0,4.93.09,9.84-.83,14.73-.68,3.6-2.44,4.35-5.8,3.38a13.84,13.84,0,0,1-8.53-6.59c-1.33-2.26-2.66-4.71-5.61-5.14-1.48,1.36-1.43,2.8-.47,3.81,4.15,4.41,7.71,9.58,13.37,12.24a10.71,10.71,0,0,1,6.2,8c2.4,11,.95,22,.31,33,0,.4-.55.77-1.27,1.71-4.36-3.82-6.84-8.44-6.82-13.91a45,45,0,0,0-3.26-16.74c-1.18-3-3.14-5-8-5.46,4.11,7.09,7.57,13.32,5.63,21.13-4.48-1.57-7.64-6.36-14-5.06,14.39,10.6,27.61,21.22,22.65,41.54-3.39,0-4.77-2.73-6.07-4.82-5.8-9.3-14-16.86-18.9-26.85-1.86-3.83-5.5-6.34-9-8.78-8-5.64-9.67-17.94-4-25.89,5.29-7.44,4.17-15.8,2-24-.87-3.28-2.61-6.32-4-9.49-2.92,1-.86,3.6-2.57,5.27-2,.92-4.55-.33-7,.28-2.88.73-3.73,2.06-1.77,4.69,3,3.9,6.21,4.63,12.14,2.09,1,5.1,1.47,10-.91,14.67-1.6,3.12-3.9,5.9-5.92,8.81s-1.6,6.75-2.48,10.11c-9.32-3-23.28-20-24.18-29.62C82,118,86.08,114.34,88.09,108c.49-1.53,1.68-3.37,0-4.73a5.26,5.26,0,0,0-5.79-.22,18.73,18.73,0,0,0-6.93,5.73c-.59.83-.79,2.33-2.71,2.42-1.75-10,2.51-20.78-4.85-30.11h0c-6.88-5.67-11.81-6.8-15.26-.74a34.59,34.59,0,0,0-11.79-9.53c-5.25,8.3-5.94,16.32,1.2,24.19C38,95.89,35,95.4,32,97c-4,2.06-3.52,3.78-1,6.5,4.37,4.76,11.3,4.45,17.19-1A28.77,28.77,0,0,0,62.8,114.23c2.23.87,4.85,2,5.38,5,1.34,7.34,4.43,13.71,10.08,18.73.12.12-.11.63-.27,1.44a130.69,130.69,0,0,1-25,.92c5.73-8.13,3-16.61-5.93-19.71-4.44-1.54-5.4-.79-5.83,3.76-.64,6.47,2.46,11.19,6.75,15.7-11.22-.41-19.13-6.08-25-15.14l-3,.67c5.8,8.62,10.24,17.75,22.46,17.76a61.85,61.85,0,0,1,9.07,1c1.86.28,3.88,1.92,2,3.24-3.42,2.36-7.54,3.77-11.47,5.31-2.69,1.06-3.08-2.09-4.7-3a7.45,7.45,0,0,0-2.87-.84c-5.57-.55-10.36.68-13.37,6.12,2.57,4.24,7.54,2.9,11.47,4.58-1.73,4.56-2.48,8.94-.36,13.41s5.21,7.66,11.2,7.62c-4,3.2-3.67,5.79-.85,8.62,1.2,1.2,1.62,2.92,0,4.77-2.86-1.25-5.79-2.46-8.65-3.81-3.79-1.8-4.72,0-5,3.47-.21,3.05,1.19,5.84,1.3,8.86C13.74,202,13.74,202,9.89,206.35c4.65,7.5,6.24,8.41,19.93,11.3-.32,2-1.24,4.11-.79,5.9s.22,3.89.79,5.64c7,.53,9.9-2.77,11.78-13.75,3.62.51,7.28,1.49,10.92,1.43,4.33-.07,7.66,1.55,11.17,3.83a90.07,90.07,0,0,0,27.72,11.93c12.14,3,24.35,5.75,36.7,7.8,1.69.27,4,.26,4.12,2.24.42,5.61,3.42,10.12,5.62,15,4.12,9.15,1.83,18.73,1.07,28.05-1.2,14.7-4.09,29.26-4.59,44-.18,5.17-2,6.65-6.93,6.77-24.63.64-49.28.13-73.87,1.9-5.64.39-11.35.59-17,2.6a6,6,0,0,0,5,2.77c11.86.52,23.75,1.71,35.55,1.85,56.21.7,112.45,2.33,168.62-1.35,6.79-.44,13.91,1.12,20.23-2.84-.47-1.27-1.53-1.32-2.54-1.41-7.09-.61-14.17-1.36-21.27-1.8-22.23-1.38-44.49-1.48-66.75-1.37-4.66,0-5.77-1.63-5.58-6,.48-10.51,1.7-21,.41-31.55-2.31-18.83-5.55-37.55-5.77-56.6a39.16,39.16,0,0,0-1-6c-1.5-8.32,3.33-17.88,11.28-20.61,4.39-1.51,8.92-3.13,13.82-3.06,4.29.08,8,.27,11.69,3.48,3.37,3,8.09,4,12.89,3.84,2.48-.07,4.86-1.59,7.36-.63,1.54,9.06,4.32,12.54,11.32,14.32,4.19,1.07,5.26-.05,4.56-4.22-.92-5.56-5-8.66-9.15-11.77,4.84-4,4.84-4,7.06-3.53,8.86,2,18.4-4.38,20.06-13.64a51.42,51.42,0,0,0-5.15-1.65c-9.84-2.11-18.72,5.09-17.7,14.47-2.65-.32-5.21-.88-7.84.55-7.5,4.07-16.82,1.69-22.37-5.5,1.35-2.94,5-3.21,6.74-5.9a12.07,12.07,0,0,1,11.45-6,19.16,19.16,0,0,0,15.32-6.46c7.51-8.62,7.22-8.87,17.55-4.83,1.1.43,2.16.94,3.23,1.43,7.92,3.61,15.79,4.92,23.81,0-1.45-2.76-3.32-1.5-5-1.18a29.09,29.09,0,0,1-25.13-6.58c-2.62-2.17-2.48-4.09.13-5.38,4.23-2.1,7-5.78,10.64-8.52s7.33-6.53,13.09-5c-1.55,9,5.68,10.66,11.65,13.79-4.45,4-5.19,8.05-.26,11.81-3.33,3.2-4.19,6.1-2.57,8.06,1.73,2.11,10.06,3.85,11.93,2.45,1.46-1.09.91-2.09.08-3.44-1.67-2.73-4.47-4.44-6.6-7.2C290.37,183.61,293.25,181.59,295.54,178.93ZM145.83,31a3.49,3.49,0,0,1,.28.68c0,.07-.11.16-.22.24l-.08.07h0c0-.06-.05-.11-.07-.16a2.27,2.27,0,0,1-.2-.5C145.51,31.23,145.71,31.1,145.83,31Zm5,56.7a2.66,2.66,0,0,1-3.73-.36c-5-4.36-10.93-7.18-16.88-9.89-2.51-1.14-3.83-2.38-2.43-5.41,2.06-4.45-.81-8.63-1.65-12.8a42.17,42.17,0,0,0-2.23-8.17c3.67-3.24,9.18-4.42,10.52-10.61,3.46,3,5.25,6.59,9.29,7.4,1.41.29,1.42,1.88,1,3-2.69,6.82,1.51,12.43,3.17,18.49S151.05,81.59,150.8,87.68ZM68.72,102c0,.83,0,1.65,0,2.47l0,.69c0,.23,0,.44-.07.65a8.33,8.33,0,0,1-.25,1.19,6,6,0,0,1-.92,1.87,1.08,1.08,0,0,1-.24.28.17.17,0,0,1-.07.08,3.31,3.31,0,0,1-.93.73h0a4.11,4.11,0,0,1-1.1.39,4,4,0,0,1-1.16.06l-.7-.09a5.68,5.68,0,0,1-.62-.16A9.07,9.07,0,0,1,60.23,109c-2.33-1.53-4.89-2.9-6.63-5.35-1.21-1.68-2.47-3.76-5.24-3.21-1.24.24-1.85-.71-2.14-1.72-.35-1.27.6-2,1.55-2.24C53.05,95.17,54.08,91,54.44,85c4,4.91,8.46,6.07,14.26,4.66C68.7,94.28,68.75,98.18,68.72,102Zm-24.84,79c-.11-.11-.34-.25-.32-.33a3,3,0,0,1,.32-.68l.36.36Zm90.85,47.53a4.14,4.14,0,0,1-4.43,2.7,43.7,43.7,0,0,1-14.72-4c-7.13-3.61-6.13-11-6.69-17.22-.43-4.68,0-10-4.82-11.92-5-2-7.07-6.91-12.53-9,3.86-2,7.69-2.69,7.57-7.31-.14-5-2.39-8.62-6.72-11.52-5.2,4.64-4.29,10.2-2.89,15.55-1.26,2-4.21-.39-4.8,2.71-.25,2.42,4.69,1.43,3.62,4.69,7.4.4,11.16,5.73,14.47,11.25a14,14,0,0,1,1.8,9.28c-.67,4.86-.66,9.83,4.57,13.81-14.32,2.94-26.19-2.41-37.24-7.71-12.79-6.12-18.44-19.5-25.93-31.28,1.25-.51,1.92-1.06,2.41-.93,4.88,1.3,7.58-1.36,8.81-5.42,1.28-4.3,1.17-8.77-2-12.47-1.3-1.52-3.35-1.63-4.34.09-1.2,2.09-3.49,2.53-5.29,4.82-2.5-6.13-5-11.92-12.38-13.59,1.18-4.59,4.67-5.54,8.23-5.95,9-1,17.73-2.71,24.61-9.25a6.15,6.15,0,0,1,4.55-1.72c15.09-.19,23.36,11.41,34,19.48-5.87-1.37-11.42-.17-17.3,1.19,2.71-7.84-2.74-14.36-10.45-13.83-1.6,6.81.65,8.75,5.14,13.77,4.25,4.74,7.74,3.16,12.39,2.8,13.62-1,18.36,2.94,21.86,16.26,1.93,7.32,8,12.24,11.64,18.62a30.31,30.31,0,0,0,3.65,4.81C139,215.62,139.38,218.48,134.73,228.44ZM90,187.54c-.08.09-.26.18-.35.14-.46-.23-.43-.47,0-.62.09,0,.22.11.33.17S90.08,187.48,90,187.54ZM68.43,81.09l-.64,0h0l.69.58C68.47,81.5,68.44,81.3,68.43,81.09Z"></path><path class="cls-3" d="M296.45,110.89a37.93,37.93,0,0,1-4.62,6.62c-6.85,7.84-13.41,7.32-18.71-1.34-6.73,1.79-9,1.08-10-3.15-1.26-5.37,3.06-14.42,7.34-15.31,1.51-.32,2.43.22,3.09,1.81A27.29,27.29,0,0,1,275.69,110c6.05-2.33,11.14-5.1,17.07-5C297.49,105.14,298.7,106.83,296.45,110.89Z"></path><path class="cls-3" d="M303.88,160.9c-3,4-9.25,6.16-13.45,4.56-3.64-1.38-5.69-3.66-3.3-7.73.68-1.17,1.19-2.21.53-3.76-2.5-5.91-1.37-8.63,4.74-10.61,2.53-.82,6.08-3.42,7.85-.65s-.43,5.87-3.24,8c-1.41,1.09-2.27,2.85-3.44,4.37C296.42,158,301.55,157.07,303.88,160.9Z"></path><path class="cls-3" d="M16.71,118.32c-2.32,2-5.13,1.48-7.46-.39-6.88-5.51-9-12.63-6.93-21.1,6.2-.31,13.51,5.18,15.38,11.54.28,1,.16,2.17.7,2.92C20.54,114.35,18.68,116.6,16.71,118.32Z"></path><path class="cls-3" d="M75.66,61.54c-2,2-4.89,1.5-7.17.73-6-2-12.34-10.64-10.21-17.15,8-2.27,15.68,2.72,19,10.49C78.37,58.08,77.19,60,75.66,61.54Z"></path><path class="cls-3" d="M221.66,44.3c-1.19,3.34-4.12,4.56-7.76,4.12-3.39-.41-5-2.16-5.51-5.47-1.22-7.38,4-10.9,8.61-14.72a48.82,48.82,0,0,1,5.53-3.35C223.45,31.91,223.81,38.23,221.66,44.3Z"></path><path class="cls-3" d="M22.93,124.8H23a.28.28,0,0,0,0,.09Z"></path><path class="cls-3" d="M23,124.79a19.56,19.56,0,0,1,.87-11.41c1.08-2.64,2.55-5.3,5.26-5s2.49,3.67,2.67,5.88C32.33,120.78,29.26,124.3,23,124.79Z"></path><path class="cls-3" d="M16.87,125.1a5.27,5.27,0,0,1-4.77,4.57c-4,.51-8.09,1-12.1-1.77,2-4.59,7.9-7.94,12.27-6.77C14.29,121.68,17.05,122.62,16.87,125.1Z"></path><polygon class="cls-3" points="269.82 124.78 269.82 124.84 269.75 124.84 269.82 124.78"></polygon><path class="cls-3" d="M283.39,131.31c-8.92,4.29-13.12,2.2-13.57-6.47C275.33,124.88,280.8,125,283.39,131.31Z"></path><path class="cls-4" d="M558.07,429.27a3.77,3.77,0,0,0,.9.12A3.32,3.32,0,0,1,558.07,429.27Z"></path><path class="cls-4" d="M603.79,398.32c.2.62.39,1.25.59,1.88-.21-.63-.4-1.26-.6-1.88,0-.13-.08-.27-.13-.4A3.73,3.73,0,0,1,603.79,398.32Z"></path><path class="cls-4" d="M421,426.08a6,6,0,0,1,0,.95C421,426.72,421,426.4,421,426.08Z"></path><path class="cls-4" d="M420.93,424.87c0,.37,0,.78,0,1.21,0-.17,0-.33,0-.51s0-.2,0-.3,0-.28,0-.4c0-1.3.05-2.58.06-3.88C421,422.29,421,423.58,420.93,424.87Z"></path><path class="cls-4" d="M374,407.41c0,5.25,0,10.5,0,15.76C374,417.91,374,412.66,374,407.41Z"></path><path class="cls-4" d="M273.65,408a2.46,2.46,0,0,0,.51-.51A2.24,2.24,0,0,1,273.65,408Z"></path><path class="cls-4" d="M448.76,412.85c.08,1,.16,2,.26,3l-.27-3c0-.37.05-.76.08-1.14C448.81,412.09,448.79,412.48,448.76,412.85Z"></path><path class="cls-4" d="M455.62,402.88a5.71,5.71,0,0,1,.92-1.71A6.47,6.47,0,0,0,455.62,402.88Z"></path><path class="cls-4" d="M640.16,398.22a2.7,2.7,0,0,0-.61-1A2.46,2.46,0,0,1,640.16,398.22Z"></path><path class="cls-4" d="M640.12,415.41c0,1.22-.12,2.44-.17,3.64C640,417.85,640.07,416.63,640.12,415.41Z"></path><path class="cls-4" d="M640.12,410.21a30.76,30.76,0,0,1,.07,3.19C640.21,412.32,640.2,411.26,640.12,410.21Z"></path><path class="cls-4" d="M1240.72,406.28c.06-.42.13-.85.22-1.27-.08.42-.15.85-.21,1.27a30.22,30.22,0,0,0-.28,3.91A28.58,28.58,0,0,1,1240.72,406.28Z"></path><path class="cls-4" d="M896.08,396.83a1.62,1.62,0,0,0-.34-.55A1.45,1.45,0,0,1,896.08,396.83Z"></path><path class="cls-4" d="M895.81,399.12a3.93,3.93,0,0,0,.33-2.08A3.77,3.77,0,0,1,895.81,399.12Z"></path><path class="cls-4" d="M303.29,398a2,2,0,0,0,0-.35,1.69,1.69,0,0,0,0-.23.82.82,0,0,1,0,.23A2,2,0,0,1,303.29,398Z"></path><polygon class="cls-1" points="315.72 414.46 315.69 414.51 315.71 414.46 315.72 414.46"></polygon><path class="cls-4" d="M243,425.69c0-1.09,0-2.19,0-3.29,0,1.1,0,2.19,0,3.29,0,.35,0,.71,0,1.06C243,426.4,243,426,243,425.69Z"></path><path class="cls-4" d="M146.53,400.49v21.28l0,1.75c0-.59,0-1.17,0-1.75C146.53,414.7,146.53,407.62,146.53,400.49Z"></path><path class="cls-4" d="M863.56,403.45c0-1.58,0-3.16,0-4.75a4.72,4.72,0,0,0-.43-2.22,4.6,4.6,0,0,1,.44,2.22C863.56,400.28,863.56,401.87,863.56,403.45Z"></path><path class="cls-4" d="M1287.34,426.09l-.15.3c0-.1.09-.2.14-.3Z"></path><path class="cls-4" d="M333.15,398.69a1.39,1.39,0,0,1,0,.35,1.16,1.16,0,0,1,0,.18.64.64,0,0,1-.06.18l-.11.24a3.74,3.74,0,0,1-.42.74l-.17.24c-.07-1.18-.13-2.37-.2-3.56h0a4,4,0,0,1,.59.53,1.47,1.47,0,0,0,.1.13l0,.06a.86.86,0,0,1,.1.16.61.61,0,0,1,.09.18.88.88,0,0,1,0,.15,1.24,1.24,0,0,1,0,.16A2.11,2.11,0,0,1,333.15,398.69Z"></path><path class="cls-1" d="M68.43,81.09l-.64,0h0l.69.58C68.47,81.5,68.44,81.3,68.43,81.09Z"></path><path class="cls-1" d="M81,178.27h0a7.08,7.08,0,0,1,.88,1A7,7,0,0,0,81,178.27Zm7.21,14.84s0,0,0,.06a.06.06,0,0,0,0,0Zm0,.06h0c.06.28.11.56.16.82C88.36,193.73,88.3,193.45,88.25,193.17Z"></path><path class="cls-1" d="M65.05,110.31a4.11,4.11,0,0,0,1.1-.39A3.35,3.35,0,0,1,65.05,110.31Z"></path><path class="cls-1" d="M66.17,109.91a3.62,3.62,0,0,0,.93-.73A3.31,3.31,0,0,1,66.17,109.91Z"></path><path class="cls-1" d="M67.41,108.82a6,6,0,0,0,.92-1.87A5.54,5.54,0,0,1,67.41,108.82Z"></path><path class="cls-1" d="M68.72,102c0,.83,0,1.65,0,2.47a11,11,0,0,1-.11,1.34c0-.42.09-.87.1-1.34C68.7,103.6,68.71,102.78,68.72,102Z"></path><path class="cls-1" d="M90.05,187.23c0,.11,0,.26,0,.31a.42.42,0,0,1-.34.14c-.46-.23-.44-.47,0-.62C89.81,187,89.94,187.17,90.05,187.23Z"></path><path class="cls-1" d="M44.24,180.26l-.36.65c-.11-.11-.34-.25-.32-.33a3.3,3.3,0,0,1,.32-.69Z"></path><path class="cls-1" d="M145.83,31a3,3,0,0,1,.28.68c0,.09-.19.21-.3.32a2.91,2.91,0,0,1-.28-.66C145.51,31.23,145.71,31.1,145.83,31Z"></path><path class="cls-5" d="M1059,71.15c0,12.91,0,25.81,0,38.72v47.59a85.88,85.88,0,0,1-17.51.28c-3.2-.23-5-3.28-6.47-5.75-8.5-14.14-18.8-27-28.24-40.48-2.73-3.93-5.49-7.85-8.36-12-2,1.52-1.4,3.47-1.41,5.16,0,16.14-.13,32.28,0,48.41,0,3.45-.8,5-4.54,4.74-4.72-.29-9.47-.07-14.53-.07V66.85c6,0,11.89-.1,17.76,0,3,.09,3.85,3,5.27,4.94q18,25.2,36,50.42c.26.34.82.48,2.16,1.24V66.82c6.25,0,11.61,0,17,0C1059,66.88,1059.05,69,1059,71.15Z"></path><path class="cls-5" d="M749.59,157.8a4.17,4.17,0,0,0-.5,0c-15.1.42-14.85.26-25.31-15.25-10-14.87-20.63-29.35-31.08-44.13a8.14,8.14,0,0,0-1,4.84c.06,16.48-.05,33,.16,49.43,0,4-1.05,5.48-5.15,5.15-4.39-.34-8.82-.08-13.68-.08V66.83c5.88,0,11.92,0,18,0,1.72,0,2.39,1.24,3.11,2.29C702.23,81,710.82,92.62,719,104.52c4.32,6.31,9,12.57,13.76,18.7l1.46-.44v-56c5.92,0,11,0,16.06,0C754,66.77,754,69.22,754,72c0,17,0,34,0,51,0,10-.15,20,.08,30.08C754.16,156.52,753.16,158.14,749.59,157.8Z"></path><path class="cls-5" d="M848.41,152.43c-13.64,8.27-28.81,10.43-43.73,5.67-13.43-4.28-23.91-13.26-29.14-27.26-6.63-17.76-3-42.15,12.81-55,18.44-15,50.39-16,67.21,5.1,2.1,2.65,2.63,4.59-1,6.23-1.35.62-2.53,1.64-3.86,2.34-7.83,4.06-7.84,4-14.61-1.59-8.62-7.19-22.83-7.24-31.83-.13-16.5,13.06-16.21,37,.62,49.91,8.34,6.42,24.86,6.17,32.73-.5,2.61-2.2,2.69-2.65,2.08-12.88-6.69,0-13.11-.18-19.5.07-3.32.13-4.47-.93-4.6-4.25-.54-12.92-.62-13,12.13-13.05,8.66-.07,17.33.11,26-.09,4-.09,5.86,1,5.63,5.46-.36,6.78-.88,13.7.09,20.35C860.91,142.66,855.49,148.12,848.41,152.43Z"></path><path class="cls-5" d="M473.77,152.41c0,4.07-.88,6.13-5.32,5.43a34.56,34.56,0,0,0-5.09-.07c-9.58,0-9.58,0-9.58-9.85V120.16H411.6v37.62c-5.84,0-11.38,0-16.91,0-2.34,0-2.58-1.59-2.58-3.5q.06-41.79,0-83.59c0-2.36.6-3.94,3.43-3.88,5.07.09,10.15,0,15.77,0v35.24h42.44c0-9.85.18-19.66-.08-29.45-.12-4.38,1.07-6.25,5.71-5.85,4.37.38,8.81.08,13,.08,1.69,1.77,1.25,3.72,1.26,5.53C473.7,99.05,473.62,125.74,473.77,152.41Z"></path><path class="cls-5" d="M957.67,141.37c-4.54-13.05-9.64-25.89-14.84-38.69-4.27-10.49-8.09-21.16-12-31.8-1-2.69-2.25-4.23-5.44-4.11-5.78.23-11.56.19-17.34,0-2.51-.07-4,1.15-4.52,3.18-2.29,8.77-6.36,16.82-9.65,25.19q-8.91,22.68-17.72,45.42c-2.08,5.43-3.82,11-6,17.18,5.62,0,10.37-.33,15.06.09,5,.46,7.14-1.33,7.91-6.34,1-6.89,4-9,10.94-9H925c11.93,0,11.86,0,16.23,11,.65,1.65.84,4.2,3.64,4.21h18.76C962.11,151.39,959.47,146.52,957.67,141.37Zm-55-16a279.93,279.93,0,0,1,15.1-39.06c4.55,12.77,9.11,25.54,13.93,39.06Z"></path><path class="cls-5" d="M655.94,151.18c-10.34-26.75-20.79-53.46-31.08-80.24-1.22-3.15-2.92-4.35-6.3-4.17a141.61,141.61,0,0,1-15.28,0c-3.3-.16-4.79,1.16-5.9,4.14-4.48,12-9.3,23.94-13.86,36-5.48,14.45-11.26,28.79-16.62,43.29-.85,2.33-2,4.49-2,7.59h9.87c11.07,0,11.27.05,14.19-10.63,1-3.66,2.74-4.69,6.3-4.63q15.28.28,30.56,0c4.1-.07,6.34.88,7.5,5.43.85,3.28.8,8.73,4.7,9.39,6.19,1.06,12.69.29,20.17.29C656.39,155.06,656.64,153,655.94,151.18Zm-41.76-25.47c-4.57.18-9.15,0-13.72.07-3,0-3.9-.89-2.77-4,4.19-11.47,8.15-23,12.2-34.52l1.84-.59,13.7,38C621.52,126.59,617.77,125.57,614.18,125.71Z"></path><path class="cls-5" d="M554.81,141v16c-1.35,1.21-2.77.8-4.08.81-16.14,0-32.29-.09-48.43.15-4.38.08-5.34-1.42-5.32-5.55q.27-39.76,0-79.53c0-4.49.93-6.59,5.91-6.07,4.33.45,8.75.09,13.9.09V92.62c0,14.44.16,28.88-.09,43.32-.07,4.18,1.37,5.22,5.26,5.11,9-.23,18-.07,27-.08Z"></path><rect class="cls-5" x="352.78" y="193.9" width="954.83" height="0.65"></rect><path class="cls-5" d="M1102.46,154.38c0,2.49-1.14,3.38-3.33,3.39-5.25,0-10.49,0-15.64,0-1-4.11-1.35-82.5-.39-91,5.32,0,10.38,0,15.44,0,2.8,0,3.91,1.37,3.9,4.06Q1102.41,112.63,1102.46,154.38Z"></path><path class="cls-3" d="M1267.08,120.62c-6.18-16.17-14.11-31.62-19.8-48-1.45-4.18-3.36-7.63-9.24-5.23.08,1.71-.76,3.5-1.54,5.33-4.73,11.21-9.5,22.41-14.17,33.64-6.47,15.53-12.81,31.1-19.34,46.61-.79,1.86-2.85,3.73.21,4.88,2.35.89,3.92-.48,4.84-3.08,2-5.7,4.41-11.26,6.67-16.88,1.09-2.69,2.65-4.48,6-4.46,14.25.13,28.52.12,42.79.07,2.36,0,3.54.7,4.39,3.12,2.06,5.86,4.53,11.58,7,17.3,2,4.55,3.77,5,7,2C1278.19,143.6,1271.64,132.54,1267.08,120.62ZM1219,127.89c.91-2.22,1.83-4.43,2.74-6.63q2.71-6.6,5.4-13.14t5.37-13q1.34-3.27,2.67-6.49,2.65-6.49,5.32-13h0l1.52-.4c.4.78.8,1.57,1.19,2.36l.65,1.34c.94,1.94,1.84,3.9,2.73,5.86,1,2.15,1.91,4.32,2.83,6.49.52,1.23,1,2.45,1.54,3.68l1,2.37c.32.79.64,1.57,1,2.37.65,1.59,1.29,3.17,1.92,4.76,1.33,3.32,2.66,6.67,4,10,.45,1.11.91,2.23,1.38,3.34s.93,2.23,1.4,3.35c.94,2.24,1.91,4.46,2.92,6.7Z"></path><path class="cls-3" d="M1177.6,154c-12.14,9.8-39.68,8.5-51.9-4.71-1.76-1.89-4.14-3.84-1.4-6.36,3-2.71,4.52.44,6.11,2.18,10.7,11.78,29.94,14,42.6,5.37,9.61-6.53,10.75-24-.33-30-8.64-4.69-18-6.87-27-10.2-4.91-1.8-10-3.43-13.79-7.1-11.27-10.85-6.45-30.92,8.65-36,14.72-5,28.25-2.6,40.4,7.17,1.88,1.52,2.1,2.12,2.39,5.89-2.55,1.16-4.06.18-5.63-1.39-9.1-9.09-20.23-10.84-32.24-8.27-10.21,2.19-17.1,13.77-13.65,23.32,1.69,4.68,6.31,7.27,10.62,9.57,6.58,3.51,14.23,3.64,21.12,6.4,6.47,2.59,12.55,5.29,17.54,10.59C1189.44,129.23,1186.62,146.73,1177.6,154Z"></path><path class="cls-5" d="M1137.71,266.14c0,2.52-.09,4.59-4.17,3.09V239.36l-1.14-.15c-3.2,9.22-6.48,18.42-9.55,27.69-.78,2.37-2,3.7-4.8,3.71l-10.36-29.92c-1.87,1-1.45,2.42-1.45,3.61,0,7.46,0,14.94,0,22.41,0,1.25.48,2.9-1.63,3.08-2.49.23-2.13-1.64-2.14-3.09,0-11.21,0-22.42-.09-33.62,0-2,.19-3.81,2.59-4.21s3.39,1.24,4,3.06c2.16,6.21,4,12.54,6.41,18.66,1.43,3.72,1.58,8,4.82,11.1,3.93-8.47,5.93-17.74,9.43-26.45.07-.16,0-.37.13-.49,1.72-2.25.5-7.22,5.22-6.6s2.51,4.88,2.58,7.41C1137.86,245.74,1137.65,255.94,1137.71,266.14Z"></path><path class="cls-5" d="M904,334.35c-3.11,1.39-4.56.62-5.93-2-4.31-8.27-8.92-16.39-13.47-24.53a13.3,13.3,0,0,0-2-2.2c-3,.71-2.4,3.08-2.41,5,0,6.78,0,13.58.07,20.36,0,3.42,0,3.42-4.27,4.49,0-12.42,0-24.82,0-37.2,0-1.84-.71-4.27,2.31-4.89s3.44,2.12,4.38,3.76c5,8.73,9.76,17.57,14.67,26.34.25.46,1.08.61,2.37,1.28,1.41-10.74-.86-20.91,1.33-30.84,0-.25.87-.33,2.3-.81C904.56,307.11,903.6,320.8,904,334.35Z"></path><path class="cls-5" d="M583.8,297.72c.07,12.22,0,24.44,0,36.77-3.26,1.21-5.06.05-6.55-2.74-4.19-7.86-8.57-15.6-12.86-23.4-1.19-2.16-2.36-4.34-4.81-6,0,6.07,0,11.67,0,17.28,0,4.24,0,8.5,0,12.74,0,1.27-.16,2.44-1.74,2.59-1.19.11-2.05-.44-2.06-1.68,0-13.17,0-26.34,0-39.09,3.76-1.66,4.94.13,6.09,2.15q7.21,12.69,14.47,25.33c.46.79.46,2.09,1.91,1.94.45.44.93.87,1.52.22s.25-1.15-.09-1.7c.07-8.14.13-16.28.25-24.42,0-1.59-.46-4,1.75-4.16C584.62,293.34,583.79,296.07,583.8,297.72Z"></path><path class="cls-5" d="M1213.42,269.14c-4,2-5.59-.52-7.06-3.2q-7.63-13.72-15.25-27.46l-1.53.42v24.68c0,1.2-.06,2.39,0,3.57.11,1.6-.34,2.67-2.15,2.65-1.63,0-1.84-1.14-1.85-2.42,0-12.06,0-24.11,0-36.16,0-1.33.26-2.73,2-3.11,2.23-.49,3.07,1.42,3.78,2.65q7.5,13,14.61,26.2a22.34,22.34,0,0,0,3.33,4.31c0-6.71,0-12.49,0-18.26,0-3.91,0-7.81.12-11.71,0-1.26-.06-3,1.84-3.07,2.35-.11,2.1,1.83,2.1,3.25C1213.44,244,1213.42,256.57,1213.42,269.14Z"></path><path class="cls-5" d="M982.66,269.18c-4,2.1-8.29.81-12.37.89-11.43.25-11.42.12-11.42-11.16,0-9,.07-18-.12-27,0-2.55.52-3.86,3.23-3.85,5.79,0,11.56,0,17.34,0,1.47,0,2.92.15,2.81,2s-1.81,1.68-3.11,1.69c-5.06,0-10.11,0-15.87,0,0,4.59.06,8.61,0,12.63,0,2.13,1.34,2.58,2.94,2.62,3.06.1,6.12.08,9.18,0,1.7,0,3.48-.4,4.66,2.87-5.52,1.58-11-.13-16.76,1.44v12.48c0,2.64,1.85,2.93,3.81,3,3.92,0,7.82,0,11.73,0C980.37,266.81,982.19,266.48,982.66,269.18Z"></path><path class="cls-5" d="M460.28,267.36c0,1.71-.42,3-2.32,3.29s-2.92-.57-3.85-2.38c-5-9.56-10.13-19-15.27-28.51a29.93,29.93,0,0,0-2.26-3.13l-1.3.84v32c-2.72.92-3.1-.56-3.1-2.48,0-11.71,0-23.42,0-35.13,0-1.5.08-3.14,2-3.68,2.19-.63,2.91,1.09,3.77,2.49,5.39,8.73,9.4,18.26,15.17,26.79.57.85.85,1.8,2.78,1.79,1.17-10.27-.75-20.69.91-30.8,2.86-.58,3.48.87,3.48,2.78C460.29,243.25,460.26,255.3,460.28,267.36Z"></path><path class="cls-5" d="M909.44,268.35c-1,1.82-2.42,1.91-4,1.89-5.43-.06-10.86-.17-16.27,0-2.87.08-3.91-.94-3.89-3.8.11-11.36.05-22.73.05-34.09,0-2.47.57-4.34,3.61-4.32q8.67.07,17.3,0c1.63,0,2.38.85,3.23,2.55-6.3,2.77-12.89,0-19.06,1.7-1.06,3.9-.48,7.8-.53,11.67,0,2.49,1.54,3.14,3.65,3.13,2.72,0,5.43,0,8.14,0,1.85,0,3.82-.35,4.74,1.89-.37,2-1.89,1.66-3.21,1.68-3.05,0-6.11.15-9.15,0s-4.31.9-4.27,4.08c.18,14.16-1.53,11.91,11.63,12.14C904.07,266.91,907.15,265.66,909.44,268.35Z"></path><path class="cls-5" d="M675.36,298.2c-2.82-4.4-6.89-5.79-11.49-5.64-4.84.16-9.19,1.79-11.36,6.83-3.91,9.09-4,18.36-1.11,27.63,1,3.33,3,6.53,6.61,7.76,11.29,3.74,19.29-1.58,20.42-13.48.22-2.19.31-4.39.43-6.18C678.61,309,678.7,303.37,675.36,298.2Zm-2.75,28.51c-1.26,4.51-4.79,5.89-9,5.72a8.91,8.91,0,0,1-8.81-8c-.25-3.48-.7-6.93-.94-9.2.22-3.91.37-6.62.49-9.32.24-5.13,2.93-9.21,8.63-9.3a12,12,0,0,1,1.21,0l.39,0c.29,0,.58,0,.84.07s.57.08.85.14a7.89,7.89,0,0,1,.87.21c.23.06.43.13.64.2l.11,0,.15.05c.3.12.57.24.84.38a5.7,5.7,0,0,1,.58.33,5.87,5.87,0,0,1,.58.39l.28.23a.35.35,0,0,1,.12.1,1.22,1.22,0,0,1,.27.24.9.9,0,0,1,.1.09,6.26,6.26,0,0,1,.5.53,5.7,5.7,0,0,1,.42.55,1.66,1.66,0,0,1,.22.32s0,0,0,0,0,0,0,.06a5.16,5.16,0,0,1,.29.46.5.5,0,0,1,.08.14,5.8,5.8,0,0,1,.33.66,2.57,2.57,0,0,1,.2.45s0,0,0,0a4,4,0,0,1,.21.52c.09.24.17.48.25.72s.07.24.11.37.14.5.2.76C675.54,312.16,674.63,319.47,672.61,326.71Z"></path><path class="cls-5" d="M718.37,325.89c-.17,5.47-3.3,8.41-8.65,9.39a29.59,29.59,0,0,1-9.06,0c-4.82-.6-7-3.33-8.1-7.7-1.76-7.21-.86-14.51-1.06-21.78-.07-2.7,0-5.42,0-8.13,0-1.87-.24-4.21,2.4-4.17,2.48,0,1.87,2.39,1.88,4,.06,8.48-.08,17,.11,25.43.13,6.67,3.31,9.56,9.77,9.4,6.16-.16,8.83-2.82,8.92-9,.06-4.06,0-8.14,0-12.21,0-4.91,0-9.83,0-14.75,0-1.4.11-2.85,2-2.85s1.91,1.57,1.91,2.91C718.52,306.24,718.67,316.07,718.37,325.89Z"></path><path class="cls-5" d="M1051.11,236.68c-1.94-6.66-7.12-9-13.06-9-6.44,0-10.13,3-12.36,8.89-1.56,4.14-1,8.34-1.59,12.6.21,3.12.3,6.35.69,9.55.81,6.8,4,10.4,10.1,11.89,6,1.44,11.93-.66,14.89-6.29C1054.44,255.43,1053.79,245.91,1051.11,236.68ZM1047,261.19c-.93,3.61-6,7.43-9.77,7.27-3.35-.13-7.58-4.87-8.53-9.54a7.8,7.8,0,0,1-.19-1.51c0-2.72,0-5.43,0-8.15h-.38c.15-3.06.1-6.14.52-9.16a12,12,0,0,1,.42-2,9,9,0,0,1,.66-1.72,8,8,0,0,1,.91-1.46,4.78,4.78,0,0,1,.55-.63,4,4,0,0,1,.47-.45,1.68,1.68,0,0,1,.21-.18,2.69,2.69,0,0,1,.48-.37l.21-.14a.08.08,0,0,1,.07,0,2,2,0,0,1,.39-.25,1,1,0,0,1,.23-.12.3.3,0,0,1,.11-.06,4.83,4.83,0,0,1,.56-.27c.27-.11.54-.21.83-.3a7.94,7.94,0,0,1,.87-.24,6.92,6.92,0,0,1,.77-.14l.29,0a6.82,6.82,0,0,1,.79-.08h.2c.49,0,1,0,1.53,0a9,9,0,0,1,6.27,2.42l.1.11a.8.8,0,0,1,.15.17,5.34,5.34,0,0,1,.64.81,2.51,2.51,0,0,1,.2.29,8.47,8.47,0,0,1,.67,1.31l.12.31a8.27,8.27,0,0,1,.41,1.36c0,.22.1.46.14.7a12.36,12.36,0,0,1,.2,1.55c.19,2.68.34,5.34.34,8A50,50,0,0,1,1047,261.19Z"></path><path class="cls-5" d="M1174.43,269.68c-8.1.9-16,.39-24.16.29,0-13.16,0-25.7,0-38.22,0-1.89.45-3.57,2.64-3.61,6.45-.09,12.9,0,19.35,0,1.11,0,1.71.88,2.13,2.14-2.62,2.66-6,1.38-9,1.4-11.18.08-11.06,0-10.68,11.32.1,3.19,1.31,4.21,4.22,4.09,2.71-.1,5.43-.1,8.15-.08,1.65,0,3.49-.26,4.27,2.1-2.36,3-5.68,1.32-8.43,1.4-8.24.22-8.25,0-8.17,8.33a35.5,35.5,0,0,1,0,3.57c-.33,3.35,1.2,4.59,4.44,4.46,3.56-.16,7.13-.05,10.69-.07C1171.62,266.81,1173.44,266.41,1174.43,269.68Z"></path><path class="cls-5" d="M691.92,267.68c0,1.9-1.11,2.46-2,2.47-6.45.11-12.89.1-19.35.05-1.93,0-2.5-1.29-2.49-3.08,0-11.87,0-23.75.05-35.64,0-1.55.36-3.33,2.33-3.35,6.62-.1,13.24,0,19.85.08.61,0,1.19,1,2.42,2-6.81,3.07-13.5.39-20.15,2.05v13.74c5,2.78,11.57-1,16.48,2.2l-.27,2.06H672.88v15.85C679.05,268.16,685.82,265.37,691.92,267.68Z"></path><path class="cls-5" d="M639.87,323.81c0,6.05-3.69,10.38-9.87,11.47-9.64,1.69-15.58-1.31-17.14-8.78-.33-1.65-1.42-4.1,1.46-4.48,2.54-.35,2,2,2.34,3.61.87,4.4,5.43,7.28,10.35,6.61,5.66-.77,9.13-4.09,8.87-8.51-.22-3.85-4.83-7.89-9.38-8.13-10.64-.53-14.6-7.06-13.56-13.58s7.67-10.61,15.57-9.15c7.31,1.34,10.77,6.38,9.18,13.5-3.44-.07-2.89-3.25-3.77-5.1-1.92-4-7.77-6-12.86-4-3.89,1.53-5.73,6.62-3.57,10.77,2,3.76,5.92,4.09,9.5,4.37C634.34,313,639.84,317.63,639.87,323.81Z"></path><path class="cls-5" d="M779.85,239.47a14.7,14.7,0,0,0-12.8-12.62c-4.74-.64-10,3.14-13,8.54-2.52,4.48-1.57,9.22-2.17,13.81.2,3.27.17,6.51.6,9.69,1,7.41,6.31,12,13.54,12.1,7.4.06,12.7-4,13.7-10.78A69.65,69.65,0,0,0,779.85,239.47Zm-4.74,21.8c-1.53,4.84-5.28,6.85-10.15,6.23a9.64,9.64,0,0,1-8.39-8.47c-.31-3.19-.34-6.41-.52-9.94.92-3.91-.42-8.22,1.84-12.54,2.38-4.57,5.7-5,10-5a7.31,7.31,0,0,1,7.51,6.2C777.08,245.54,777.55,253.53,775.11,261.27Z"></path><path class="cls-5" d="M499.72,259.37c-.49,6.28-4,9.94-10.58,10.78-5.27.67-10.37.62-14.47-3.8a8,8,0,0,1-2.05-7c.11-1,.05-2.08,1.57-2.08s1.42,1,1.64,2c1.45,6.71,6.92,10,13.3,7.85,3.82-1.28,6.28-3.68,6.23-8.19s-2.69-6.61-6.61-7.66c-1.63-.44-3.3-.71-4.95-1.06-8.54-1.81-11.88-5.73-11-12.92.75-6.24,5.69-9.74,13.6-9.63,7.66.1,12.49,4.69,12.17,11.6-.07,1.25.38,2.89-1.83,2.85-1.84,0-1.44-1.43-1.68-2.53-1.48-6.77-3.34-8.26-10-8-5.43.17-8.16,2.39-8.33,6.77-.21,5,2.79,8.44,8.14,8.79a29.66,29.66,0,0,1,5.42.81C496.52,249.51,500.14,253.86,499.72,259.37Z"></path><path class="cls-5" d="M872,239.24a13.06,13.06,0,0,0-11.25-10.87,46,46,0,0,0-15.33.17v41a41.36,41.36,0,0,0,16.66,0,11.31,11.31,0,0,0,8.81-7.24C873.94,254.63,873.34,246.86,872,239.24Zm-3.17,14.08a20.77,20.77,0,0,1-.32,3c0,.14,0,.29-.08.43s-.1.51-.17.76a16.15,16.15,0,0,1-.61,1.86c-.06.15-.13.3-.2.44a5.08,5.08,0,0,1-.44.87l-.3.52c-.16.25-.34.5-.52.74s-.37.48-.57.71-.44.48-.68.72a7.68,7.68,0,0,1-.59.55l-.4.33c-.2.16-.4.32-.62.48a3.37,3.37,0,0,1-.46.31l-.39.26c-.2.13-.39.24-.6.35a6.85,6.85,0,0,1-.71.37c-.24.12-.49.24-.73.34l-.64.25a12,12,0,0,1-1.52.46l-.3.07h-.05a6.19,6.19,0,0,1-.62.13,1.88,1.88,0,0,1-.33.05,5.71,5.71,0,0,1-.71.08,10.25,10.25,0,0,1-1.66,0l-.59-.05-.56-.06a3.86,3.86,0,0,1-.57-.12,3.57,3.57,0,0,1-.47-.11s0,0,0,0a4.77,4.77,0,0,1-.54-.15c-2-.66-2.36-2.15-2.34-4,0-4.57,0-9.15,0-13.73h0c0-4.57.15-9.16,0-13.72-.12-3,1.19-3.73,3.9-3.83,10.63-.42,15.31,3.88,15.35,14.65,0,2.08.15,4.17.11,6.26C868.85,252.85,868.84,253.09,868.83,253.32Z"></path><path class="cls-5" d="M1021.37,318c1.4-1.3,2.81-2.76,4.38-4,4.58-3.69,3.28-8.65,2.38-13.11-1-4.79-5-7-9.62-7.48-2.86-.3-5.79.17-8.63-.18-4.39-.52-6,.91-5.9,5.52.29,8.63-.15,17.29,0,25.92.08,3.64-.67,7.38.6,11.08,5.12-.62,3.39-4.39,3.69-7.15.36-3.29-.65-6.7.74-10,4.56-.17,9.66-1.85,11.09,4.58,1,4.52,3.76,8.26,4.94,13,1.52-.94,3.54-1,2.44-3.54C1025.54,328.11,1023.65,323.47,1021.37,318Zm-1.7-4c-2.71.75-5.36.57-8,.7a4.86,4.86,0,0,1-.54,0h-.21a2.92,2.92,0,0,1-.54-.08l-.2-.05-.36-.13-.17-.08a.44.44,0,0,1-.15-.1,1.39,1.39,0,0,1-.27-.21,1,1,0,0,1-.21-.21,2.1,2.1,0,0,1-.22-.33,1.79,1.79,0,0,1-.16-.31v0a3.05,3.05,0,0,1-.16-.58c0-.11,0-.22,0-.33a5.56,5.56,0,0,1,0-.93c0-.94,0-1.88,0-2.82,0-3.62,0-7.26,0-11a23.09,23.09,0,0,1,10.89-.12c4,1,5.64,3.83,5.55,8C1024.7,309.3,1024.4,312.68,1019.67,314Z"></path><path class="cls-5" d="M1084.25,229.42c-5.73-2.66-11.63-.78-17.92-1.46v42.36a3.2,3.2,0,0,0,3.53-1.06c.18-5.05.16-10.09.16-16,4.21,0,7.42.19,10.59-.05,5.9-.44,9.08-4,10.08-10.77C1091.56,236.5,1089,231.64,1084.25,229.42Zm1.49,16.2c-3.52,5.32-9.29,4.36-15.24,3.66V232.09c5.39-.17,11-2,14.86,3.42A8.93,8.93,0,0,1,1085.74,245.62Z"></path><path class="cls-5" d="M1085.45,325.65c-1.08,6.8-5.93,10.3-14,10.05-7.13-.22-11.08-4.15-12.47-10.68a55.1,55.1,0,0,1,.12-22.12,13,13,0,0,1,14.25-10.41c7.48.71,11.88,5.4,11.78,12.5,0,1.4.2,2.93-1.79,2.9-1.51,0-2-1-2.26-2.55-1.22-6.57-3.86-8.87-9.52-8.69-5.43.18-8.11,3-9,9.53-.34,2.68-.43,5.4-.68,8.92.34,2.74.55,6.31,1.26,9.78,1,4.92,4.51,7.67,9.41,7.43,4.72-.24,8.18-2.26,8.33-7.61.06-1.83.81-3.17,2.6-3C1085.83,322,1085.74,323.87,1085.45,325.65Z"></path><path class="cls-5" d="M957.26,323.82c-2.23-9.34-6.16-18.22-7.7-27.77-.27-1.64-1.32-3.49-3.11-3.59-2-.11-3.48,1.18-4.66,3.09s-.48,3.9-1.11,5.83c-2.44,7.35-4.93,14.7-6.62,22.23-.89,3.93-3.38,7.68-2.51,12.22,2.69-.19,4.09-1.05,4.37-3.79s.78-6.17,3.63-7.26c3.81-1.46,8.09-.76,12-.08,3.27.56,2.8,4.29,3.54,6.73.79,2.63,1.57,4.5,4.77,3C960.12,330.6,958.1,327.35,957.26,323.82Zm-17.81-3.54c.1-.44.21-.88.31-1.32.17-.8.33-1.61.5-2.4l.33-1.66.33-1.67q.33-1.65.69-3.3c.16-.7.32-1.41.49-2.11l.27-1.05c.1-.4.21-.79.33-1.19s.23-.79.35-1.18.26-.78.39-1.17c.29-.85.59-1.67.95-2.5.16-.4.33-.81.52-1.2l.16.15.13.13a2.57,2.57,0,0,1,.29.35l.2.28a3.53,3.53,0,0,1,.21.32c.12.19.24.4.37.62s.24.47.36.74l.33.7.4.94.19.51c.07.17.14.35.2.53.35.93.7,1.95,1,3.07.08.22.15.45.22.68.13.46.27.94.42,1.43l.46,1.65c.08.32.17.64.25,1,.4,1.51.79,3.13,1.16,4.84l.22.94c.13.6.25,1.2.39,1.8C948,321,944,320.73,939.45,320.28Z"></path><path class="cls-5" d="M860.26,315.22c4-3.43,4.78-8.4,3.14-13.49-1.5-4.64-4.49-7.83-9.52-8.27-3.72-.33-7.48,0-11.21-.17-2.18-.07-3.14.9-3.14,3q0,18.11,0,36.2c0,1.16-.19,2.47,1.62,2.56,2,.09,2.1-1.17,2.09-2.64,0-4.39,0-8.77,0-13.93,3,0,5.19-.07,7.38,0,1.47.06,2.86,0,3.51,2,1.53,4.83,3.43,9.54,5.2,14.29a8.15,8.15,0,0,0,.93,1.29l3-1.83c-1.47-4-2.7-7.93-4.4-11.68C857.46,319.6,857.38,317.71,860.26,315.22Zm-10-.49c-1.26,0-2.3.07-3.14,0h-.43c-.3,0-.56,0-.81-.06l-.48-.08-.27-.07a1.51,1.51,0,0,1-.34-.11l-.3-.14,0,0a1.7,1.7,0,0,1-.34-.26,1.42,1.42,0,0,1-.29-.35,2,2,0,0,1-.17-.29,2.32,2.32,0,0,1-.13-.37,1.15,1.15,0,0,1-.06-.17,7.46,7.46,0,0,1-.22-1.52c0-.37,0-.76,0-1.2,0-.21,0-.45,0-.68,0-.48,0-1,0-1.56q0-4.59.09-9.18a9.37,9.37,0,0,1,.57-1.8c2.23,0,4.41-.05,6.6,0,7,.18,9.1,2.22,9.12,8.68S857.12,314.5,850.3,314.73Z"></path><path class="cls-5" d="M812.58,251.52c4.9-3.87,6.39-9.36,4.44-15.46a10.86,10.86,0,0,0-9.62-7.89c-3.69-.43-7.48-.06-11.21-.17-2.44-.06-3.41,1.22-3.41,3.41,0,11.9,0,23.79,0,35.68,0,2.67,1.24,3.14,3.57,2.4.85-5.28-.52-10.58.92-15.79,1.19-.13,2.18-.27,3.18-.37,4.66-.47,7.88-.07,8.41,6.22.29,3.48,1.83,8,7.28,9.92-1.42-4-2.63-8.11-4.33-12C810.78,255.13,809.77,253.74,812.58,251.52Zm-10.28-1.73c-7.84.22-5-5.2-5.2-7.7,0-10.36,0-10.36,5.74-10.33,7.58,0,10.44,2.48,10.49,9S810.44,249.56,802.3,249.79Z"></path><path class="cls-5" d="M1123.54,333.18c-1.75-8.85-4.76-17.34-7.34-25.93-1.18-3.95-1.91-8-3.22-11.9-.61-1.77-1.62-3.18-4-3.22-2.49,0-2.48,1.7-2.94,3.29-3.47,11.89-7,23.77-10.38,35.68-.41,1.44-1.43,3.18.09,4.65,4.42-.53,3.88-4.53,4.86-7.15.79-2.12,1.59-3.61,3.77-4.13,8.57-2.05,12.2.06,15,8.57a25.92,25.92,0,0,0,2.2,3.78C1121.85,334.83,1124,335.73,1123.54,333.18Zm-21.27-13c.13-.31.26-.61.38-.92s.18-.47.26-.7c.2-.51.38-1,.53-1.53.25-.77.46-1.53.67-2.32.28-1,.54-2.09.82-3.14.14-.52.29-1.05.43-1.58.08-.32.17-.63.26-.95s.22-.73.34-1.1a1,1,0,0,1,0-.16c.1-.32.2-.64.32-.94s.15-.43.23-.64a28.1,28.1,0,0,1,1.36-3.12,4.92,4.92,0,0,1,.24-.45c.24-.43.49-.87.77-1.3s.42-.65.64-1a102.89,102.89,0,0,1,6.11,20A48.56,48.56,0,0,1,1102.27,320.15Z"></path><path class="cls-5" d="M621.76,232.17c0,9.17.14,18.34-.08,27.51-.18,7.42-4.08,10.85-12.17,11.27s-14.06-3.22-14.42-10.14c-.55-10.46-.14-21-.14-31.78,3.61-.16,3.76,1.75,3.73,4-.06,8.15-.13,16.3,0,24.45.14,6.86,3.55,10.18,10,10.11,6.24-.06,9.23-3.23,9.36-10.53.16-8.32,0-16.64,0-25,0-1.55-.79-3.86,1.82-3.85S621.75,230.63,621.76,232.17Z"></path><path class="cls-5" d="M828.7,334.58H804.59c0-5.52,0-11.36,0-17.22,0-6.44.1-12.9,0-19.34,0-3.23.71-5,4.58-4.78,4.91.35,9.86.07,14.78.07,2,0,3.91.07,3.38,3.6H808.83a73.14,73.14,0,0,0-.23,14.18c5.35,2.48,11.51-1.27,17.11,2.85-4.12,2.46-7.91,1.58-11.4,1.42-4.34-.2-6.16,1-6,5.63.48,12.52-1.71,10.36,10.92,10.79C822.24,331.88,826,329.9,828.7,334.58Z"></path><path class="cls-5" d="M947.61,230.94c-4.59,11.61-7.26,23.78-10.53,35.76-.59,2.14-1.58,3.53-3.83,4-2.68.57-3.06-1.58-3.76-3.14-3.68-8.12-4.47-17-7.22-25.44-1.36-4.13-2.6-8.29-4-12.69,6.81-.11,6.28,5.85,6.87,9.15,1.58,8.81,6.28,16.61,6.87,25.79,3.58-1.12,3.16-4,3.55-6,1.74-8.7,5.53-16.87,6.51-25.76a8.16,8.16,0,0,1,1.54-3.61,2.63,2.63,0,0,1,3.25-.73C948.08,228.86,948,230,947.61,230.94Z"></path><path class="cls-5" d="M975.81,297.43a74.45,74.45,0,0,0-.12,13.83c4.93,2.15,10.47-1.19,15.45,2.85-4,2.16-7.77,1.2-11.31,1.22-3.26,0-4.58,1.09-4.44,4.43.2,4.73.05,9.48.05,14.53-3.17,1.41-4.46.57-4.45-2.53,0-11.53,0-23.06,0-34.6,0-2.32.84-3.9,3.55-3.88,6.25.05,12.52,0,18.8,0-.27,3.6-.27,3.52-7.24,3.65C982.81,297,979.4,296.37,975.81,297.43Z"></path><path class="cls-5" d="M1015.55,269.76c-7,.82-14.1.25-21.36.25v-41.5c3.77-1.08,3.74,1.24,3.74,3.58,0,9.67.17,19.34-.09,29-.14,4.53,1.51,6.16,5.91,5.76,2.87-.26,5.77-.06,8.65-.05C1014,266.8,1015.59,266.78,1015.55,269.76Z"></path><path class="cls-5" d="M741.78,230c-.12,2.35-2.15,1.69-3.49,1.72-4.57.08-9.13,0-13.91,0-1.15,4.44-.51,8.65-.55,12.81,0,2.86,2.42,2.79,4.41,2.91,3.83.23,7.74-.5,12.26,1-2.77,3.29-5.81,2-8.39,2.07-8.34.13-8.34,0-8.34,8.09a74.45,74.45,0,0,0,.06,7.62c.29,2.83-1,3.91-4.22,4.24,0-8.5,0-16.89,0-25.29,0-4.4.1-8.81,0-13.21-.1-3.11,1.23-4.18,4.24-4.07,4.91.16,9.84,0,14.74.08C740,228.06,741.92,227.65,741.78,230Z"></path><path class="cls-5" d="M1249.08,229.62c-2.53,4.09-6.65,1-9.92,2.71-1,3.59-.38,7.65-.43,11.65-.11,7.47-.15,14.94,0,22.41.07,2.49-.9,3.6-4,4.32,0-10.86,0-21.18,0-31.49,0-8,.3-7.68-7.39-7.48a24.23,24.23,0,0,1-3.4-.37c-.94-2.86.48-3.33,2.76-3.34C1234.11,228,1241.47,227.83,1249.08,229.62Z"></path><path class="cls-5" d="M753.69,294.45c-2.89,4-7,1.26-10.6,3.44V328c0,1.36,0,2.72,0,4.07s.23,2.92-1.76,3-2.34-1.75-2.19-3.12c1.07-9.62.23-19.26.45-28.88.13-6-.94-7.15-6.6-5.89-2.91.65-3.85-.39-5.61-3.36A116.52,116.52,0,0,1,753.69,294.45Z"></path><path class="cls-5" d="M533.89,230c-1.83,2.56-4.23,1.83-6.3,1.7-3.81-.25-5.38.86-5.25,5.08.33,9.67,0,19.35.12,29,0,2.42-.4,4.22-3.73,5V231.89H509c-.43-1.75-1.37-3.69,1-3.74,7.45-.17,14.92,0,22.38.19C532.81,228.35,533.23,229.26,533.89,230Z"></path><path class="cls-5" d="M790.18,334.7c-1.54.2-2.06-.43-2.16-1.34-.15-1.35-.2-2.7-.25-4.06-.48-17.3,2.88-13.38-14.8-13.89-3-.08-4.34.94-4.18,4.14.23,4.23.06,8.48,0,12.74,0,1.35.12,2.79-2,2.63-1.77-.13-1.65-1.36-1.64-2.53,0-11.88,0-23.78.06-35.66,0-1.58.25-3.17,3.61-2.5,0,4.36.25,8.75-.07,13.12-.29,4.18,1.54,5.34,5.34,5.08a70.93,70.93,0,0,1,9.67-.05c3.17.2,4.29-1.17,4.2-4.14s-.07-6.11,0-9.16c0-1.57-.53-3.45,2.07-4.59C792.12,308.08,790.53,321.43,790.18,334.7Z"></path><path class="cls-5" d="M538.72,334.47c.65-13.65-.73-27,.82-40.36,0-.34,1.09-.56,1.67-.84,1.43,1.28,1.22,2.72,1.23,4.25,0,11.36.07,22.72.28,34.08C542.77,334.34,542.09,335.46,538.72,334.47Z"></path><path class="cls-5" d="M584.87,230.26c-2.73,3.1-6.51.46-10.08,2.16-1.3,1.32-.85,3.6-.86,5.72,0,9.16,0,18.32,0,27.48,0,1.57.64,4-1.77,4.08-3,.16-2-2.55-2-4.16-.09-11,0-22,0-32.84-3.89-2-7.61.62-10.37-2.07-.38-.36,0-1.52.06-2.27C574.52,227.1,582.39,227.68,584.87,230.26Z"></path><path class="cls-5" d="M657.57,230c-2.73,3.49-6.91.54-10.35,2.8v30.08c0,1.35,0,2.72,0,4.08s.26,2.88-1.85,2.85-1.72-1.69-1.73-2.93q0-13.28,0-26.52c0-9.77.41-8.48-8.45-8.59-.84,0-1.67-.1-3-.17,0-1.62-.82-3.4,1.4-3.41,7.46,0,14.93,0,22.4.15C656.46,228.32,656.89,229.23,657.57,230Z"></path><path class="cls-5" d="M548,269.27c-3.49,1.31-4-.17-4-2.72.08-11.37,0-22.73.06-34.11,0-1.45-.42-3.52,1.7-3.65,2.5-.16,2.19,2.09,2.2,3.69C548,244.7,548,256.91,548,269.27Z"></path><path class="cls-5" d="M418.32,228.78v40.83c-2.44.8-3.15-.37-3.14-2.73.06-11.56,0-23.11,0-34.66C415.21,230.5,415.3,228.74,418.32,228.78Z"></path><path class="cls-5" d="M1043.92,334.85c-2.76.16-1.79-2.38-1.8-3.81-.09-10.83-.07-21.67,0-32.5,0-1.51-.12-3.09,1.38-4.43,2.61.7,2.11,2.65,2.12,4.18q.09,16.26,0,32.52C1045.59,332.32,1046.33,334.7,1043.92,334.85Z"></path><path class="cls-1" d="M1264.53,127.89c-1-2.24-2-4.46-2.92-6.7C1262.55,123.42,1263.53,125.65,1264.53,127.89Z"></path><path class="cls-1" d="M579.77,323.83c-.59.65-1.07.22-1.52-.22l1.43-1.48C580,322.68,580.28,323.26,579.77,323.83Z"></path><path class="cls-1" d="M1048.46,248.64c0-2.67-.15-5.33-.34-8a12.36,12.36,0,0,0-.2-1.55,10.73,10.73,0,0,1,.21,1.55C1048.32,243.31,1048.46,246,1048.46,248.64Z"></path><path class="cls-1" d="M867.65,259.4a16.15,16.15,0,0,0,.61-1.86,13.89,13.89,0,0,1-.6,1.86,4.39,4.39,0,0,1-.21.44C867.52,259.7,867.59,259.55,867.65,259.4Z"></path><path class="cls-1" d="M843.25,310.13c0,.44,0,.83,0,1.2C843.27,311,843.26,310.57,843.25,310.13Z"></path><path class="cls-1" d="M844.51,314.29a1.75,1.75,0,0,1-.63-.61A1.84,1.84,0,0,0,844.51,314.29Z"></path><path class="cls-2" d="M796.86,425.14c-4.5.26-9.21,2.33-10.7-3.95-.45-1.89-.38-3.72,1.65-4.87s3.32.28,4.24,1.5C793.67,420,796.61,421.33,796.86,425.14Z"></path><path class="cls-2" d="M794.2,402.93c-.31,3.42-2.14,5.05-6.08,4.16.53-2.81-2.36-6.58,2.56-7.75C793.24,398.73,794.4,400.58,794.2,402.93Z"></path><path class="cls-2" d="M177.55,408.15c-1.09,4-4.22,3.84-7.27,3.81a4.28,4.28,0,0,1-.52,0c-.14,0-.27,0-.41-.06l-.41-.1-.19-.06-.17-.06a1,1,0,0,0-.18-.08h0l-.26-.16a2,2,0,0,1-.55-.53l-.18-.25a3.25,3.25,0,0,1-.22-.46,4.29,4.29,0,0,1-.17-.64,4.4,4.4,0,0,1-.09-.74,6.62,6.62,0,0,1,0-.77c0-.16,0-.35,0-.52s0-.36,0-.53c0-.36,0-.73,0-1.08,0-1.65,0-3.33,0-5.17C175.55,399.25,179.2,402.08,177.55,408.15Z"></path><path class="cls-2" d="M542.64,412.7c.72,2.51-.3,5.13-.43,7.8a5,5,0,0,1-3.74,4.81,6.4,6.4,0,0,1-7-1.68c-4-4.37-4.58-17.25-.87-22,1.72-2.19,4.19-2.71,6.83-2.33A5.24,5.24,0,0,1,542,404c.13.82.3,1.64.46,2.48.07.3.13.61.18.92a11.74,11.74,0,0,1,.18,1.21c0,.21,0,.43.06.65A10.08,10.08,0,0,1,542.64,412.7Z"></path><path class="cls-2" d="M1003.67,412.41c-.65,4.48.93,9.14-3.76,11.89-4.49,2.62-9,.62-9.75-4.57a52.58,52.58,0,0,1-.47-9.13c0-.61,0-1.23.09-1.86s.08-1.23.13-1.86.11-1.24.18-1.85c0-.28.07-.53.11-.77s.09-.37.14-.55a2.17,2.17,0,0,0,.07-.24c0-.1.07-.2.11-.31s.09-.22.13-.32a4.83,4.83,0,0,1,2.09-2.31,5.07,5.07,0,0,1,.57-.29c.13-.06.27-.13.41-.18l.51-.18.37-.11.53-.15.85-.17,1-.17c3.82-.59,5.12,2.31,5.85,5S1003.46,410,1003.67,412.41Z"></path><path class="cls-2" d="M1206.45,421.72l-.29.59a5.18,5.18,0,0,1-.4.69,6.73,6.73,0,0,1-.51.73,5.14,5.14,0,0,1-.38.42,3.71,3.71,0,0,1-.3.28l-.28.22a2.83,2.83,0,0,1-.28.2,4,4,0,0,1-.61.32,1.78,1.78,0,0,1-.29.12l-.42.13-.34.08-.37.06a7.44,7.44,0,0,1-.84.05h-.42c-3-.15-5.11-1.58-5.92-4.55-.12-.43-.23-.87-.33-1.31a.36.36,0,0,1,0-.1c-.1-.42-.18-.85-.26-1.27,0-.21-.09-.42-.12-.63l0-.14c0-.16,0-.3-.06-.44a.17.17,0,0,1,0-.07l-.06-.46c-.05-.36-.09-.71-.12-1.06s-.06-.7-.08-1.05a27.11,27.11,0,0,1-.06-2.85c0-.16,0-.34,0-.51s0-.46,0-.69,0-.7.08-1,.06-.65.1-1,0-.37.07-.55a.57.57,0,0,1,0-.18c0-.26.07-.54.12-.81l.15-.82c.1-.54.21-1.09.34-1.63.75-3.09,2.49-4.65,5.72-4.62,3,0,5.34.26,6.54,4,.94,2.87.9,5.62,1.06,8.44A19.66,19.66,0,0,1,1206.45,421.72Z"></path><path class="cls-3" d="M137.68,116.18c-1.87.83-3.25.66-4.37-.71a4.58,4.58,0,0,1-.49-.7,8.75,8.75,0,0,1-.46-.87,17.66,17.66,0,0,1-.84-2.25h0c-4,2.13-8.21,3-11.73-.43-.11-.11-.22-.22-.33-.35-.44-.46-.85-.93-1.25-1.41s-.75-1-1.1-1.48a21.34,21.34,0,0,1-1.76-3.11,15.7,15.7,0,0,1-.65-1.65,16.92,16.92,0,0,1-.45-9c.49-2.3,2-2.43,3.87-1.75,7.44,2.67,10.15,4.21,13.49,14.54,2.88-2.26,5.27-4.32,7.83-6.11s4-1,4.63,2C145.09,107.61,142,114.24,137.68,116.18Z"></path><path class="cls-3" d="M130.8,146.35c.19,2.76-1.77,4-4.34,3.57s-5.26-.91-6.93-2.61a2.61,2.61,0,0,1-.23-.24,4.58,4.58,0,0,1-.4-.53,4.83,4.83,0,0,1-.35-.59,6.17,6.17,0,0,1-.56-1.79,3.32,3.32,0,0,1,.07-1.68,1.59,1.59,0,0,1,.16-.32l.1-.14.13-.12a2,2,0,0,1,.72-.42,2.45,2.45,0,0,1,.32-.09c1-.23,2.34-.07,3.17-.36C126.74,141.22,130.46,141.55,130.8,146.35Z"></path><path class="cls-3" d="M124.86,126.22c-3.07-.47-6.7-1.11-6.89-5.38-.17-3.75,3.33-2.47,5.19-3.54,3.1.84,6.18,2,6.42,5.56C129.78,125.62,127,126.55,124.86,126.22Z"></path><path class="cls-3" d="M82.82,183.69a5,5,0,0,1-.36,1A5.74,5.74,0,0,1,77,187.82c-4.41,0-10.73-4.58-11.94-8.74-1-3.49.72-4.93,4.62-5A14.46,14.46,0,0,1,81,178.27h0a7,7,0,0,1,.87,1A5.08,5.08,0,0,1,82.82,183.69Z"></path><path class="cls-3" d="M88.3,193.19a.06.06,0,0,1,0,0s0,0,0-.06Z"></path><path class="cls-3" d="M85.4,202.39c-4.4,3-9.21,4.88-14.33,3.19a5.35,5.35,0,0,1-1.09-.5,2.62,2.62,0,0,1-.3-.24h0a2.32,2.32,0,0,1-.22-.25,1.64,1.64,0,0,1-.23-.4,2.45,2.45,0,0,1-.08-.29,1.84,1.84,0,0,1,0-.77,3.16,3.16,0,0,1,.21-.61,2.29,2.29,0,0,1,.1-.23c.07-.15.15-.3.24-.46A17.22,17.22,0,0,1,71.05,200a20.11,20.11,0,0,1,3.16-3.27,12.38,12.38,0,0,1,1.05-.78c.17-.12.33-.24.5-.34a.42.42,0,0,1,.14-.09,5.21,5.21,0,0,1,.49-.29,2.11,2.11,0,0,1,.37-.22l.62-.34a16.66,16.66,0,0,1,1.8-.75l1-.33A18.38,18.38,0,0,1,82,193.2h0c.33-.06.66-.1,1-.14a21.42,21.42,0,0,1,3.5-.06c.56,0,1.12.1,1.71.17h0c.11.56.21,1.1.27,1.64C88.89,197.74,88.37,200.39,85.4,202.39Z"></path></svg>