<svg xmlns="http://www.w3.org/2000/svg" id="Layer_1" data-name="Layer 1" viewBox="0 0 842.8 385.06"><path d="M839.6,42.6V65.3H797.5v42.5H774.8V65.5H732.5V42.8h41.3a2,2,0,0,0,.9-2.1V1.6a11,11,0,0,0-.3-1.6h23.3c-.6,4.8-.2,9.7-.3,14.5-.1,9.2,0,18.5,0,28h42.2Z"></path><path d="M277.1,187.6H253.8c-2.8-23.9-5.5-47.7-8.3-71.6-2.7,7-4.7,14.1-7.2,21.1q-8.4,24.3-16.7,48.7c-.6,1.7-1.3,2.2-2.9,2.2q-4.35-.15-8.7,0c-1.6.1-2.4-.4-3-2.1-6.6-20.6-13.3-41.1-20-61.7-.9-2.8-1.6-5.7-2.6-8.6-2.6,24.1-5.7,48.1-8.9,72.3H152.3q7.95-55.35,15.9-110.5H193c6.9,23.5,15.2,46.7,21.4,71.1,7.1-24.2,15.3-47.5,22.6-71.1h24.8C267,113.9,272,150.6,277.1,187.6Z"></path><path d="M507.5,77.1V187.8H485c-1.3,0-1.8-1.1-2.4-2-17.4-23.7-35.7-46.9-52.6-70.9,0-.1-.2,0-.5-.1v72.8H405.8V77h22.5c1.4,0,1.8,1,2.4,1.9q26.1,36,52.3,72c.2.2.5.4.7.6l.4.4c.3-.3.3-.5-.1-.7,0-4.5-.1-9-.1-13.5V77.2h23.6Z"></path><path d="M416,283.2c-8-3-15.5-1.4-22.1,3.9-5.8,4.6-9.3,11-12.1,17.6-2,4.6-3.7,9.4-5.5,14.2a4.33,4.33,0,0,1-.5-.1V281.9l-34.4,1.8v7.2c3.1,0,6-.1,8.9,0,5.8.2,9.7,3.5,10.6,8.9a33.13,33.13,0,0,1,.4,5.5v58.8c0,5.4-2.6,8-8.1,8.2-1.1,0-2.1.2-3.2.2-12.1.8-18.3-5.7-18.1-16.4.3-16,.1-32.1.1-48.1,0-10.9-5.2-18.5-14.9-23.3-5.6-2.8-11.6-3.6-17.8-3.8-13.1-.4-25.5,1.6-35.8,10.6-5.5,4.8-9.3,10.5-8.4,18.2.5,4.8,3.1,8.3,7.7,9.8,4.4,1.4,8.7,1.1,12.2-2.5,3.7-3.8,3.7-8.9,0-14.4s-3.4-7.6,2.3-10.6a30.62,30.62,0,0,1,21.6-2.9c8,1.8,15,8.5,15.5,15.4.4,5.8.1,11.6.1,17.4-.9.2-1.7.3-2.4.4a131.62,131.62,0,0,0-34,8c-7.8,3.1-15.4,6.8-21.2,13.1-12.3,13.1-7.8,32.5,9.1,37.4,15.6,4.5,30.5,2.9,43-8.9,2.1-1.9,4.1-3.9,6.4-6a22.08,22.08,0,0,0,1,2.4c3.4,8.9,7.2,11.6,16.7,11.6h65.2c1.2,0,2.3.3,3.5-.3v-7.5c-5.1,0-10,.1-15,0s-7.8-2.6-8-7c-.6-17.3,0-34.3,6.3-50.8,2.8-7.4,6.3-14.4,12.4-19.7,2.1-1.8,4.4-3.5,7.3-3.9,1-.1,2.2-.5,2.9.6s-.1,1.9-.6,2.7a14.79,14.79,0,0,0-2.1,9.2c.3,4.4,2.9,8.2,6.7,9.3a10.59,10.59,0,0,0,11.8-3.8C429.3,300.8,425.4,286.8,416,283.2ZM313.8,350.4c-2.5,12.4-14.6,25.8-31.5,24.3-7.1-.6-12.6-6.9-13-15.2-.5-10.1,3.8-17.3,12.8-21.9,8.5-4.3,17.7-6.5,27-8,1.7-.3,3.3-.9,5.5-.5C314.2,336.3,315.2,343.4,313.8,350.4Z"></path><path d="M339.1,74.3c-34.4,0-59.5,24.5-59.6,57.9-.1,32.3,24.3,57.9,58.5,58.3,34.6.4,59.9-24.5,59.9-58.3C398,98.9,373,74.4,339.1,74.3Zm6.1,94.5c-16.1,3.7-33.2-6.4-39-23.1a36.4,36.4,0,0,1-2.3-13.2c.1-21.1,16-37.6,35.8-37.4,15,.2,28.3,11.2,32.7,26.9C378,142.5,365.4,164.1,345.2,168.8Z"></path><path d="M754.2,101.5c-7.7-14.6-20.4-22.3-36.7-23.9-15.7-1.5-31.4-.5-47.1-.6-.2,0-.3.2-.6.4V187.9c16.1-.6,32,1,47.7-1.1,16.1-2.3,29.2-9.7,36.9-24.5C765.2,142.1,764.8,121.6,754.2,101.5Zm-22.8,52.8c-8.8,13.8-23,14.1-37.4,13.1V97.3c15-1,29.4-.1,37.9,14.3C740.2,125.7,740.3,140.5,731.4,154.3Z"></path><path d="M605.1,276.9c-2.2.6-4.5.3-7,.2-1.3-7.2-2.3-14.3-4.7-21.1a73.54,73.54,0,0,0-3.2-7.7c-4.5-8.9-12.1-13-21.8-13.7a56.07,56.07,0,0,0-7.1,0c-5,.3-7.4,2.7-7.7,7.7-.1,1.2-.1,2.4-.1,3.5V362.7c0,7.3,2,9.3,9.4,9.3h14.2c.2,0,.4.1,1,.2v7.4H507.7V372h17.5c4.9,0,6.9-2.1,6.9-6.8V242.5c0-5-2.5-7.5-7.7-8-8.3-.7-14.8,2.4-20.1,8.6-8.3,9.9-15.1,20.4-15.8,33.8h-7.7c1.1-16.4,2.2-32.6,3.3-49.1h118C603.1,244.2,604.1,260.4,605.1,276.9Z"></path><path d="M127.3,327.6a65.2,65.2,0,0,1-3.3,16.6c-6.9,21.1-20.8,35-43.1,38.7C54.6,387.3,28,376.6,12.6,352,1.3,333.9-2,314.2,1.1,293.3c2.7-18.9,10-35.7,23.2-49.7A58.85,58.85,0,0,1,65,224.7c13.6-.7,25.6,3.3,36.6,10.8,1.9,1.3,3.7,2.5,5.8,4l4.7-9.7c2.5-5.2,2.5-5.2,8.8-4.8.9,20.3,1.8,40.6,2.7,61.1h-6.8a186.11,186.11,0,0,0-6.4-19.1c-3.5-8.6-7.9-16.7-14.8-23.2-18.5-17.6-45.3-14-58.8,7.7-5.3,8.6-7.7,18.1-9.1,27.9a177.51,177.51,0,0,0-1.3,41.2c1.2,13.5,4.2,26.5,12.1,37.8,9.4,13.4,22.8,17.9,38.6,16.6,23.2-2,36.5-18.2,41.6-40.4.5-2.3,1-4.6,1.5-7Z"></path><path d="M248.9,372.2v7.6H197.2v-7.6c2.7,0,5.5.1,8.3,0,6.3-.2,9-2.9,9-9.2,0-15.6.1-31.2,0-46.8,0-6.3-1.6-12.2-5.9-17-7.7-8.6-21.8-8.9-31-.5a33.75,33.75,0,0,0-11.4,25.4c-.1,12.9,0,25.8,0,38.8,0,6.9,2.5,9.3,9.3,9.3h7.9v7.6H133.1c-.7-2.3-.1-4.8-.4-7.6h7.6c5.9-.1,9-3.2,9-9V246.9c0-7.2-4.5-11.2-12.3-11.5-2.3-.1-4.7,0-7.1,0a32.14,32.14,0,0,1-.1-7.6c12.1-.6,24.1-1.1,36.4-1.7v74c3.6-4,6.5-7.5,10.2-10.3,12.2-9.4,25.5-12.2,39.8-5.4,8.3,3.9,11.5,11.8,13.9,20a44.6,44.6,0,0,1,1.5,12.1c-.1,15.2,0,30.4,0,45.5,0,7.9,2.3,10.2,10.1,10.2Z"></path><path d="M577.8,77c-7.4,0-14.4.1-21.4-.1-2.5-.1-3.5.8-4.3,3q-16.65,48-33.5,95.9c-1.3,3.9-2.7,7.8-4.1,11.9,7.8,0,15.1-.1,22.4.1,2,0,2.3-1.1,2.7-2.5,2-6.4,4.1-12.9,6-19.3.5-1.8,1.4-2.5,3.4-2.4,11.1.1,22.2,0,33.3.1a3.71,3.71,0,0,1,2.5.4c1.6,5.1,3.1,10.2,4.7,15.4,2.5,8.3,2.5,8.3,11.2,8.3h15.6C603.4,150.5,590.7,113.8,577.8,77Zm-24.4,67.9c4.3-13.9,9.5-27.4,12.1-41.6,1.6,7,3.7,13.9,5.9,20.7.6,1.7,1.1,3.4,1.7,5.1a25.82,25.82,0,0,1,.8,2.6c.3.9.5,1.7.8,2.6,1.1,3.5,2.2,7,3.4,10.7H553.4Z"></path><polygon points="140 167.6 140 187.5 77.7 187.5 77.7 77 139.9 77 139.9 97.2 101.7 97.2 101.7 120.8 139.9 120.8 139.9 140.9 101.8 140.9 101.8 167.6 140 167.6"></polygon><path d="M776,369.5c-1.2.7-2.1,1.3-3,1.8-6.5,3.3-11.4,1-13-6.2a33.12,33.12,0,0,1-.6-7c-.1-16.5,0-32.9,0-49.4,0-13.1-6.2-21.6-18.7-25.7-8-2.6-16.3-2.7-24.6-1.9-10.8,1.1-20.4,5-27.9,13.2-4,4.4-6.1,9.5-5.5,15.6.5,5.5,5.2,9.8,11,10.3s10.3-2.7,11.5-8.2c.9-4.2-1.3-7.4-3.5-10.7-2.6-3.8-2.3-5.7,1.5-8.3,5.6-4,12.1-5,18.7-4.7,10.4.5,19.3,7.6,20.1,16.3.5,5.7.1,11.4.1,17.2a5.35,5.35,0,0,1-1.6.4,135,135,0,0,0-28.9,6c-9.5,3.1-18.5,6.9-25.9,13.9-11,10.4-10.9,26.5.2,34.9,5.3,4,11.6,5.3,18.1,5.7,12.7.9,23.9-2.2,33-11.4,1.8-1.8,3.7-3.5,5.8-5.5,3.2,7.6,6.8,14.7,15.5,16.5,8.3,1.7,15.4-1.1,21.3-7.3C778.4,373.3,777.3,371.5,776,369.5Zm-35.2-16.7a30.79,30.79,0,0,1-28.1,22.1c-7.7.2-14.6-4.7-15.6-13.9-1-9.7,2.2-17.5,11.1-22.5s18.5-7.1,28.4-8.8c1.8-.3,3.5-1.1,5.6-.5C741.8,337,743.1,345,740.8,352.8Z"></path><path d="M829.5,261.8a32.54,32.54,0,0,1-64.9.5c-1.5-18.8,13.3-34.5,30.1-35,11.5-.3,23-.1,34.5-.1a5.39,5.39,0,0,1,.3,1C829.2,239.4,830.1,250.6,829.5,261.8Z"></path><path d="M666.9,350.8c-3,5.1-6.2,10-10.5,14-13.1,12.3-32.5,12.1-44.1-.9-7.9-8.8-8.1-20.1-8.7-31.5h69A71.89,71.89,0,0,0,671,316c-2.8-12.1-8.4-22.6-19.3-29.3a43.08,43.08,0,0,0-59.2,14.6c-8.9,14.2-10,29.7-6.7,45.7,4.9,24.1,29.1,39.9,53.1,35.1,16.7-3.3,27-14.1,34.6-28.5C671.3,352.7,669.1,351.8,666.9,350.8Zm-57.8-50.7c5.1-9,12.5-14.4,23.1-13.1,9.9,1.2,15.7,7.8,19.3,16.5a27.9,27.9,0,0,1,1.4,14.9c-.7,4.4-3.2,6.5-7.7,6.5H603.6C603.9,316.1,604.8,307.7,609.1,300.1Z"></path><polygon points="65.7 167.6 65.7 187.6 10.4 187.6 10.4 77.1 34.3 77.1 34.3 167.6 65.7 167.6"></polygon><rect x="624.7" y="77.1" width="24.2" height="110.8"></rect><path d="M484.2,372.2v7.6H429.6v-7.6H439c7.2,0,9.6-2.4,9.7-9.7,0-14.4.1-28.8,0-43.2,0-6.2.6-12.5-.4-18.7-.9-5.7-4.5-8.9-10.3-9.1-2.9-.1-5.8,0-8.8,0-.7-2.5-.2-4.9-.4-7.8l36.6-1.2c.8,1.1.4,2.3.4,3.4v76.8c0,7.7,1.8,9.5,9.5,9.5Z"></path><path d="M464.4,252.7a11.48,11.48,0,0,1-11.5,11.4,11.93,11.93,0,0,1-11.8-11.3c-.1-6.1,5.5-11.7,11.7-11.7A11.61,11.61,0,0,1,464.4,252.7Z"></path><path d="M484,151.9l-.4-.4.3-.3C484.3,151.3,484.3,151.6,484,151.9Z"></path></svg>