<svg xmlns="http://www.w3.org/2000/svg" id="Layer_1" data-name="Layer 1" viewBox="0 0 781.19 147.65"><defs><style>.cls-1{fill:#8199fb;}</style></defs><path class="cls-1" d="M71.18,5.84v72.7c-1.7,1-3.4.6-5.8.2V17.24c-2.3.2-2.6,1.7-3.3,2.7-7.4,11.3-14.7,22.6-22,33.9-3,4.6-3.8,4.7-6.8,0-8-12.2-16-24.4-24.9-36.4V78c-2.4,1.6-4.4,1.1-6.6.8V5.74c4.1-1,7.1-.8,9.8,3.6,7.8,12.7,16.2,25.1,24.8,38.2,5.8-8.9,11.4-17.3,16.9-25.8,2.5-3.9,5.3-7.7,7.4-11.8C63,5.24,66.38,4.44,71.18,5.84Z"></path><path class="cls-1" d="M708.48,39.24c-1.7-.2-3.3-.3-5.1-.5-3.2-19.2-14.6-30.3-33.2-33.7-1.3-1.6.1-3.7-1.5-4.9-1.6,0-3.3-.5-4.9.4-.2,1.5-.4,2.9-.6,4.5-19.9,3.4-31.1,15.3-34.1,35.1-1.9.2-3.5.4-5.1.5-.7,2-1,3.7.1,5.3,1.7.2,3.4.3,5.1.5,3.9,18.7,14.8,30.1,33.7,33,1.1,1.8-.2,3.8,1.3,5.6,1.6-.3,3.4.7,5-.7.2-1.7.3-3.3.4-4.9,19.7-3.3,30.7-14.9,33.7-34.2,2-.2,3.6-.4,5.2-.5C709.28,42.74,709.48,41,708.48,39.24Zm-38.3,33.5c-1.5-1.2,0-3.3-1.5-4.7h-4.9c-.2,1.6-.3,3-.5,4.4-12.3,1-26-12-26.9-25.5,1-1.4,3-.2,4-1.5a8.12,8.12,0,0,0-.2-4.6c-1.3-.2-2.7-.5-4.1-.8-.2-14.1,12.8-27.6,27.1-28.1.2,1.6.5,3.2.7,4.7a8.6,8.6,0,0,0,5,.2c1.4-1.4.2-3.3,1.1-4.7,11.7-1,27,13.3,26.5,26.6-1.4.2-2.8.5-4.3.7v4.7c1,1.8,3.2.1,4.4,1.6C696.08,59.24,684.18,71.64,670.18,72.74Z"></path><path class="cls-1" d="M261.58,4.14c-21.8,0-37.2,15.8-37.2,38.3s15.2,38.2,37.2,38.2,37-15.4,37-38.2S283.58,4.14,261.58,4.14Zm-.3,70.7c-17.8-.3-30.3-13.6-30.4-32.5s12.6-32,30.6-32c18.2,0,31,13.3,30.9,32.4C292.48,61.44,279.28,75,261.28,74.84Z"></path><path class="cls-1" d="M149.48,4.14c-22,0-37,15.5-37,38.3s14.9,38.2,37,38.2,37.1-15.6,37.1-38.2S171.38,4.24,149.48,4.14Zm-.4,70.7c-17.7-.2-30.5-13.9-30.5-32.6s12.7-31.9,30.8-32,31.1,13.6,31,32.4S167,75,149.08,74.84Z"></path><path class="cls-1" d="M397.38,5.54v73.1c-3.2,1.4-4.1-1.4-5.4-3-13.9-17-27.7-34.1-41.6-51.2-.9-1.1-2-2.2-3.6-4v58.2a10.35,10.35,0,0,1-5.7.3c-.9-3.9-1-68.5.2-75.1,17.7,20.1,33,40.8,50.1,61V6.14C393.58,4.84,395.28,5.44,397.38,5.54Z"></path><path class="cls-1" d="M485.48,77.14c-13.4,5.6-26.9,5.3-39.6-2.8a24.15,24.15,0,0,1-8.6-9.8c1.9-1.3,3.4-2.4,5.2-2.6,10.1,12,22.2,15.6,37,11,6.5-2,10.6-6.9,10.9-12.8.2-5.4-2.8-9.3-9.4-12.1-6.8-2.9-14.2-3.3-21.2-5.1a43.94,43.94,0,0,1-12.1-4.4,16.83,16.83,0,0,1-1-28.3c11.9-8.2,30.9-8.1,41.8,0,2.5,1.8,4.1,4.3,6.1,6.9-1.7,1.1-3.1,2-4.8,3.2-8.8-11.4-20.5-11.3-32.7-8.4a16.39,16.39,0,0,0-7.7,4.5c-5.5,5.7-4.2,13.9,2.8,17.5,7.5,3.9,16.1,3.8,24.1,6,5.6,1.5,11.4,2.8,15.6,7.2A18.62,18.62,0,0,1,485.48,77.14Z"></path><path class="cls-1" d="M594.68,5.74v73a10.9,10.9,0,0,1-6.2,0V46.34h-45.7V78c-2.1,1.7-3.9,1-6,.9V5.84c1.7-.9,3.3-.4,5.6-.4v34.5h45.8V6.34C590.48,4.74,592.38,5.24,594.68,5.74Z"></path><path class="cls-1" d="M778.28,10.84h-26.7v67.5c-2.1,1.2-3.9.6-6.2.6V11.24h-25c-1.7-1.9-.9-3.4-.9-5.2h58.1C778.88,7.44,778.18,8.94,778.28,10.84Z"></path><path class="cls-1" d="M228.58,107.54c-6.3-1.9-12.8-.8-19.4-.9v37.3c5,0,9.7.3,14.3-.1,9.5-.7,15.8-7,17-16.6C241.48,118.74,236.38,109.84,228.58,107.54Zm6,25.7c-4.9,8.8-13.4,7-21.7,7v-30c7.6-.2,15.6-1.9,20.9,5.7C237.78,121.34,237.88,127.34,234.58,133.24Z"></path><path class="cls-1" d="M336.78,143.94c-9.3-8.6-16.2-19.1-25.2-29v28.4c-1.9.7-3.7,1.2-3.7-1.1-.1-11.7-.1-23.5.6-35.5,9.2,8.5,16.1,18.7,24.9,28.7v-28.3c2-.7,3.9-1.4,4,1.3C337.48,120.24,337.38,131.94,336.78,143.94Z"></path><path class="cls-1" d="M444.48,106.84v34.8c0,1.2-.1,2.4-1.8,2.2s-1.3-1.7-1.3-2.8c0-7.3,0-14.7-.1-22,0-1.6.5-3.3-.9-5.7-4.5,6.9-8.7,13.2-13.3,20.3-4.6-6.9-9-13.4-13.3-19.8l-1.2.3v27.7c0,1-.2,2-1.6,2s-1.5-1-1.6-2v-34.7c3.2-1.4,4.6.3,6,2.4,3.6,5.7,7.4,11.4,11.3,17.5,6.2-6.7,8.6-16.1,15.9-21.4A10,10,0,0,0,444.48,106.84Z"></path><path class="cls-1" d="M568.48,134.34c-.4,5.3-4.7,9.1-11,9.6-7.6.6-14.6-.1-19-7.8,2.5-2.5,3.5-.7,4.9.6,4.8,4.7,10.6,5.2,16.7,3.1a6.3,6.3,0,0,0,4.7-5.8c.2-3.2-1.7-5.1-4.4-5.9-3.9-1.2-8-1.9-12-3-6.3-1.8-9-4.6-8.8-9.2.2-4.9,3.3-8,9.3-9.4,8-1.9,14.2.1,18.1,5.7-2.2,1.7-2.2,1.7-4.4,0-4.9-3.8-10.1-3.6-15.5-1.3a5.62,5.62,0,0,0-3.8,5.4c-.1,2.9,1.9,4.2,4.2,4.8,4,1.1,8.1,1.9,12.1,3C565.78,125.74,568.88,129.34,568.48,134.34Z"></path><path class="cls-1" d="M376.18,108.34c-1.4-3.1-4.1-2.6-5.7.9-5.1,11.2-10,22.4-15.2,34,2.7,1.5,4.3.4,4.7-1.8,1.2-6.5,5.7-7.1,11-6.5a32.76,32.76,0,0,0,7,0c4.7-.7,7.5,1,8.7,5.7.6,2.2,1.5,4.6,5.1,2.7C386.58,131.64,381.48,119.94,376.18,108.34Zm-11.8,23.2c3.1-7,5.9-13.4,9.2-20.9,3.1,7.7,6.6,13.8,8.8,20.9Z"></path><path class="cls-1" d="M522.08,138.24c-6,7.5-18.7,8.3-26.7,1.5-7.2-6.1-7.9-20.3-1.3-27.7,7.2-8.1,19.8-8.3,28.2-.2-1.9,3.1-3.5,1.2-5.1.2-7-4.4-15.3-3.4-20.4,2.3-4.9,5.6-5,15.3-.2,21.2,4.9,6.1,13.6,7.3,20.7,2.8C518.78,137.34,520.38,135.34,522.08,138.24Z"></path><path class="cls-1" d="M279.88,121.24c-4.8,5.6-5,12-4.8,18.7.1,2.1.6,4.8-3.3,3.8-1.5-6.4,1.5-13.4-3.4-19.5-4.1-5.1-7.3-11-11.1-16.7,2.7-1.8,4.1-.7,5.5,1.7,3.2,5.2,6.6,10.3,10,15.7,6-5.7,7.3-14.8,14.6-18.7l1.5,1.2C286,111.94,283.48,117,279.88,121.24Z"></path><path class="cls-1" d="M469.58,109v32.5c0,1.2.1,2.5-1.7,2.4-1.1-.1-1.2-.8-1.4-1.7-.3-1.7.2-33.2.7-35.2C469,106.54,469.58,107.44,469.58,109Z"></path></svg>