<svg xmlns="http://www.w3.org/2000/svg" id="Layer_1" data-name="Layer 1" viewBox="0 0 1366 602.05"><defs><style>.cls-1{fill:#2d2d2d;}.cls-2{fill:#af3120;}.cls-3{fill:#384e7b;}</style></defs><path class="cls-1" d="M1069.28,59.05V323.26H987.79V201.6l-2.79-.69c-12.53,40.63-25.3,81.26-38.31,122.82H880.76c-6,0-6.5-4-7.66-8.13-10.68-34.59-21.36-69.42-32-104a18.28,18.28,0,0,0-5.34-9.29V323H753.06v-264c32.27,0,63.85.23,95.66-.23,6.73,0,7.19,4.41,8.59,8.59,17,46.43,34.13,92.63,51.08,139.07.92,2.55,1.85,5.11,3.71,9.52,7-19.27,13.23-36.69,19.5-54.1,11.15-31.11,22.29-62.45,33.2-93.8,2.33-7,5.58-9.52,13-9.28C1008.22,59.28,1038.17,59.05,1069.28,59.05Z"></path><path class="cls-1" d="M715,59.51V323.73c-20.9,0-41.8-1.17-62.46.46-15.55,1.16-24.15-4.64-32-17.65C597,269.16,572.43,232.71,546,192.78v130H462.15V59.05c26.47,0,52.47.23,78.47-.23,6.27,0,7.66,4.64,10,8.12q37.26,57.12,74.52,114.69l7,10.45V59.51Z"></path><path class="cls-1" d="M1366,323.73h-23.45c-22.06,0-44.11-.47-66.17.23-7.66.23-11.61-2.56-15.79-8.59-22.52-34.13-45.5-68-70.11-105V323.26h-83.59V59.74h82.66V164.92c5.34.23,6-4.18,7.66-6.5q31.69-46.32,63.38-92.87c2.79-3.95,5.11-7,10.68-6.73,28.56.23,57.35.23,88.23.23-30.65,42.72-60.6,84.28-91,126.53C1300.76,230.86,1332.57,276.13,1366,323.73Z"></path><path class="cls-2" d="M284.54,389c-6.74.46-12.31-1.63-12.77-10-1.16-18.57-6.27-35.75-17.88-50.61-5.81-7.2-12.07-13.93-24.15-16.95v44.35c0,26-1.62,29.71-12.77,30-10.68.23-11.84-3.25-11.84-30.42V308.63c-35.29,12.31-41.09,41.56-44.81,72.21h-23c-2.56-46.2,19.5-79.87,62.92-97.28-5.11-24.84-20.43-39.24-43.42-40.63-28.09-1.86-46,16.25-49.45,49.45a138.83,138.83,0,0,0-.93,13.93c0,8.82-5.11,13-13.24,12.08-7.19-.7-12.53-3.26-11.84-13.24,1.16-15.55,3.25-30.65,9.29-45,10.45-25.08,28.56-40.17,56-41.79,28.79-1.63,52.24,8.12,67.8,33.66,5.8,9.75,6.27,22.76,13,30.42,6.27,7.2,19.74,7.43,28.33,14.16,26.7,20.43,38.3,48.53,40.16,81.26C296.61,386.18,291.27,388.73,284.54,389Z"></path><path class="cls-2" d="M232.3,73.91c-.93,9.52-7.9,11.61-16.26,10.21a119.84,119.84,0,0,0-43.64.7C112,96,66.76,147.74,65.6,209c-1.16,53.87-.47,107.5-.7,161.36a66.72,66.72,0,0,1-1.16,13.7c-1.16,6.5-4.64,10.45-11.84,10-7-.69-10.45-4.87-10.68-11.37-.47-8.83-.23-17.88-.23-26.7V287c1.16-26.7-1.86-59.67,1.39-92.4,7.89-78,82.65-140,160.9-133.5a110.24,110.24,0,0,0,15.09.46C227.19,61.14,233.23,64.16,232.3,73.91Z"></path><path class="cls-2" d="M351.17,411c-4.88,35.76-21.59,65.71-47.6,90.55-5.8,5.34-12.07,9.75-19,2.55-6.51-6.73-3.72-13.69,2.32-19.27,32.73-31.11,44.81-69.42,43.41-114.23-1.39-51.54,0-103.08-.23-154.39a132.2,132.2,0,0,0-20-70.35,69.61,69.61,0,0,1-4.17-7c-3.49-6.51-6.51-13.24,1.39-18.35,7.66-5.1,13.23-.69,17.64,5.34,14.17,19.74,23.45,41.56,26.47,65.94,4.65,36.22.47,72.67,2.79,107.73C352.1,337.66,356.05,374.57,351.17,411Z"></path><path class="cls-1" d="M855.91,492.05c3.72-1.16,5.81-2.09,8.13-2.55,29-8.13,43-27.86,41.33-58.74-1.4-27.63-18.34-46.21-46.44-50.85-24.61-4-49.22-.93-74.52-1.86V576.1c4.64,1.39,8.59,1.86,13.23-.47V492.75c12.07,0,23.22.46,34.13-.23,7-.47,10.45,2.55,13.7,8.12,13,22.06,26.93,43.42,39.23,65.71,5.11,9.28,10.92,13,22.29,10C889.81,548,872.86,520.38,855.91,492.05ZM845,480.91H797.64V389.66c20.43.23,40.4-1.62,60.36,2.09,22.29,4.18,33.67,19.74,33.21,44.58-.47,23.68-13.94,39.47-36.92,43.42A60.33,60.33,0,0,1,845,480.91Z"></path><path class="cls-1" d="M1180.26,518.29c-12.07,31.11-33.2,50.38-64.78,57.81-51.54,12.07-98.2-12.08-114.92-59.44-18.58-52,1.62-109.35,46-131.18,51.31-25.3,114-1.85,133,50.62-9.51,2.32-14.85,0-19.73-9.06-22.52-43-86.83-52.7-124.45-19.27-42.72,38.08-35.05,121,13.47,149.29,30.65,17.88,91.48,14.86,112.84-32C1166.1,515.5,1172.6,518.52,1180.26,518.29Z"></path><path class="cls-1" d="M1361.12,565.19c-21.59-58.05-43.41-116.32-65.24-174.37-2.09-5.34-3.71-9.05-10.91-9.05-7.66,0-8.36,4.41-10.45,9.52-22,58.51-44.11,116.78-65.93,175.29-1.16,2.78-3.95,5.8-2.09,9.52,9.52,3,14.16-.47,17-9.52,4.17-13.47,9.75-26.7,14.62-40.4,29.49,0,58.51.23,87.53-.23,5.57,0,7.2,2.55,8.82,7,3.95,11.38,9.06,22.29,12.31,33.67,2.79,9.75,7.89,12.07,17,9.52C1365.07,572.15,1362.52,568.67,1361.12,565.19ZM1243,514.34c13.93-37.38,27.63-74.3,42.49-113.77,14.62,39.47,28.32,76.16,42.25,113.77Z"></path><path class="cls-1" d="M544.34,382.93c-10.68-2.79-15.79.46-19.5,10.45-20.67,56.88-42.49,113.3-63.62,170-1.63,3.95-4.88,7.89-3,12.54,9.75,3,14.16-.7,16.72-10,3.25-11.37,8.36-22.29,12.3-33.66,1.4-4,2.79-6.5,7.9-6.5,29.25.23,58.5.23,88,.23,6.5,17.18,12.77,33.66,18.81,49.68h14.39C592.17,510.86,568,446.78,544.34,382.93ZM494.42,514.11c13.93-37.15,27.4-73.83,42.26-113.3,14.62,39,28.32,75.69,42.25,113.3Z"></path><path class="cls-2" d="M260.85,529.9c-14.16,6.73-29,10.44-44.34,12.53-7.2.93-14.63,1.16-20.9,1.86-61.52-3-106.56-30.88-136.51-83.58-4-6.74-6-14.4,2.32-19.27s13.7.23,17.64,7.43C97.87,481.6,123.64,506,161.25,515.5c24.15,6.27,48.06,6,72-1.39,6.73-2.09,13.23-4.18,20-5.81,6.27-1.39,11.84.24,13.93,7.2C269.44,522,267.12,526.88,260.85,529.9Z"></path><path class="cls-1" d="M661.82,389.43v81.73h75.69c2.78,4.17,2.55,7.42.93,11.37H661.82v93.34c-5.34,1.62-9.06,1.62-13.24.23V378.29H749.35c2.09,3.48,1.62,6.73.46,10.91h-88Z"></path><path class="cls-2" d="M281.52,145.18c-.7,9.29-9.52,14.17-17.42,9.06a237.36,237.36,0,0,1-19.73-14.16c-39.7-31.35-92.64-13.93-117.25,15.78-1.86,2.33-3.94,4.88-5.8,7.2-4.88,5.34-10.45,8.82-16.95,3.48-6.27-5.1-4.88-11.84-.7-17.64C114.58,133.57,128.05,121,145,112.45c16-8.13,33.2-12.08,47.36-11.84,33.44-.24,59.21,9.28,81.5,28.55C278.5,133.34,282,138.22,281.52,145.18Z"></path><path class="cls-2" d="M302,201.14c-1.16,17.64-3.25,34.59-10.91,49.91-10.68,21.36-32,33.44-53.64,30.42-7.66-.93-10.68-4.64-9.51-12.07.92-7,2.55-13.7,11.6-12.54,16,2.09,26.94-7.89,32.51-23.68,3.48-10.22,5.8-20.9,5.11-31.81-.7-11.14,5.34-14.4,14.39-14.63C301.48,186.74,303.34,193.24,302,201.14Z"></path><path class="cls-1" d="M954.82,378.75V575.87c-3.48,2.09-7,1.62-11.14.23V379.21C947.39,377.36,950.64,377.82,954.82,378.75Z"></path><path class="cls-3" d="M393.89,256.86c-.7,14.39-.23,28.56-.23,42.95a79.28,79.28,0,0,1-.23,10.45c-.47,7-2.56,13.93-10.92,13.7-8.12-.23-10.68-7-10.91-13.93-.23-13.24,0-26.24,0-38.08-.93-34.13,1.39-67.1-6.5-99.37C344.2,85.28,253,26.78,165,44.65c-62.69,12.77-105.41,49.22-130,108-1.86,4.18-4,8.36-5.81,12.31-2.32,4.64-6,7-11.37,5.34-5.11-1.63-8.59-4.65-8.82-10.68-.24-4.65,1.39-9.06,3-13.47,29.95-78.7,105-131.18,189.23-127.93,79.63,3,139.07,41.33,174.13,113.77C394.35,171.42,396.21,213.91,393.89,256.86Z"></path><path class="cls-3" d="M91.14,547.08c-6.51,4.18-10.45,0-14.4-3C46.79,521.3,25.43,492.05,12.2,457,3.14,433.08-.34,408,.12,382.23c.47-25.54,0-51.08,0-76.61H.36v-101c0-8.36,1.39-16.72,11.6-16.48,11.15.23,11.61,9.05,11.38,17.64-.46,56.19-.23,112.37-1.16,168.33C21,435.17,42.38,485.78,90,524.79,101.58,533.84,101.35,540.58,91.14,547.08Z"></path><path class="cls-3" d="M333.06,529.43c-42.95,40.86-94.73,58.74-153.7,54.79C171,583.76,163.11,581,163.81,571c.46-10.45,8.82-10.91,17.18-10.45,74.52,4.41,130.94-25.77,168.55-89.85,16.49-28.32,21.36-60.13,21.13-92.64,0-8.82.23-17.64.93-26.7.47-7.43,4.64-11.14,12.07-10.91,7.2.47,10,5.11,10,11.61.23,9.75,0,19.27,0,29C394.82,439.58,375.32,489.5,333.06,529.43Z"></path><path class="cls-3" d="M269.91,210c.46,9.75-8.13,10-14.63,11.38-7.43,1.39-7.43-4-8.12-9.29-3.95-36.68-45.51-60.37-79.18-45-12.53,5.8-20.43,15.32-21.36,29.48-.69,10.68-7,12.77-15.78,11.61-9.52-1.16-8.36-8.36-7.2-15.09,3.71-23.22,30.18-52.47,68.72-50.15,23.45.93,44.12,8.13,60.83,25.77C264.1,180.24,269,194.4,269.91,210Z"></path><path class="cls-3" d="M305.66,425.18c-3.94,11.85-9.28,23-17.41,32.28-25.77,29.72-50.85,43.65-93.1,45.27-6.27-.7-14.4-.93-22.29-2.32-7.66-1.39-13-5.57-11.61-14.4,1.39-8.35,7.66-10.21,14.86-8.82,20.66,3.95,40.86,3,59.9-6.5C257.84,460,273.39,443.76,281.75,421c.46-1.4,1.39-2.79,1.86-4.18,2.55-8.13,8.12-12.77,16.71-9.75C309.84,410.09,308.22,418,305.66,425.18Z"></path><path class="cls-3" d="M153.36,487.41c-4.88,3.48-10.22,2.55-15.09-.7-28.79-18.11-47.83-43.18-53.64-77.08-3.48-20-2.32-39.93-2.55-60.13,0-7.9,2.32-13.93,11.61-13.7s11.38,6.27,11.61,13.93c.23,8.59,0,16.95,0,29.25-1.86,17.65,1.86,37.85,13.23,56.65,7.66,12.77,18.81,22.06,30.65,30.42,3.48,2.55,7.2,4.64,8.59,9.05A10.7,10.7,0,0,1,153.36,487.41Z"></path><path class="cls-3" d="M254.35,408.93c-1.85,27.17-24.14,46.67-53.63,46.67-26.93.23-51.54-22.75-53.4-49.45C146.86,398,149,390.59,158,389.89c8.59-.69,11.61,5.34,12.54,13.24,3,26,26.47,36.68,46.43,25.07,8.59-5.1,12.77-12.77,13.93-22.75.7-6,3.72-11.14,9.52-13.47,4.18-1.62,7.43,1.63,10.45,3.95C255.28,399.41,254.59,404.52,254.35,408.93Z"></path><path class="cls-3" d="M240,234.8c-.47,8.13-4.88,8.83-10.45,8.59-6.27-.23-13.7,0-14.39-8.82-1.86-21.36-8.13-28.09-29.26-29.25-6.5-.24-13,0-19.5,0-4-15.09,0-21.83,14.16-24.15C212.79,175.6,241.82,202.07,240,234.8Z"></path><path class="cls-3" d="M311.93,275.9c-.46,14.16-.23,28.55-.46,43-.23,7.2-2.56,13.47-10.91,13.47-8.59,0-11.85-5.81-11.85-13.93V296.33c0-6.5.47-13.24-.23-19.74-1.16-10,5.34-12.3,12.54-12.53C307.75,264.06,312.16,267.77,311.93,275.9Z"></path><path class="cls-3" d="M151.5,276.59c-1.62,10.22-3,20.44-4.64,30.65-1.16,7.43-6,10.68-13.24,9.52-6.73-1.16-11.14-5.8-10-13,1.62-10.45,3.71-20.9,4.88-31.58.69-7,7.89-8.36,13.46-7.66C148.71,265,152.43,269.4,151.5,276.59Z"></path><path class="cls-3" d="M289.88,97.36c-.24,6.26-7.9,12.3-14.17,9.52a198.34,198.34,0,0,1-25.07-13.24c-6.27-3.71-7.43-9.52-3.25-15.79,3.71-5.8,7.89-6.27,14.62-3,7.43,3.48,14.86,7,21.83,11.6C287.79,88.77,289.18,92.25,289.88,97.36Z"></path><path class="cls-3" d="M104.83,221.57c-.23,7-1.62,14.16-10.21,13.93-7.9-.23-11.38-7-12.54-14.4-.7-3.71,0-7.66,0-11.6h.23v-8.13c0-6.27,1.16-12.07,9.06-12.07,7.43,0,12.77,3.71,13.46,11.37C105.53,207.64,105.07,214.6,104.83,221.57Z"></path><path class="cls-3" d="M143.84,570.06c-3.48,3.25-6.5,6.73-12.07,4-6.27-3-12.77-5.57-18.81-8.36-4.18-1.86-6.5-5.34-6-9.52-.46-6.27,2.56-9.29,7.2-11.14,8.59-3,26.7,5.1,30.88,13.46C147.32,562.86,147.55,566.58,143.84,570.06Z"></path></svg>